<svg width="370" height="824" viewBox="0 0 370 824" fill="none" xmlns="http://www.w3.org/2000/svg">
<g opacity="0.5">
<path d="M366.536 63.4347C366.806 62.5986 367.183 61.7607 367.34 60.8831C367.808 58.2467 367.628 55.6067 367.136 52.9884C366.904 51.755 366.597 50.5362 366.266 49.0464C366.619 49.431 366.873 49.6405 367.042 49.9023C368.107 51.5582 368.419 53.4579 368.405 55.3449C368.383 58.1962 368.19 61.0511 367.924 63.8897C367.785 65.3632 367.897 66.7555 368.279 68.164C369.783 73.6986 370.154 79.338 369.947 85.0514C369.61 94.3583 367.933 103.51 366.841 112.728C366.579 114.938 366.341 117.152 366.145 119.368C366.084 120.06 365.945 120.294 365.143 120.312C364.121 120.334 363.114 120.749 362.089 120.93C361.779 120.984 361.429 120.823 361.098 120.76C361.175 120.415 361.139 119.883 361.348 119.756C362.291 119.187 362.292 118.487 362.109 117.486C360.557 109.073 360.073 100.59 360.811 92.0613C361.42 85.0297 362.777 78.1372 364.88 71.3927C365.334 69.9336 365.705 68.4402 365.99 66.9379C366.177 65.9537 366.078 64.9533 365.248 64.1859C364.79 63.7633 364.494 63.8193 364.215 64.3755C363.774 65.2567 363.341 66.1523 362.81 66.9794C362.356 67.6872 361.62 68.0592 360.786 67.7613C359.95 67.4633 359.698 66.7537 359.736 65.8743C359.8 64.3249 360.745 63.1187 362.112 63.0555C361.788 64.1931 360.609 65.114 361.22 66.4521C362.512 66.2769 363.637 64.7655 363.3 63.5755C363.174 63.1331 362.743 62.7792 362.449 62.3819C364.527 60.6881 364.267 58.0752 363.912 55.6663C363.321 51.6648 362.595 47.6488 361.491 43.7628C360.112 38.9161 358.299 34.1941 356.66 29.4233C356.231 28.1755 355.398 27.2581 354.22 26.6532C351.758 25.391 349.322 24.0927 347.398 22.0305C346.266 20.817 345.381 19.5115 345.349 17.7581C345.334 16.9617 345.671 16.6909 346.414 16.6764C347.816 16.6511 348.926 17.3084 350.007 18.0542C350.009 18.1481 350.01 18.2438 350.014 18.3377C349.652 18.3702 349.275 18.484 348.933 18.4154C348.38 18.3016 347.861 18.0199 347.308 17.8989C346.558 17.7346 346.311 18.0452 346.531 18.7783C346.944 20.1561 347.796 21.254 348.893 22.1081C350.191 23.1176 351.584 24.0096 352.967 24.9016C353.175 25.0353 353.558 24.8926 353.861 24.8782C353.84 24.5802 353.93 24.201 353.78 24.0006C352.722 22.5812 351.614 21.1998 350.528 19.8004C350.333 19.5512 350.165 19.2803 349.855 18.8307C350.913 18.7982 351.566 19.2334 352.048 19.7968C353.24 21.1836 354.35 22.6426 355.488 24.0746C355.6 24.2155 355.723 24.3563 355.796 24.5188C356.463 25.9526 357.625 26.2361 358.997 25.8117C360.045 25.4867 361.157 25.1761 362.049 24.5748C364.705 22.7853 365.19 20.2121 363.534 17.4421C361.835 14.5998 359.521 12.3552 356.737 10.6C352.126 7.69097 347.007 6.25178 341.667 5.53851C333.982 4.51284 326.277 4.93358 318.57 5.30195C310.326 5.69741 302.066 6.15969 293.842 5.12138C290.55 4.70605 287.306 3.87179 284.056 3.16574C280.773 2.45247 277.513 1.63266 274.122 1.60557C271.566 1.5839 269.118 2.03534 266.757 3.02128C265.912 3.37521 265.027 3.62982 264.162 3.93138C264.108 3.85193 264.054 3.77067 264 3.69122C264.377 3.35896 264.699 2.88766 265.139 2.72153C267.062 1.992 268.975 1.15774 270.972 0.700885C276.879 -0.648015 282.724 0.11582 288.508 1.58932C294.359 3.07907 300.237 4.40991 306.283 4.80537C311.296 5.13221 316.294 4.96067 321.293 4.44603C326.396 3.92055 331.504 3.41494 336.622 3.07907C341.698 2.745 346.7 3.30479 351.493 5.13041C355.93 6.8206 359.982 9.10127 362.826 13.0793C364.212 15.0187 365.095 17.1676 365.311 19.5638C365.581 22.5632 364.091 24.7969 361.083 25.9111C360.24 26.2235 359.39 26.5106 358.55 26.8338C358.26 26.9458 357.998 27.1299 357.721 27.2834C358.784 29.4485 359.912 31.471 360.793 33.5964C362.233 37.0652 363.393 40.628 364.208 44.3153C365.24 48.9922 365.251 53.6746 364.75 58.3966C364.658 59.2598 364.758 60.1446 364.651 61.0059C364.487 62.3205 365.114 63.0103 366.536 63.4383V63.4347ZM367.547 69.0018C367.428 69.0054 367.309 69.0109 367.192 69.0145C367.064 69.3341 366.875 69.6429 366.815 69.9751C365.781 75.6741 364.585 81.3496 363.79 87.0829C363.066 92.3087 362.687 97.5906 362.33 102.86C361.995 107.806 361.802 112.77 362.811 117.681C362.871 117.969 363.096 118.221 363.244 118.489C363.412 118.214 363.682 117.958 363.734 117.662C364.667 112.335 365.559 107 366.493 101.673C367.504 95.8986 368.383 90.1039 368.648 84.2406C368.843 79.9483 369.093 75.6452 368.228 71.3854C368.064 70.5783 367.779 69.7946 367.549 69L367.547 69.0018Z" fill="white"/>
<path d="M368.28 147.146C367.551 145.644 366.174 145.382 364.932 144.901C363.93 144.513 362.896 144.183 361.947 143.688C360.828 143.107 360.438 141.761 360.91 140.42C362.118 141.906 363.866 142.263 365.527 142.809C366.035 142.976 366.531 143.206 367.005 143.457C368.455 144.232 368.886 145.411 368.28 147.142V147.146Z" fill="white"/>
<path d="M360.685 120.854C361.611 122.268 363.06 122.566 364.386 123.075C365.14 123.364 365.905 123.624 366.641 123.953C368.052 124.585 368.574 125.919 368.006 127.559C367.062 126.029 365.462 125.771 363.995 125.248C363.293 124.997 362.586 124.733 361.929 124.384C360.586 123.673 360.136 122.422 360.685 120.851V120.854Z" fill="white"/>
<path d="M360.773 130.6C361.889 132.223 363.669 132.366 365.188 133.007C365.767 133.251 366.37 133.44 366.929 133.722C368.277 134.403 368.781 135.9 368.097 137.274C367.379 135.867 365.977 135.609 364.713 135.121C363.849 134.789 362.966 134.5 362.134 134.103C360.802 133.469 360.327 132.259 360.772 130.6H360.773Z" fill="white"/>
<path d="M368.057 147.773C367.927 147.924 367.743 148.313 367.442 148.464C366.269 149.051 365.062 149.569 363.86 150.097C363.505 150.252 363.1 150.31 362.766 150.496C362.156 150.837 361.822 150.505 361.494 150.07C361.13 149.586 361.33 149.19 361.745 148.923C362.444 148.471 363.157 148.022 363.916 147.686C364.817 147.287 365.77 147.007 366.702 146.675C367.327 146.453 368.028 146.902 368.057 147.771V147.773Z" fill="white"/>
<path d="M367.907 137.899C367.743 138.108 367.558 138.543 367.23 138.724C366.322 139.228 365.361 139.645 364.406 140.057C363.858 140.291 363.237 140.374 362.723 140.662C362.065 141.028 361.71 140.683 361.359 140.25C360.961 139.759 361.282 139.347 361.655 139.112C362.408 138.639 363.202 138.22 364.015 137.859C364.86 137.483 365.749 137.203 366.615 136.878C367.122 136.689 367.888 137.184 367.907 137.899Z" fill="white"/>
<path d="M367.731 128.386C367.385 128.655 366.936 129.157 366.378 129.406C365.013 130.017 363.599 130.52 362.195 131.039C362.033 131.098 361.772 131.037 361.615 130.938C360.937 130.511 360.842 129.878 361.476 129.403C362.114 128.924 362.84 128.543 363.572 128.22C364.473 127.823 365.417 127.519 366.349 127.196C367.053 126.95 367.779 127.433 367.731 128.386Z" fill="white"/>
<path d="M361.103 150.178C362.211 152.421 364.531 152.859 366.424 153.928C367.073 154.295 367.727 154.669 368.315 155.122C368.925 155.593 368.92 156.222 368.473 157C367.579 155.257 365.86 155.052 364.352 154.476C363.653 154.208 362.93 153.986 362.264 153.654C360.988 153.02 360.462 151.458 361.101 150.18L361.103 150.178Z" fill="white"/>
<path d="M366.536 760.565C366.806 761.401 367.183 762.239 367.34 763.117C367.808 765.753 367.628 768.393 367.136 771.012C366.904 772.245 366.597 773.464 366.266 774.954C366.619 774.569 366.873 774.359 367.042 774.098C368.107 772.442 368.419 770.542 368.405 768.655C368.383 765.804 368.19 762.949 367.924 760.11C367.785 758.637 367.897 757.245 368.279 755.836C369.783 750.301 370.154 744.662 369.947 738.949C369.61 729.642 367.933 720.49 366.841 711.272C366.579 709.062 366.341 706.848 366.145 704.632C366.084 703.94 365.945 703.706 365.143 703.688C364.121 703.666 363.114 703.251 362.089 703.07C361.779 703.016 361.429 703.177 361.098 703.24C361.175 703.585 361.139 704.117 361.348 704.244C362.291 704.813 362.292 705.513 362.109 706.514C360.557 714.927 360.073 723.41 360.811 731.939C361.42 738.97 362.777 745.863 364.88 752.607C365.334 754.066 365.705 755.56 365.99 757.062C366.177 758.046 366.078 759.047 365.248 759.814C364.79 760.237 364.494 760.181 364.215 759.625C363.774 758.743 363.341 757.848 362.81 757.021C362.356 756.313 361.62 755.941 360.786 756.239C359.95 756.537 359.698 757.246 359.736 758.126C359.8 759.675 360.745 760.881 362.112 760.945C361.788 759.807 360.609 758.886 361.22 757.548C362.512 757.723 363.637 759.234 363.3 760.424C363.174 760.867 362.743 761.221 362.449 761.618C364.527 763.312 364.267 765.925 363.912 768.334C363.321 772.335 362.595 776.351 361.491 780.237C360.112 785.084 358.299 789.806 356.66 794.577C356.231 795.825 355.398 796.742 354.22 797.347C351.758 798.609 349.322 799.907 347.398 801.97C346.266 803.183 345.381 804.489 345.349 806.242C345.334 807.038 345.671 807.309 346.414 807.324C347.816 807.349 348.926 806.692 350.007 805.946C350.009 805.852 350.01 805.756 350.014 805.662C349.652 805.63 349.275 805.516 348.933 805.585C348.38 805.698 347.861 805.98 347.308 806.101C346.558 806.265 346.311 805.955 346.531 805.222C346.944 803.844 347.796 802.746 348.893 801.892C350.191 800.882 351.584 799.99 352.967 799.098C353.175 798.965 353.558 799.107 353.861 799.122C353.84 799.42 353.93 799.799 353.78 799.999C352.722 801.419 351.614 802.8 350.528 804.2C350.333 804.449 350.165 804.72 349.855 805.169C350.913 805.202 351.566 804.767 352.048 804.203C353.24 802.816 354.35 801.357 355.488 799.925C355.6 799.785 355.723 799.644 355.796 799.481C356.463 798.047 357.625 797.764 358.997 798.188C360.045 798.513 361.157 798.824 362.049 799.425C364.705 801.215 365.19 803.788 363.534 806.558C361.835 809.4 359.521 811.645 356.737 813.4C352.126 816.309 347.007 817.748 341.667 818.461C333.982 819.487 326.277 819.066 318.57 818.698C310.326 818.303 302.066 817.84 293.842 818.879C290.55 819.294 287.306 820.128 284.056 820.834C280.773 821.548 277.513 822.367 274.122 822.394C271.566 822.416 269.118 821.965 266.757 820.979C265.912 820.625 265.027 820.37 264.162 820.069C264.108 820.148 264.054 820.229 264 820.309C264.377 820.641 264.699 821.112 265.139 821.278C267.062 822.008 268.975 822.842 270.972 823.299C276.879 824.648 282.724 823.884 288.508 822.411C294.359 820.921 300.237 819.59 306.283 819.195C311.296 818.868 316.294 819.039 321.293 819.554C326.396 820.079 331.504 820.585 336.622 820.921C341.698 821.255 346.7 820.695 351.493 818.87C355.93 817.179 359.982 814.899 362.826 810.921C364.212 808.981 365.095 806.832 365.311 804.436C365.581 801.437 364.091 799.203 361.083 798.089C360.24 797.777 359.39 797.489 358.55 797.166C358.26 797.054 357.998 796.87 357.721 796.717C358.784 794.551 359.912 792.529 360.793 790.404C362.233 786.935 363.393 783.372 364.208 779.685C365.24 775.008 365.251 770.325 364.75 765.603C364.658 764.74 364.758 763.855 364.651 762.994C364.487 761.679 365.114 760.99 366.536 760.562V760.565ZM367.547 754.998C367.428 754.995 367.309 754.989 367.192 754.986C367.064 754.666 366.875 754.357 366.815 754.025C365.781 748.326 364.585 742.65 363.79 736.917C363.066 731.691 362.687 726.409 362.33 721.14C361.995 716.194 361.802 711.23 362.811 706.319C362.871 706.031 363.096 705.779 363.244 705.511C363.412 705.786 363.682 706.042 363.734 706.338C364.667 711.665 365.559 717 366.493 722.327C367.504 728.101 368.383 733.896 368.648 739.759C368.843 744.052 369.093 748.355 368.228 752.615C368.064 753.422 367.779 754.205 367.549 755L367.547 754.998Z" fill="white"/>
<path d="M368.28 676.854C367.551 678.356 366.174 678.618 364.932 679.099C363.93 679.487 362.896 679.817 361.947 680.312C360.828 680.893 360.438 682.239 360.91 683.58C362.118 682.094 363.866 681.737 365.527 681.191C366.035 681.024 366.531 680.794 367.005 680.543C368.455 679.768 368.886 678.589 368.28 676.858V676.854Z" fill="white"/>
<path d="M360.685 703.146C361.611 701.732 363.06 701.434 364.386 700.925C365.14 700.636 365.905 700.376 366.641 700.047C368.052 699.415 368.574 698.081 368.006 696.441C367.062 697.971 365.462 698.229 363.995 698.752C363.293 699.003 362.586 699.267 361.929 699.616C360.586 700.327 360.136 701.578 360.685 703.149V703.146Z" fill="white"/>
<path d="M360.773 693.4C361.889 691.777 363.669 691.634 365.188 690.993C365.767 690.749 366.37 690.56 366.929 690.278C368.277 689.597 368.781 688.1 368.097 686.726C367.379 688.133 365.977 688.391 364.713 688.879C363.849 689.211 362.966 689.5 362.134 689.897C360.802 690.531 360.327 691.741 360.772 693.4H360.773Z" fill="white"/>
<path d="M368.057 676.227C367.927 676.076 367.743 675.687 367.442 675.536C366.269 674.949 365.062 674.431 363.86 673.903C363.505 673.748 363.1 673.69 362.766 673.504C362.156 673.163 361.822 673.495 361.494 673.93C361.13 674.414 361.33 674.81 361.745 675.077C362.444 675.529 363.157 675.978 363.916 676.314C364.817 676.713 365.77 676.993 366.702 677.325C367.327 677.547 368.028 677.098 368.057 676.229V676.227Z" fill="white"/>
<path d="M367.907 686.101C367.743 685.892 367.558 685.457 367.23 685.276C366.322 684.772 365.361 684.355 364.406 683.943C363.858 683.709 363.237 683.626 362.723 683.338C362.065 682.972 361.71 683.317 361.359 683.75C360.961 684.241 361.282 684.653 361.655 684.888C362.408 685.361 363.202 685.78 364.015 686.141C364.86 686.517 365.749 686.797 366.615 687.122C367.122 687.311 367.888 686.816 367.907 686.101Z" fill="white"/>
<path d="M367.731 695.614C367.385 695.345 366.936 694.843 366.378 694.594C365.013 693.983 363.599 693.48 362.195 692.961C362.033 692.902 361.772 692.963 361.615 693.062C360.937 693.489 360.842 694.122 361.476 694.597C362.114 695.076 362.84 695.457 363.572 695.78C364.473 696.177 365.417 696.481 366.349 696.804C367.053 697.05 367.779 696.567 367.731 695.614Z" fill="white"/>
<path d="M361.103 673.822C362.211 671.579 364.531 671.141 366.424 670.072C367.073 669.705 367.727 669.331 368.315 668.878C368.925 668.407 368.92 667.778 368.473 667C367.579 668.743 365.86 668.948 364.352 669.524C363.653 669.792 362.93 670.014 362.264 670.346C360.988 670.98 360.462 672.542 361.101 673.82L361.103 673.822Z" fill="white"/>
<path d="M3.46392 63.4347C3.19363 62.5986 2.81703 61.7607 2.66026 60.8831C2.19176 58.2467 2.37195 55.6067 2.86388 52.9884C3.09633 51.755 3.40265 50.5362 3.73421 49.0464C3.38103 49.431 3.12695 49.6405 2.95757 49.9023C1.89262 51.5582 1.58089 53.4579 1.59531 55.3449C1.61693 58.1962 1.80975 61.0511 2.07644 63.8897C2.21518 65.3632 2.10345 66.7555 1.72144 68.164C0.216817 73.6986 -0.154383 79.338 0.052841 85.0514C0.389805 94.3583 2.06742 103.51 3.1594 112.728C3.42068 114.938 3.65854 117.152 3.85495 119.368C3.91622 120.06 4.05497 120.294 4.85683 120.312C5.87853 120.334 6.88582 120.749 7.91113 120.93C8.22106 120.984 8.57065 120.823 8.9022 120.76C8.82472 120.415 8.86075 119.883 8.65172 119.756C7.70931 119.187 7.7075 118.487 7.8913 117.486C9.44277 109.073 9.9275 100.59 9.1887 92.0613C8.57964 85.0297 7.22278 78.1372 5.11991 71.3927C4.66582 69.9336 4.29462 68.4402 4.00991 66.9379C3.82251 65.9537 3.92162 64.9533 4.75232 64.1859C5.21001 63.7633 5.50553 63.8193 5.78483 64.3755C6.2263 65.2567 6.65878 66.1523 7.19035 66.9794C7.64444 67.6872 8.37963 68.0592 9.21393 67.7613C10.05 67.4633 10.3023 66.7537 10.2645 65.8743C10.1996 64.3249 9.25538 63.1187 7.88771 63.0555C8.21206 64.1931 9.39052 65.114 8.77966 66.4521C7.48767 66.2769 6.36326 64.7655 6.70022 63.5755C6.82636 63.1331 7.25702 62.7792 7.55074 62.3819C5.4731 60.6881 5.73258 58.0752 6.08756 55.6663C6.6786 51.6648 7.40478 47.6488 8.50937 43.7628C9.88786 38.9161 11.7006 34.1941 13.3404 29.4233C13.7693 28.1755 14.6018 27.2581 15.7802 26.6532C18.2417 25.391 20.6779 24.0927 22.6024 22.0305C23.734 20.817 24.6188 19.5115 24.6512 17.7581C24.6656 16.9617 24.3287 16.6909 23.5862 16.6764C22.1843 16.6511 21.0743 17.3084 19.9932 18.0542C19.9914 18.1481 19.9896 18.2438 19.986 18.3377C20.3481 18.3702 20.7248 18.484 21.0671 18.4154C21.6203 18.3016 22.1393 18.0199 22.6925 17.8989C23.4421 17.7346 23.689 18.0452 23.4691 18.7783C23.0565 20.1561 22.2042 21.254 21.1068 22.1081C19.8094 23.1176 18.4165 24.0096 17.0326 24.9016C16.8253 25.0353 16.4415 24.8926 16.1388 24.8782C16.1604 24.5802 16.0703 24.201 16.2199 24.0006C17.2776 22.5812 18.3858 21.1998 19.4724 19.8004C19.667 19.5512 19.8346 19.2803 20.1445 18.8307C19.0868 18.7982 18.4345 19.2334 17.9516 19.7968C16.7605 21.1836 15.6505 22.6426 14.5117 24.0746C14.3999 24.2155 14.2774 24.3563 14.2035 24.5188C13.5368 25.9526 12.3745 26.2361 11.0033 25.8117C9.95453 25.4867 8.84273 25.1761 7.95077 24.5748C5.2947 22.7853 4.80998 20.2121 6.46597 17.4421C8.1652 14.5998 10.4789 12.3552 13.2629 10.6C17.8741 7.69097 22.9934 6.25178 28.3326 5.53851C36.0179 4.51284 43.723 4.93358 51.4299 5.30195C59.6738 5.69741 67.9339 6.15969 76.158 5.12138C79.4501 4.70605 82.6936 3.87179 85.9444 3.16574C89.2275 2.45247 92.4872 1.63266 95.8785 1.60557C98.4336 1.5839 100.882 2.03534 103.243 3.02128C104.088 3.37521 104.973 3.62982 105.838 3.93138C105.892 3.85193 105.946 3.77067 106 3.69122C105.623 3.35896 105.301 2.88766 104.861 2.72153C102.938 1.992 101.025 1.15774 99.0283 0.700885C93.1215 -0.648015 87.276 0.11582 81.4917 1.58932C75.6408 3.07907 69.7629 4.40991 63.7174 4.80537C58.7044 5.13221 53.7058 4.96067 48.7072 4.44603C43.604 3.92055 38.4955 3.41494 33.378 3.07907C28.3019 2.745 23.2997 3.30479 18.5066 5.13041C14.0702 6.8206 10.0176 9.10127 7.17413 13.0793C5.78844 15.0187 4.90549 17.1676 4.68925 19.5638C4.41896 22.5632 5.90916 24.7969 8.91661 25.9111C9.75992 26.2235 10.6104 26.5106 11.4501 26.8338C11.7403 26.9458 12.0015 27.1299 12.279 27.2834C11.2159 29.4485 10.0879 31.471 9.20673 33.5964C7.76697 37.0652 6.60652 40.628 5.79204 44.3153C4.75953 48.9922 4.74871 53.6746 5.24965 58.3966C5.34155 59.2598 5.24244 60.1446 5.34876 61.0059C5.51273 62.3205 4.88565 63.0103 3.46392 63.4383V63.4347ZM2.45304 69.0018C2.57196 69.0054 2.69089 69.0109 2.80802 69.0145C2.93596 69.3341 3.12516 69.6429 3.18462 69.9751C4.21894 75.6741 5.41544 81.3496 6.21009 87.0829C6.93448 92.3087 7.31288 97.5906 7.66967 102.86C8.00483 107.806 8.19764 112.77 7.18855 117.681C7.12909 117.969 6.90383 118.221 6.75607 118.489C6.58849 118.214 6.31821 117.958 6.26596 117.662C5.33255 112.335 4.44058 107 3.50718 101.673C2.49628 95.8986 1.61693 90.1039 1.35204 84.2406C1.15743 79.9483 0.906968 75.6452 1.7719 71.3854C1.93588 70.5783 2.22058 69.7946 2.45123 69L2.45304 69.0018Z" fill="white"/>
<path d="M1.71964 147.146C2.44943 145.644 3.82612 145.382 5.06766 144.901C6.06954 144.513 7.10386 144.183 8.05348 143.688C9.17249 143.107 9.56171 141.761 9.0896 140.42C7.8823 141.906 6.13441 142.263 4.47302 142.809C3.96487 142.976 3.46933 143.206 2.99542 143.457C1.54486 144.232 1.11419 145.411 1.71964 147.142V147.146Z" fill="white"/>
<path d="M9.31484 120.854C8.38864 122.268 6.93988 122.566 5.61365 123.075C4.86043 123.364 4.09461 123.624 3.35942 123.953C1.94849 124.585 1.42592 125.919 1.99353 127.559C2.93775 126.029 4.53788 125.771 6.00467 125.248C6.70743 124.997 7.41379 124.733 8.0715 124.384C9.41395 123.673 9.86444 122.422 9.31484 120.851V120.854Z" fill="white"/>
<path d="M9.22654 130.6C8.11114 132.223 6.33082 132.366 4.81178 133.007C4.23335 133.251 3.62969 133.44 3.07109 133.722C1.72323 134.403 1.21869 135.9 1.90343 137.274C2.62061 135.867 4.02253 135.609 5.28749 135.121C6.15062 134.789 7.03358 134.5 7.86608 134.103C9.19771 133.469 9.67342 132.259 9.22834 130.6H9.22654Z" fill="white"/>
<path d="M1.94309 147.773C2.07283 147.924 2.25662 148.313 2.55754 148.464C3.73061 149.051 4.93792 149.569 6.13981 150.097C6.4948 150.252 6.90024 150.31 7.23359 150.496C7.84445 150.837 8.17781 150.505 8.50577 150.07C8.86976 149.586 8.66974 149.19 8.25529 148.923C7.55614 148.471 6.84257 148.022 6.08395 147.686C5.18298 147.287 4.22975 147.007 3.29815 146.675C2.67287 146.453 1.97192 146.902 1.94309 147.771V147.773Z" fill="white"/>
<path d="M2.09264 137.899C2.25662 138.108 2.44223 138.543 2.77018 138.724C3.67836 139.228 4.63879 139.645 5.59382 140.057C6.14161 140.291 6.76329 140.374 7.27685 140.662C7.93456 141.028 8.28953 140.683 8.64091 140.25C9.03914 139.759 8.7184 139.347 8.3454 139.112C7.59218 138.639 6.79753 138.22 5.98485 137.859C5.13974 137.483 4.25138 137.203 3.38465 136.878C2.8783 136.689 2.11246 137.184 2.09264 137.899Z" fill="white"/>
<path d="M2.26924 128.386C2.61522 128.655 3.06389 129.157 3.62249 129.406C4.98657 130.017 6.4011 130.52 7.80481 131.039C7.96699 131.098 8.22827 131.037 8.38504 130.938C9.06257 130.511 9.15807 129.878 8.52379 129.403C7.8859 128.924 7.15971 128.543 6.42812 128.22C5.52715 127.823 4.58294 127.519 3.65133 127.196C2.94677 126.95 2.22059 127.433 2.26924 128.386Z" fill="white"/>
<path d="M8.89679 150.178C7.78859 152.421 5.46949 152.859 3.57565 153.928C2.92695 154.295 2.27283 154.669 1.6854 155.122C1.07454 155.593 1.07995 156.222 1.52683 157C2.4206 155.257 4.13966 155.052 5.64789 154.476C6.34704 154.208 7.06962 153.986 7.73634 153.654C9.01212 153.02 9.53828 151.458 8.89859 150.18L8.89679 150.178Z" fill="white"/>
<path d="M3.46392 760.565C3.19363 761.401 2.81703 762.239 2.66026 763.117C2.19176 765.753 2.37195 768.393 2.86388 771.012C3.09633 772.245 3.40265 773.464 3.73421 774.954C3.38103 774.569 3.12695 774.359 2.95757 774.098C1.89262 772.442 1.58089 770.542 1.59531 768.655C1.61693 765.804 1.80975 762.949 2.07644 760.11C2.21518 758.637 2.10345 757.245 1.72144 755.836C0.216817 750.301 -0.154383 744.662 0.052841 738.949C0.389805 729.642 2.06742 720.49 3.1594 711.272C3.42068 709.062 3.65854 706.848 3.85495 704.632C3.91622 703.94 4.05497 703.706 4.85683 703.688C5.87853 703.666 6.88582 703.251 7.91113 703.07C8.22106 703.016 8.57065 703.177 8.9022 703.24C8.82472 703.585 8.86075 704.117 8.65172 704.244C7.70931 704.813 7.7075 705.513 7.8913 706.514C9.44277 714.927 9.9275 723.41 9.1887 731.939C8.57964 738.97 7.22278 745.863 5.11991 752.607C4.66582 754.066 4.29462 755.56 4.00991 757.062C3.82251 758.046 3.92162 759.047 4.75232 759.814C5.21001 760.237 5.50553 760.181 5.78483 759.625C6.2263 758.743 6.65878 757.848 7.19035 757.021C7.64444 756.313 8.37963 755.941 9.21393 756.239C10.05 756.537 10.3023 757.246 10.2645 758.126C10.1996 759.675 9.25538 760.881 7.88771 760.945C8.21206 759.807 9.39052 758.886 8.77966 757.548C7.48767 757.723 6.36326 759.234 6.70022 760.424C6.82636 760.867 7.25702 761.221 7.55074 761.618C5.4731 763.312 5.73258 765.925 6.08756 768.334C6.6786 772.335 7.40478 776.351 8.50937 780.237C9.88786 785.084 11.7006 789.806 13.3404 794.577C13.7693 795.825 14.6018 796.742 15.7802 797.347C18.2417 798.609 20.6779 799.907 22.6024 801.97C23.734 803.183 24.6188 804.489 24.6512 806.242C24.6656 807.038 24.3287 807.309 23.5862 807.324C22.1843 807.349 21.0743 806.692 19.9932 805.946C19.9914 805.852 19.9896 805.756 19.986 805.662C20.3481 805.63 20.7248 805.516 21.0671 805.585C21.6203 805.698 22.1393 805.98 22.6925 806.101C23.4421 806.265 23.689 805.955 23.4691 805.222C23.0565 803.844 22.2042 802.746 21.1068 801.892C19.8094 800.882 18.4165 799.99 17.0326 799.098C16.8253 798.965 16.4415 799.107 16.1388 799.122C16.1604 799.42 16.0703 799.799 16.2199 799.999C17.2776 801.419 18.3858 802.8 19.4724 804.2C19.667 804.449 19.8346 804.72 20.1445 805.169C19.0868 805.202 18.4345 804.767 17.9516 804.203C16.7605 802.816 15.6505 801.357 14.5117 799.925C14.3999 799.785 14.2774 799.644 14.2035 799.481C13.5368 798.047 12.3745 797.764 11.0033 798.188C9.95453 798.513 8.84273 798.824 7.95077 799.425C5.2947 801.215 4.80998 803.788 6.46597 806.558C8.1652 809.4 10.4789 811.645 13.2629 813.4C17.8741 816.309 22.9934 817.748 28.3326 818.461C36.0179 819.487 43.723 819.066 51.4299 818.698C59.6738 818.303 67.9339 817.84 76.158 818.879C79.4501 819.294 82.6936 820.128 85.9444 820.834C89.2275 821.548 92.4872 822.367 95.8785 822.394C98.4336 822.416 100.882 821.965 103.243 820.979C104.088 820.625 104.973 820.37 105.838 820.069C105.892 820.148 105.946 820.229 106 820.309C105.623 820.641 105.301 821.112 104.861 821.278C102.938 822.008 101.025 822.842 99.0283 823.299C93.1215 824.648 87.276 823.884 81.4917 822.411C75.6408 820.921 69.7629 819.59 63.7174 819.195C58.7044 818.868 53.7058 819.039 48.7072 819.554C43.604 820.079 38.4955 820.585 33.378 820.921C28.3019 821.255 23.2997 820.695 18.5066 818.87C14.0702 817.179 10.0176 814.899 7.17413 810.921C5.78844 808.981 4.90549 806.832 4.68925 804.436C4.41896 801.437 5.90916 799.203 8.91661 798.089C9.75992 797.777 10.6104 797.489 11.4501 797.166C11.7403 797.054 12.0015 796.87 12.279 796.717C11.2159 794.551 10.0879 792.529 9.20673 790.404C7.76697 786.935 6.60652 783.372 5.79204 779.685C4.75953 775.008 4.74871 770.325 5.24965 765.603C5.34155 764.74 5.24244 763.855 5.34876 762.994C5.51273 761.679 4.88565 760.99 3.46392 760.562V760.565ZM2.45304 754.998C2.57196 754.995 2.69089 754.989 2.80802 754.986C2.93596 754.666 3.12516 754.357 3.18462 754.025C4.21894 748.326 5.41544 742.65 6.21009 736.917C6.93448 731.691 7.31288 726.409 7.66967 721.14C8.00483 716.194 8.19764 711.23 7.18855 706.319C7.12909 706.031 6.90383 705.779 6.75607 705.511C6.58849 705.786 6.31821 706.042 6.26596 706.338C5.33255 711.665 4.44058 717 3.50718 722.327C2.49628 728.101 1.61693 733.896 1.35204 739.759C1.15743 744.052 0.906968 748.355 1.7719 752.615C1.93588 753.422 2.22058 754.205 2.45123 755L2.45304 754.998Z" fill="white"/>
<path d="M1.71964 676.854C2.44943 678.356 3.82612 678.618 5.06766 679.099C6.06954 679.487 7.10386 679.817 8.05348 680.312C9.17249 680.893 9.56171 682.239 9.0896 683.58C7.8823 682.094 6.13441 681.737 4.47302 681.191C3.96487 681.024 3.46933 680.794 2.99542 680.543C1.54486 679.768 1.11419 678.589 1.71964 676.858V676.854Z" fill="white"/>
<path d="M9.31484 703.146C8.38864 701.732 6.93988 701.434 5.61365 700.925C4.86043 700.636 4.09461 700.376 3.35942 700.047C1.94849 699.415 1.42592 698.081 1.99353 696.441C2.93775 697.971 4.53788 698.229 6.00467 698.752C6.70743 699.003 7.41379 699.267 8.0715 699.616C9.41395 700.327 9.86444 701.578 9.31484 703.149V703.146Z" fill="white"/>
<path d="M9.22654 693.4C8.11114 691.777 6.33082 691.634 4.81178 690.993C4.23335 690.749 3.62969 690.56 3.07109 690.278C1.72323 689.597 1.21869 688.1 1.90343 686.726C2.62061 688.133 4.02253 688.391 5.28749 688.879C6.15062 689.211 7.03358 689.5 7.86608 689.897C9.19771 690.531 9.67342 691.741 9.22834 693.4H9.22654Z" fill="white"/>
<path d="M1.94309 676.227C2.07283 676.076 2.25662 675.687 2.55754 675.536C3.73061 674.949 4.93792 674.431 6.13981 673.903C6.4948 673.748 6.90024 673.69 7.23359 673.504C7.84445 673.163 8.17781 673.495 8.50577 673.93C8.86976 674.414 8.66974 674.81 8.25529 675.077C7.55614 675.529 6.84257 675.978 6.08395 676.314C5.18298 676.713 4.22975 676.993 3.29815 677.325C2.67287 677.547 1.97192 677.098 1.94309 676.229V676.227Z" fill="white"/>
<path d="M2.09264 686.101C2.25662 685.892 2.44223 685.457 2.77018 685.276C3.67836 684.772 4.63879 684.355 5.59382 683.943C6.14161 683.709 6.76329 683.626 7.27685 683.338C7.93456 682.972 8.28953 683.317 8.64091 683.75C9.03914 684.241 8.7184 684.653 8.3454 684.888C7.59218 685.361 6.79753 685.78 5.98485 686.141C5.13974 686.517 4.25138 686.797 3.38465 687.122C2.8783 687.311 2.11246 686.816 2.09264 686.101Z" fill="white"/>
<path d="M2.26924 695.614C2.61522 695.345 3.06389 694.843 3.62249 694.594C4.98657 693.983 6.4011 693.48 7.80481 692.961C7.96699 692.902 8.22827 692.963 8.38504 693.062C9.06257 693.489 9.15807 694.122 8.52379 694.597C7.8859 695.076 7.15971 695.457 6.42812 695.78C5.52715 696.177 4.58294 696.481 3.65133 696.804C2.94677 697.05 2.22059 696.567 2.26924 695.614Z" fill="white"/>
<path d="M8.89679 673.822C7.78859 671.579 5.46949 671.141 3.57565 670.072C2.92695 669.705 2.27283 669.331 1.6854 668.878C1.07454 668.407 1.07995 667.778 1.52683 667C2.4206 668.743 4.13966 668.948 5.64789 669.524C6.34704 669.792 7.06962 670.014 7.73634 670.346C9.01212 670.98 9.53828 672.542 8.89859 673.82L8.89679 673.822Z" fill="white"/>
</g>
</svg>
