<svg width="366" height="451" viewBox="0 0 366 451" fill="none" xmlns="http://www.w3.org/2000/svg">
<g opacity="0.5">
<path d="M362.353 48.4851C362.56 47.8461 362.847 47.2057 362.967 46.5349C363.325 44.5198 363.187 42.502 362.812 40.5007C362.634 39.558 362.4 38.6264 362.146 37.4877C362.416 37.7817 362.611 37.9418 362.74 38.1419C363.554 39.4076 363.792 40.8595 363.781 42.3018C363.764 44.4812 363.617 46.6632 363.413 48.8329C363.307 49.9592 363.393 51.0233 363.685 52.0998C364.834 56.3301 365.118 60.6405 364.96 65.0074C364.702 72.121 363.42 79.1158 362.586 86.1617C362.386 87.8511 362.204 89.5432 362.054 91.2367C362.007 91.7653 361.901 91.9447 361.289 91.9585C360.508 91.9751 359.738 92.2925 358.955 92.4306C358.718 92.472 358.451 92.3491 358.197 92.3008C358.257 92.0372 358.229 91.63 358.389 91.5334C359.109 91.0987 359.11 90.5632 358.97 89.7985C357.784 83.3682 357.414 76.884 357.978 70.3654C358.444 64.9909 359.481 59.7227 361.088 54.5676C361.435 53.4524 361.718 52.311 361.936 51.1627C362.079 50.4105 362.003 49.6459 361.369 49.0593C361.019 48.7363 360.793 48.7791 360.58 49.2042C360.242 49.8777 359.912 50.5623 359.505 51.1944C359.158 51.7355 358.597 52.0198 357.959 51.7921C357.32 51.5643 357.127 51.0219 357.156 50.3498C357.206 49.1655 357.927 48.2436 358.973 48.1953C358.725 49.0648 357.824 49.7687 358.291 50.7914C359.278 50.6575 360.138 49.5023 359.88 48.5928C359.784 48.2546 359.455 47.9841 359.23 47.6805C360.818 46.3858 360.619 44.3887 360.348 42.5475C359.897 39.489 359.342 36.4194 358.498 33.4492C357.444 29.7448 356.059 26.1356 354.806 22.4891C354.478 21.5354 353.842 20.8343 352.942 20.3719C351.061 19.4071 349.199 18.4148 347.728 16.8386C346.864 15.9111 346.188 14.9132 346.163 13.573C346.152 12.9644 346.409 12.7573 346.977 12.7463C348.048 12.727 348.896 13.2294 349.722 13.7994C349.724 13.8712 349.725 13.9443 349.728 14.0161C349.451 14.0409 349.163 14.1279 348.902 14.0754C348.479 13.9885 348.082 13.7732 347.66 13.6807C347.087 13.5551 346.898 13.7925 347.066 14.3529C347.381 15.4059 348.033 16.2451 348.871 16.8979C349.863 17.6695 350.927 18.3513 351.985 19.0331C352.143 19.1352 352.436 19.0262 352.668 19.0152C352.651 18.7874 352.72 18.4976 352.606 18.3444C351.797 17.2595 350.95 16.2037 350.12 15.134C349.971 14.9436 349.843 14.7365 349.607 14.3929C350.415 14.368 350.913 14.7007 351.282 15.1313C352.192 16.1913 353.041 17.3065 353.911 18.401C353.996 18.5086 354.09 18.6163 354.146 18.7405C354.656 19.8364 355.544 20.0531 356.592 19.7287C357.393 19.4803 358.243 19.2429 358.924 18.7833C360.954 17.4155 361.324 15.4487 360.059 13.3315C358.761 11.1591 356.993 9.44349 354.865 8.10194C351.342 5.87845 347.43 4.77843 343.35 4.23325C337.477 3.4493 331.589 3.77089 325.7 4.05245C319.4 4.35471 313.088 4.70804 306.804 3.91443C304.288 3.59698 301.81 2.95933 299.326 2.41968C296.817 1.8745 294.326 1.24789 291.734 1.22719C289.782 1.21062 287.911 1.55567 286.107 2.30926C285.461 2.57978 284.785 2.77439 284.124 3.00488C284.083 2.94415 284.041 2.88204 284 2.82131C284.288 2.56736 284.534 2.20713 284.87 2.08015C286.339 1.52255 287.802 0.884898 289.327 0.535709C293.841 -0.495298 298.308 0.0885249 302.728 1.21477C307.199 2.35343 311.691 3.37063 316.31 3.67289C320.141 3.92271 323.961 3.79159 327.78 3.39824C331.68 2.9966 335.584 2.61014 339.494 2.35343C343.373 2.09809 347.195 2.52595 350.858 3.92133C354.248 5.21319 357.345 6.95638 359.518 9.99695C360.577 11.4793 361.251 13.1217 361.417 14.9532C361.623 17.2457 360.485 18.953 358.186 19.8046C357.542 20.0434 356.892 20.2629 356.25 20.5099C356.029 20.5955 355.829 20.7363 355.617 20.8536C356.429 22.5084 357.291 24.0543 357.965 25.6787C359.065 28.3301 359.952 31.0532 360.574 33.8716C361.363 37.4463 361.371 41.0252 360.988 44.6344C360.918 45.2941 360.994 45.9704 360.913 46.6287C360.787 47.6335 361.267 48.1608 362.353 48.4879V48.4851ZM363.126 52.7403C363.035 52.743 362.944 52.7472 362.854 52.7499C362.756 52.9942 362.612 53.2302 362.566 53.4842C361.776 57.8401 360.862 62.178 360.255 66.5602C359.701 70.5544 359.412 74.5915 359.139 78.6189C358.883 82.3993 358.736 86.1935 359.507 89.9476C359.552 90.167 359.724 90.3603 359.837 90.5645C359.965 90.3547 360.172 90.1588 360.212 89.9324C360.925 85.8608 361.607 81.7837 362.32 77.7121C363.092 73.2983 363.764 68.8692 363.967 64.3877C364.116 61.107 364.307 57.818 363.646 54.5621C363.521 53.9452 363.303 53.3462 363.127 52.7389L363.126 52.7403Z" fill="white"/>
<path d="M363.686 112.468C363.128 111.32 362.076 111.12 361.128 110.753C360.362 110.456 359.572 110.203 358.846 109.825C357.991 109.381 357.693 108.353 358.054 107.327C358.977 108.463 360.312 108.736 361.582 109.153C361.97 109.281 362.349 109.457 362.711 109.649C363.819 110.241 364.149 111.142 363.686 112.466V112.468Z" fill="white"/>
<path d="M357.882 92.3726C358.59 93.4533 359.697 93.681 360.71 94.0703C361.286 94.2911 361.871 94.4898 362.433 94.741C363.511 95.2241 363.91 96.2441 363.477 97.4973C362.755 96.3283 361.532 96.1309 360.412 95.7306C359.875 95.5388 359.335 95.3373 358.832 95.0709C357.806 94.5271 357.462 93.5706 357.882 92.3699V92.3726Z" fill="white"/>
<path d="M357.95 99.8215C358.802 101.062 360.162 101.171 361.323 101.661C361.765 101.848 362.226 101.993 362.653 102.208C363.683 102.728 364.069 103.872 363.545 104.923C362.997 103.848 361.926 103.65 360.96 103.278C360.3 103.024 359.625 102.803 358.989 102.499C357.972 102.015 357.608 101.09 357.948 99.8215H357.95Z" fill="white"/>
<path d="M363.515 112.947C363.416 113.063 363.276 113.36 363.046 113.476C362.149 113.924 361.227 114.32 360.308 114.724C360.037 114.842 359.727 114.886 359.472 115.029C359.006 115.289 358.751 115.035 358.5 114.703C358.222 114.333 358.375 114.031 358.692 113.826C359.226 113.481 359.771 113.138 360.351 112.881C361.039 112.576 361.768 112.362 362.48 112.108C362.958 111.938 363.493 112.282 363.515 112.946V112.947Z" fill="white"/>
<path d="M363.401 105.4C363.276 105.56 363.134 105.893 362.883 106.031C362.189 106.416 361.455 106.735 360.725 107.05C360.307 107.229 359.832 107.293 359.439 107.512C358.937 107.792 358.666 107.529 358.397 107.197C358.093 106.822 358.338 106.507 358.623 106.328C359.198 105.966 359.806 105.646 360.427 105.37C361.072 105.083 361.751 104.869 362.414 104.62C362.801 104.476 363.386 104.854 363.401 105.4Z" fill="white"/>
<path d="M363.266 98.1294C363.002 98.3351 362.659 98.7188 362.232 98.9092C361.19 99.3757 360.109 99.7608 359.036 100.157C358.912 100.202 358.712 100.156 358.593 100.08C358.075 99.7539 358.002 99.2694 358.487 98.9065C358.974 98.5407 359.529 98.2495 360.088 98.0024C360.776 97.6988 361.498 97.4669 362.21 97.2199C362.748 97.0322 363.303 97.4007 363.266 98.1294Z" fill="white"/>
<path d="M358.202 114.786C359.048 116.5 360.82 116.835 362.268 117.652C362.763 117.932 363.263 118.218 363.712 118.565C364.179 118.925 364.175 119.405 363.833 120C363.15 118.668 361.837 118.511 360.684 118.07C360.15 117.866 359.598 117.696 359.088 117.442C358.113 116.958 357.711 115.764 358.2 114.787L358.202 114.786Z" fill="white"/>
<path d="M362.372 402.515C362.578 403.154 362.866 403.794 362.986 404.465C363.344 406.48 363.206 408.498 362.83 410.499C362.652 411.442 362.418 412.374 362.165 413.512C362.435 413.218 362.629 413.058 362.759 412.858C363.573 411.592 363.811 410.14 363.8 408.698C363.783 406.519 363.636 404.337 363.432 402.167C363.326 401.041 363.411 399.977 363.703 398.9C364.853 394.67 365.137 390.36 364.979 385.993C364.721 378.879 363.439 371.884 362.604 364.838C362.405 363.149 362.223 361.457 362.073 359.763C362.026 359.235 361.92 359.055 361.307 359.041C360.526 359.025 359.756 358.707 358.972 358.569C358.735 358.528 358.468 358.651 358.215 358.699C358.274 358.963 358.247 359.37 358.406 359.467C359.127 359.901 359.128 360.437 358.988 361.201C357.802 367.632 357.431 374.116 357.996 380.635C358.461 386.009 359.499 391.277 361.106 396.432C361.453 397.548 361.737 398.689 361.954 399.837C362.097 400.59 362.022 401.354 361.387 401.941C361.037 402.264 360.811 402.221 360.598 401.796C360.26 401.122 359.93 400.438 359.523 399.806C359.176 399.265 358.614 398.98 357.977 399.208C357.338 399.436 357.145 399.978 357.174 400.65C357.223 401.834 357.945 402.756 358.99 402.805C358.742 401.935 357.842 401.231 358.309 400.209C359.296 400.342 360.155 401.498 359.898 402.407C359.802 402.745 359.472 403.016 359.248 403.32C360.836 404.614 360.638 406.611 360.366 408.452C359.914 411.511 359.359 414.581 358.515 417.551C357.462 421.255 356.076 424.864 354.823 428.511C354.495 429.465 353.859 430.166 352.958 430.628C351.076 431.593 349.214 432.585 347.743 434.161C346.878 435.089 346.202 436.087 346.177 437.427C346.166 438.036 346.424 438.243 346.991 438.254C348.063 438.273 348.911 437.771 349.738 437.201C349.739 437.129 349.74 437.056 349.743 436.984C349.466 436.959 349.179 436.872 348.917 436.925C348.494 437.012 348.097 437.227 347.675 437.319C347.102 437.445 346.913 437.208 347.081 436.647C347.396 435.594 348.048 434.755 348.887 434.102C349.878 433.331 350.943 432.649 352.001 431.967C352.159 431.865 352.452 431.974 352.684 431.985C352.667 432.213 352.736 432.502 352.622 432.656C351.813 433.74 350.966 434.796 350.136 435.866C349.987 436.056 349.859 436.263 349.622 436.607C350.43 436.632 350.929 436.299 351.298 435.869C352.209 434.809 353.057 433.694 353.927 432.599C354.013 432.491 354.106 432.384 354.163 432.26C354.673 431.164 355.561 430.947 356.609 431.271C357.411 431.52 358.26 431.757 358.942 432.217C360.972 433.584 361.343 435.551 360.077 437.668C358.778 439.841 357.01 441.557 354.882 442.898C351.357 445.122 347.445 446.222 343.364 446.767C337.49 447.551 331.6 447.229 325.71 446.948C319.409 446.645 313.095 446.292 306.809 447.086C304.293 447.403 301.814 448.041 299.329 448.58C296.82 449.126 294.328 449.752 291.736 449.773C289.783 449.789 287.911 449.444 286.107 448.691C285.461 448.42 284.785 448.226 284.124 447.995C284.083 448.056 284.041 448.118 284 448.179C284.288 448.433 284.534 448.793 284.87 448.92C286.34 449.477 287.803 450.115 289.329 450.464C293.843 451.495 298.311 450.911 302.732 449.785C307.204 448.647 311.697 447.629 316.318 447.327C320.15 447.077 323.97 447.208 327.791 447.602C331.691 448.003 335.596 448.39 339.507 448.647C343.387 448.902 347.21 448.474 350.874 447.079C354.265 445.787 357.362 444.044 359.536 441.003C360.595 439.521 361.27 437.878 361.435 436.047C361.642 433.754 360.503 432.047 358.204 431.195C357.559 430.957 356.909 430.737 356.267 430.49C356.046 430.405 355.846 430.264 355.634 430.146C356.446 428.492 357.309 426.946 357.982 425.321C359.083 422.67 359.97 419.947 360.592 417.128C361.381 413.554 361.39 409.975 361.007 406.366C360.936 405.706 361.012 405.03 360.931 404.371C360.806 403.366 361.285 402.839 362.372 402.512V402.515ZM363.144 398.26C363.053 398.257 362.962 398.253 362.873 398.25C362.775 398.006 362.63 397.77 362.585 397.516C361.794 393.16 360.88 388.822 360.273 384.44C359.719 380.446 359.43 376.408 359.157 372.381C358.901 368.601 358.753 364.807 359.525 361.052C359.57 360.833 359.742 360.64 359.855 360.435C359.983 360.645 360.19 360.841 360.23 361.068C360.943 365.139 361.625 369.216 362.338 373.288C363.111 377.702 363.783 382.131 363.986 386.612C364.134 389.893 364.326 393.182 363.665 396.438C363.539 397.055 363.322 397.654 363.146 398.261L363.144 398.26Z" fill="white"/>
<path d="M363.705 338.532C363.147 339.68 362.095 339.88 361.146 340.247C360.38 340.544 359.589 340.797 358.864 341.175C358.008 341.619 357.711 342.647 358.072 343.673C358.994 342.537 360.33 342.264 361.6 341.847C361.989 341.719 362.367 341.543 362.73 341.351C363.838 340.759 364.168 339.858 363.705 338.534V338.532Z" fill="white"/>
<path d="M357.899 358.627C358.607 357.547 359.715 357.319 360.728 356.93C361.304 356.709 361.889 356.51 362.451 356.259C363.53 355.776 363.929 354.756 363.495 353.503C362.774 354.672 361.551 354.869 360.43 355.269C359.892 355.461 359.353 355.663 358.85 355.929C357.824 356.473 357.479 357.429 357.899 358.63V358.627Z" fill="white"/>
<path d="M357.967 351.178C358.82 349.938 360.18 349.829 361.341 349.339C361.783 349.152 362.245 349.007 362.672 348.792C363.702 348.272 364.088 347.128 363.564 346.077C363.016 347.152 361.945 347.35 360.978 347.722C360.318 347.976 359.643 348.197 359.007 348.501C357.989 348.985 357.625 349.91 357.966 351.178H357.967Z" fill="white"/>
<path d="M363.534 338.053C363.435 337.937 363.294 337.64 363.064 337.524C362.168 337.076 361.245 336.68 360.326 336.276C360.055 336.158 359.745 336.114 359.49 335.971C359.023 335.711 358.769 335.965 358.518 336.297C358.24 336.667 358.393 336.969 358.709 337.174C359.244 337.519 359.789 337.862 360.369 338.119C361.058 338.424 361.786 338.638 362.498 338.892C362.976 339.062 363.512 338.718 363.534 338.054V338.053Z" fill="white"/>
<path d="M363.42 345.6C363.294 345.44 363.152 345.107 362.902 344.969C362.208 344.584 361.474 344.265 360.744 343.95C360.325 343.771 359.85 343.707 359.457 343.488C358.954 343.208 358.683 343.471 358.415 343.803C358.11 344.178 358.355 344.493 358.64 344.672C359.216 345.034 359.824 345.354 360.445 345.63C361.091 345.917 361.77 346.131 362.432 346.38C362.819 346.524 363.404 346.146 363.42 345.6Z" fill="white"/>
<path d="M363.285 352.871C363.02 352.665 362.677 352.281 362.25 352.091C361.208 351.624 360.127 351.239 359.054 350.843C358.93 350.798 358.73 350.844 358.61 350.92C358.092 351.246 358.019 351.731 358.504 352.094C358.992 352.459 359.547 352.751 360.106 352.998C360.795 353.301 361.516 353.533 362.228 353.78C362.767 353.968 363.322 353.599 363.285 352.871Z" fill="white"/>
<path d="M358.219 336.214C359.066 334.5 360.839 334.165 362.286 333.348C362.782 333.068 363.282 332.782 363.731 332.435C364.198 332.075 364.194 331.595 363.852 331C363.169 332.332 361.855 332.489 360.702 332.93C360.168 333.134 359.616 333.304 359.106 333.558C358.131 334.042 357.729 335.236 358.218 336.213L358.219 336.214Z" fill="white"/>
<path d="M2.64751 48.4851C2.44092 47.8461 2.15308 47.2057 2.03326 46.5349C1.67516 44.5198 1.81289 42.502 2.18889 40.5007C2.36656 39.558 2.60069 38.6264 2.85411 37.4877C2.58416 37.7817 2.38996 37.9418 2.2605 38.1419C1.44652 39.4076 1.20826 40.8595 1.21927 42.3018C1.2358 44.4812 1.38318 46.6632 1.58702 48.8329C1.69307 49.9592 1.60767 51.0233 1.31568 52.0998C0.165653 56.3301 -0.118067 60.6405 0.040321 65.0074C0.297873 72.121 1.58013 79.1158 2.41476 86.1617C2.61447 87.8511 2.79627 89.5432 2.94639 91.2367C2.99322 91.7653 3.09927 91.9447 3.71216 91.9585C4.49308 91.9751 5.26298 92.2925 6.04665 92.4306C6.28355 92.472 6.55074 92.3491 6.80416 92.3008C6.74494 92.0372 6.77248 91.63 6.61272 91.5334C5.8924 91.0987 5.89102 90.5632 6.0315 89.7985C7.21734 83.3682 7.58783 76.884 7.02314 70.3654C6.55762 64.9909 5.52053 59.7227 3.91324 54.5676C3.56616 53.4524 3.28244 52.311 3.06483 51.1627C2.9216 50.4105 2.99735 49.6459 3.63228 49.0593C3.98211 48.7363 4.20798 48.7791 4.42146 49.2042C4.75889 49.8777 5.08944 50.5623 5.49574 51.1944C5.84282 51.7355 6.40475 52.0198 7.04243 51.7921C7.68149 51.5643 7.87431 51.0219 7.84539 50.3498C7.79581 49.1655 7.07411 48.2436 6.02875 48.1953C6.27666 49.0648 7.1774 49.7687 6.7105 50.7914C5.72299 50.6575 4.86357 49.5023 5.12112 48.5928C5.21753 48.2546 5.5467 47.9841 5.7712 47.6805C4.18319 46.3858 4.38152 44.3887 4.65284 42.5475C5.10459 39.489 5.65963 36.4194 6.50391 33.4492C7.55753 29.7448 8.94308 26.1356 10.1964 22.4891C10.5242 21.5354 11.1605 20.8343 12.0613 20.3719C13.9426 19.4071 15.8047 18.4148 17.2756 16.8386C18.1406 15.9111 18.8168 14.9132 18.8416 13.573C18.8526 12.9644 18.5951 12.7573 18.0276 12.7463C16.9561 12.727 16.1077 13.2294 15.2813 13.7994C15.28 13.8712 15.2786 13.9443 15.2758 14.0161C15.5527 14.0409 15.8405 14.1279 16.1022 14.0754C16.525 13.9885 16.9217 13.7732 17.3445 13.6807C17.9175 13.5551 18.1061 13.7925 17.9381 14.3529C17.6227 15.4059 16.9713 16.2451 16.1325 16.8979C15.1409 17.6695 14.0762 18.3513 13.0185 19.0331C12.8601 19.1352 12.5667 19.0262 12.3353 19.0152C12.3519 18.7874 12.283 18.4976 12.3973 18.3444C13.2058 17.2595 14.0528 16.2037 14.8833 15.134C15.032 14.9436 15.1601 14.7365 15.397 14.3929C14.5886 14.368 14.09 14.7007 13.7209 15.1313C12.8105 16.1913 11.9621 17.3065 11.0916 18.401C11.0063 18.5086 10.9126 18.6163 10.8561 18.7405C10.3465 19.8364 9.45818 20.0531 8.41007 19.7287C7.60849 19.4803 6.75871 19.2429 6.07695 18.7833C4.04684 17.4155 3.67635 15.4487 4.94207 13.3315C6.24085 11.1591 8.00928 9.44349 10.1372 8.10194C13.6616 5.87845 17.5745 4.77843 21.6554 4.23325C27.5295 3.4493 33.4188 3.77089 39.3094 4.05245C45.6105 4.35471 51.9239 4.70804 58.2099 3.91443C60.7262 3.59698 63.2053 2.95933 65.6899 2.41968C68.1993 1.8745 70.6908 1.24789 73.2828 1.22719C75.2358 1.21062 77.1076 1.55567 78.9118 2.30926C79.5577 2.57978 80.234 2.77439 80.8951 3.00488C80.9364 2.94415 80.9777 2.88204 81.019 2.82131C80.7312 2.56736 80.4847 2.20713 80.1486 2.08015C78.679 1.52255 77.2164 0.884898 75.6903 0.535709C71.1756 -0.495298 66.7077 0.0885249 62.2866 1.21477C57.8146 2.35343 53.3219 3.37063 48.7011 3.67289C44.8695 3.92271 41.0489 3.79159 37.2283 3.39824C33.3279 2.9966 29.4233 2.61014 25.5118 2.35343C21.632 2.09809 17.8087 2.52595 14.1451 3.92133C10.7542 5.21319 7.6567 6.95638 5.48335 9.99695C4.42422 11.4793 3.74935 13.1217 3.58407 14.9532C3.37748 17.2457 4.51649 18.953 6.81517 19.8046C7.45974 20.0434 8.10982 20.2629 8.75163 20.5099C8.97337 20.5955 9.17309 20.7363 9.38519 20.8536C8.57259 22.5084 7.71041 24.0543 7.03692 25.6787C5.93647 28.3301 5.0495 31.0532 4.42697 33.8716C3.63779 37.4463 3.62952 41.0252 4.0124 44.6344C4.08265 45.2941 4.00689 45.9704 4.08815 46.6287C4.21349 47.6335 3.73419 48.1608 2.64751 48.4879V48.4851ZM1.87486 52.7403C1.96577 52.743 2.05667 52.7472 2.14619 52.7499C2.24398 52.9942 2.38859 53.2302 2.43404 53.4842C3.2246 57.8401 4.13912 62.178 4.7465 66.5602C5.30017 70.5544 5.5894 74.5915 5.8621 78.6189C6.11827 82.3993 6.26565 86.1935 5.49437 89.9476C5.44892 90.167 5.27675 90.3603 5.16381 90.5645C5.03572 90.3547 4.82914 90.1588 4.7892 89.9324C4.07577 85.8608 3.39401 81.7837 2.68058 77.7121C1.90792 73.2983 1.2358 68.8692 1.03334 64.3877C0.884595 61.107 0.693157 57.818 1.35425 54.5621C1.47959 53.9452 1.69719 53.3462 1.87348 52.7389L1.87486 52.7403Z" fill="white"/>
<path d="M1.31431 112.468C1.87211 111.32 2.92436 111.12 3.8733 110.753C4.63907 110.456 5.42963 110.203 6.15546 109.825C7.01075 109.381 7.30825 108.353 6.9474 107.327C6.02462 108.463 4.68866 108.736 3.4188 109.153C3.03041 109.281 2.65165 109.457 2.28943 109.649C1.18071 110.241 0.851541 111.142 1.31431 112.466V112.468Z" fill="white"/>
<path d="M7.11956 92.3726C6.41164 93.4533 5.3043 93.681 4.29062 94.0703C3.71491 94.2911 3.12957 94.4898 2.56764 94.741C1.48923 95.2241 1.08981 96.2441 1.52365 97.4973C2.24535 96.3283 3.46838 96.1309 4.58949 95.7306C5.12663 95.5388 5.66652 95.3373 6.16923 95.0709C7.19531 94.5271 7.53963 93.5706 7.11956 92.3699V92.3726Z" fill="white"/>
<path d="M7.05207 99.8215C6.19953 101.062 4.83878 101.171 3.67773 101.661C3.23562 101.848 2.77422 101.993 2.34726 102.208C1.31705 102.728 0.931418 103.872 1.45479 104.923C2.00294 103.848 3.07448 103.65 4.04133 103.278C4.70105 103.024 5.37592 102.803 6.01222 102.499C7.03003 102.015 7.39363 101.09 7.05344 99.8215H7.05207Z" fill="white"/>
<path d="M1.4851 112.947C1.58426 113.063 1.72474 113.36 1.95474 113.476C2.85135 113.924 3.77414 114.32 4.69278 114.724C4.96411 114.842 5.274 114.886 5.5288 115.029C5.99569 115.289 6.25049 115.035 6.50116 114.703C6.77937 114.333 6.62649 114.031 6.30971 113.826C5.77533 113.481 5.22992 113.138 4.65009 112.881C3.96145 112.576 3.23286 112.362 2.52081 112.108C2.04289 111.938 1.50713 112.282 1.4851 112.946V112.947Z" fill="white"/>
<path d="M1.5994 105.4C1.72474 105.56 1.8666 105.893 2.11727 106.031C2.81142 106.416 3.5455 106.735 4.27546 107.05C4.69416 107.229 5.16933 107.293 5.56185 107.512C6.06456 107.792 6.33588 107.529 6.60445 107.197C6.90883 106.822 6.66368 106.507 6.37858 106.328C5.80288 105.966 5.1955 105.646 4.57434 105.37C3.9284 105.083 3.2494 104.869 2.58692 104.62C2.19991 104.476 1.61455 104.854 1.5994 105.4Z" fill="white"/>
<path d="M1.73439 98.1294C1.99883 98.3351 2.34176 98.7188 2.76872 98.9092C3.81132 99.3757 4.89249 99.7608 5.96539 100.157C6.08935 100.202 6.28906 100.156 6.40888 100.08C6.92674 99.7539 6.99973 99.2694 6.51493 98.9065C6.02737 98.5407 5.47232 98.2495 4.91314 98.0024C4.2245 97.6988 3.50282 97.4669 2.79076 97.2199C2.25224 97.0322 1.6972 97.4007 1.73439 98.1294Z" fill="white"/>
<path d="M6.80002 114.786C5.953 116.5 4.18044 116.835 2.73291 117.652C2.23709 117.932 1.73713 118.218 1.28814 118.565C0.821238 118.925 0.825372 119.405 1.16694 120C1.85007 118.668 3.164 118.511 4.31679 118.07C4.85118 117.866 5.40346 117.696 5.91306 117.442C6.88817 116.958 7.29034 115.764 6.80141 114.787L6.80002 114.786Z" fill="white"/>
<path d="M2.64776 402.515C2.44116 403.154 2.15332 403.794 2.0335 404.465C1.67541 406.48 1.81313 408.498 2.18913 410.499C2.3668 411.442 2.60093 412.374 2.85435 413.512C2.5844 413.218 2.39021 413.058 2.26074 412.858C1.44677 411.592 1.2085 410.14 1.21952 408.698C1.23605 406.519 1.38342 404.337 1.58726 402.167C1.69331 401.041 1.60791 399.977 1.31593 398.9C0.165897 394.67 -0.117822 390.36 0.0405651 385.993C0.298117 378.879 1.58037 371.884 2.415 364.838C2.61471 363.149 2.79651 361.457 2.94664 359.763C2.99346 359.235 3.09951 359.055 3.7124 359.041C4.49332 359.025 5.26322 358.707 6.0469 358.569C6.28379 358.528 6.55099 358.651 6.80441 358.699C6.74519 358.963 6.77272 359.37 6.61296 359.467C5.89264 359.901 5.89126 360.437 6.03174 361.201C7.21758 367.632 7.58807 374.116 7.02339 380.635C6.55787 386.009 5.52077 391.277 3.91348 396.432C3.56641 397.548 3.28269 398.689 3.06508 399.837C2.92184 400.59 2.99759 401.354 3.63252 401.941C3.98235 402.264 4.20822 402.221 4.4217 401.796C4.75914 401.122 5.08969 400.438 5.49599 399.806C5.84306 399.265 6.40499 398.98 7.04267 399.208C7.68173 399.436 7.87455 399.978 7.84563 400.65C7.79605 401.834 7.07435 402.756 6.029 402.805C6.27691 401.935 7.17764 401.231 6.71075 400.209C5.72323 400.342 4.86381 401.498 5.12136 402.407C5.21777 402.745 5.54695 403.016 5.77144 403.32C4.18344 404.614 4.38176 406.611 4.65309 408.452C5.10484 411.511 5.65988 414.581 6.50415 417.551C7.55777 421.255 8.94332 424.864 10.1967 428.511C10.5244 429.465 11.1608 430.166 12.0615 430.628C13.9429 431.593 15.8049 432.585 17.2759 434.161C18.1408 435.089 18.8171 436.087 18.8419 437.427C18.8529 438.036 18.5953 438.243 18.0279 438.254C16.9564 438.273 16.1079 437.771 15.2816 437.201C15.2802 437.129 15.2788 437.056 15.2761 436.984C15.5529 436.959 15.8408 436.872 16.1024 436.925C16.5253 437.012 16.9219 437.227 17.3447 437.319C17.9177 437.445 18.1064 437.208 17.9384 436.647C17.623 435.594 16.9715 434.755 16.1327 434.102C15.1411 433.331 14.0765 432.649 13.0187 431.967C12.8603 431.865 12.567 431.974 12.3356 431.985C12.3521 432.213 12.2832 432.502 12.3976 432.656C13.206 433.74 14.053 434.796 14.8835 435.866C15.0323 436.056 15.1604 436.263 15.3973 436.607C14.5888 436.632 14.0902 436.299 13.7211 435.869C12.8107 434.809 11.9623 433.694 11.0919 432.599C11.0065 432.491 10.9128 432.384 10.8564 432.26C10.3468 431.164 9.45843 430.947 8.41032 431.271C7.60874 431.52 6.75895 431.757 6.0772 432.217C4.04708 433.584 3.6766 435.551 4.94232 437.668C6.2411 439.841 8.00952 441.557 10.1374 442.898C13.6619 445.122 17.5748 446.222 21.6556 446.767C27.5298 447.551 33.419 447.229 39.3097 446.948C45.6107 446.645 51.9242 446.292 58.2101 447.086C60.7264 447.403 63.2055 448.041 65.6901 448.58C68.1995 449.126 70.691 449.752 73.2831 449.773C75.2361 449.789 77.1078 449.444 78.912 448.691C79.558 448.42 80.2342 448.226 80.8953 447.995C80.9367 448.056 80.978 448.118 81.0193 448.179C80.7314 448.433 80.4849 448.793 80.1488 448.92C78.6793 449.477 77.2166 450.115 75.6906 450.464C71.1758 451.495 66.7079 450.911 62.2869 449.785C57.8148 448.647 53.3221 447.629 48.7013 447.327C44.8697 447.077 41.0492 447.208 37.2286 447.602C33.3281 448.003 29.4235 448.39 25.512 448.647C21.6322 448.902 17.8089 448.474 14.1453 447.079C10.7545 445.787 7.65694 444.044 5.48359 441.003C4.42446 439.521 3.74959 437.878 3.58432 436.047C3.37773 433.754 4.51673 432.047 6.81542 431.195C7.45999 430.957 8.11006 430.737 8.75188 430.49C8.97362 430.405 9.17333 430.264 9.38544 430.146C8.57284 428.492 7.71066 426.946 7.03717 425.321C5.93672 422.67 5.04975 419.947 4.42722 417.128C3.63803 413.554 3.62976 409.975 4.01265 406.366C4.08289 405.706 4.00714 405.03 4.0884 404.371C4.21373 403.366 3.73443 402.839 2.64776 402.512V402.515ZM1.87511 398.26C1.96601 398.257 2.05691 398.253 2.14644 398.25C2.24422 398.006 2.38883 397.77 2.43428 397.516C3.22484 393.16 4.13936 388.822 4.74675 384.44C5.30041 380.446 5.58964 376.408 5.86234 372.381C6.11852 368.601 6.26589 364.807 5.49461 361.052C5.44916 360.833 5.27699 360.64 5.16406 360.435C5.03597 360.645 4.82938 360.841 4.78944 361.068C4.07601 365.139 3.39425 369.216 2.68082 373.288C1.90816 377.702 1.23605 382.131 1.03359 386.612C0.88484 389.893 0.693401 393.182 1.3545 396.438C1.47983 397.055 1.69743 397.654 1.87373 398.261L1.87511 398.26Z" fill="white"/>
<path d="M1.31455 338.532C1.87235 339.68 2.9246 339.88 3.87355 340.247C4.63932 340.544 5.42988 340.797 6.15571 341.175C7.011 341.619 7.30849 342.647 6.94764 343.673C6.02486 342.537 4.6889 342.264 3.41905 341.847C3.03065 341.719 2.6519 341.543 2.28967 341.351C1.18096 340.759 0.851785 339.858 1.31455 338.534V338.532Z" fill="white"/>
<path d="M7.1198 358.627C6.41188 357.547 5.30454 357.319 4.29086 356.93C3.71516 356.709 3.12982 356.51 2.56788 356.259C1.48947 355.776 1.09005 354.756 1.5239 353.503C2.24559 354.672 3.46862 354.869 4.58973 355.269C5.12687 355.461 5.66677 355.663 6.16947 355.929C7.19555 356.473 7.53987 357.429 7.1198 358.63V358.627Z" fill="white"/>
<path d="M7.05231 351.178C6.19977 349.938 4.83902 349.829 3.67797 349.339C3.23586 349.152 2.77446 349.007 2.34751 348.792C1.3173 348.272 0.931662 347.128 1.45503 346.077C2.00319 347.152 3.07472 347.35 4.04157 347.722C4.70129 347.976 5.37616 348.197 6.01246 348.501C7.03028 348.985 7.39388 349.91 7.05369 351.178H7.05231Z" fill="white"/>
<path d="M1.48534 338.053C1.58451 337.937 1.72498 337.64 1.95499 337.524C2.8516 337.076 3.77438 336.68 4.69303 336.276C4.96435 336.158 5.27424 336.114 5.52904 335.971C5.99594 335.711 6.25073 335.965 6.5014 336.297C6.77961 336.667 6.62673 336.969 6.30996 337.174C5.77557 337.519 5.23017 337.862 4.65033 338.119C3.96169 338.424 3.23311 338.638 2.52105 338.892C2.04314 339.062 1.50738 338.718 1.48534 338.054V338.053Z" fill="white"/>
<path d="M1.59965 345.6C1.72498 345.44 1.86685 345.107 2.11751 344.969C2.81166 344.584 3.54575 344.265 4.27571 343.95C4.6944 343.771 5.16957 343.707 5.5621 343.488C6.06481 343.208 6.33613 343.471 6.6047 343.803C6.90908 344.178 6.66392 344.493 6.37883 344.672C5.80312 345.034 5.19574 345.354 4.57459 345.63C3.92864 345.917 3.24964 346.131 2.58717 346.38C2.20015 346.524 1.6148 346.146 1.59965 345.6Z" fill="white"/>
<path d="M1.73463 352.871C1.99907 352.665 2.342 352.281 2.76896 352.091C3.81156 351.624 4.89274 351.239 5.96564 350.843C6.08959 350.798 6.2893 350.844 6.40912 350.92C6.92698 351.246 6.99998 351.731 6.51517 352.094C6.02762 352.459 5.47257 352.751 4.91339 352.998C4.22475 353.301 3.50306 353.533 2.791 353.78C2.25249 353.968 1.69744 353.599 1.73463 352.871Z" fill="white"/>
<path d="M6.80027 336.214C5.95324 334.5 4.18068 334.165 2.73316 333.348C2.23734 333.068 1.73738 332.782 1.28838 332.435C0.821482 332.075 0.825616 331.595 1.16718 331C1.85031 332.332 3.16425 332.489 4.31703 332.93C4.85142 333.134 5.40371 333.304 5.9133 333.558C6.88842 334.042 7.29059 335.236 6.80165 336.213L6.80027 336.214Z" fill="white"/>
</g>
</svg>
