<svg width="32" height="20" viewBox="0 0 32 20" fill="none" xmlns="http://www.w3.org/2000/svg">
<g clip-path="url(#clip0_111_2091)">
<path d="M17.4026 5.19009C18.1596 5.20312 18.9142 5.10298 19.6416 4.89298C22.7061 4.08652 25.83 3.63236 28.9667 3.24824C30.412 3.07209 31.1038 3.61963 31.437 5.0097C31.8954 6.91972 31.8763 8.85308 31.698 10.7992C31.6195 11.6481 31.1972 12.1659 30.4077 12.3442C29.4633 12.5564 28.4977 12.7049 27.5469 12.8641C24.9748 13.2886 22.4005 13.713 19.8283 14.1375C19.6472 14.1892 19.4721 14.2604 19.3063 14.3497C18.5847 15.8353 19.5418 17.497 18.8967 18.974C18.035 19.7062 17.1288 19.719 16.1654 19.2499C15.5096 18.9316 14.8241 18.6769 14.1768 18.3437C10.7776 16.5817 7.27354 15.0295 3.68445 13.696C2.78277 13.3395 1.90266 12.9306 1.04863 12.4715C0.852434 12.3789 0.699132 12.2147 0.620197 12.0127C0.541263 11.8106 0.542688 11.586 0.624179 11.3849C0.82367 10.7482 1.02741 10.1116 1.64286 9.71259C2.14795 9.37939 2.58937 8.95495 3.07325 8.59204C5.06603 7.09374 7.03335 5.56573 9.06433 4.13534C10.6921 2.9681 12.4005 1.92184 14.0813 0.82464C14.2917 0.703458 14.5162 0.608658 14.7498 0.542382C15.5393 0.277101 16.2163 0.508426 16.5686 1.28517C16.7989 1.84404 16.9655 2.42709 17.0652 3.02328C17.2095 3.71513 17.288 4.42821 17.4026 5.19009ZM14.8262 3.15698C14.1297 3.25308 13.4708 3.53126 12.9162 3.96343C11.749 4.83143 10.5626 5.67608 9.38691 6.53559C7.58089 7.86411 5.76637 9.1799 3.96034 10.5233C3.69294 10.7228 3.50831 11.0347 3.23029 11.3573C5.61569 12.2975 7.87588 13.1697 10.1148 14.0865C12.3538 15.0033 14.3784 16.3403 16.8105 17.1871C16.8975 16.8095 16.9543 16.4256 16.9803 16.039C16.9633 15.4341 16.8508 14.8314 16.8254 14.2245C16.7829 13.123 17.0185 12.7707 18.0563 12.5628C20.968 11.977 23.8882 11.4175 26.8169 10.8841C27.7019 10.7185 28.6017 10.6273 29.4548 10.1965C29.6671 8.57931 29.3084 7.05766 28.9943 5.52753C28.7952 5.48805 28.5924 5.47026 28.3895 5.47447C24.9705 6.04748 21.5622 6.61199 18.1581 7.23805C17.8072 7.32105 17.4423 7.32606 17.0892 7.25272C16.736 7.17939 16.4033 7.02949 16.1144 6.8136C15.7865 6.59215 15.5147 6.29733 15.3205 5.95252C15.1264 5.60772 15.0153 5.22242 14.996 4.82719C14.9493 4.30087 14.8878 3.77455 14.8262 3.15698Z" fill="white"/>
</g>
<defs>
<clipPath id="clip0_111_2091">
<rect width="31.875" height="20" fill="white" transform="translate(0.0625)"/>
</clipPath>
</defs>
</svg>
