<svg width="29" height="43" viewBox="0 0 29 43" fill="none" xmlns="http://www.w3.org/2000/svg">
<g clip-path="url(#clip0_111_340)">
<path d="M22.0028 19.6098L22.0041 19.5579C22.0274 17.6831 22.0489 15.7451 21.5957 13.0562C20.953 9.25143 19.6274 5.5628 17.6604 2.08856C17.1632 1.2192 16.1437 0.79357 15.1771 1.05258L3.12696 4.28141C2.149 4.54345 1.48125 5.43027 1.49378 6.42951C1.53052 10.4331 2.22891 14.2868 3.57369 17.8882C4.52192 20.4293 5.50521 22.092 6.46728 23.7209C7.26001 25.058 8.00879 26.3218 8.74744 28.126C9.17365 29.1724 9.50508 32.3709 9.7472 34.7032L9.74912 34.733C9.77552 34.9903 9.97983 36.8526 9.97983 36.8526C10.3092 39.7144 10.5515 40.959 11.6146 41.695C12.1778 42.0848 12.8817 42.2061 13.5422 42.0291L25.0311 38.9507C25.6859 38.7752 26.23 38.3226 26.5313 37.7011C27.177 36.3462 26.5439 34.936 24.6682 30.7476L24.6526 30.7123C23.7347 28.6584 22.6918 26.331 22.3295 24.9789C22.2687 24.7521 22.2406 24.6017 22.2291 24.5136C21.9701 22.6173 21.9825 21.1556 21.9992 19.6078L22.0028 19.6098Z" fill="white"/>
<path d="M18.597 12.9666C18.6337 13.1603 18.6676 13.3548 18.7008 13.5464C19.1074 15.9713 19.0895 17.6957 19.069 19.5241C19.051 21.124 19.0326 22.7787 19.3248 24.9122C19.5351 26.4569 20.7837 29.2456 21.9901 31.9454C22.1402 32.2788 22.3 32.6371 22.4613 33.001C22.4636 33.0095 22.4687 33.0172 22.471 33.0257L12.7935 35.6188C12.7935 35.6188 12.7889 35.6018 12.7923 35.5918C12.7493 35.1931 12.7078 34.8002 12.6703 34.4335C12.3696 31.4971 12.0537 28.4585 11.4671 27.0176C10.6505 25.0246 9.81003 23.6001 8.99458 22.2236C8.06262 20.6504 7.18201 19.1667 6.32385 16.8598C6.25671 16.6772 6.18957 16.4947 6.12451 16.3086L18.597 12.9666Z" fill="#F1BB21"/>
<path d="M20.535 19.5412C20.5564 17.7277 20.5776 15.8566 20.1481 13.3011C19.5339 9.67099 18.2694 6.14221 16.3847 2.81608C16.2189 2.52629 15.8798 2.38321 15.5566 2.4698L3.50365 5.69939C3.18049 5.78598 2.95551 6.0802 2.96045 6.41612C2.99434 10.2503 3.6636 13.9386 4.94581 17.3746C5.85156 19.8024 6.80548 21.4123 7.72797 22.9728C8.55365 24.3648 9.33179 25.6815 10.1061 27.5734C10.6133 28.8199 10.9296 31.8827 11.21 34.5845C11.2867 35.3356 11.3581 35.9879 11.4233 36.5599C11.4205 36.5606 11.4212 36.5634 11.422 36.5663C11.4267 36.5954 11.4294 36.6281 11.4342 36.6572C11.7387 39.313 11.9484 40.1409 12.4482 40.487C12.6571 40.6316 12.9184 40.677 13.1622 40.6117L24.6511 37.5333C24.8949 37.4679 25.0956 37.2987 25.2071 37.0683C25.5261 36.3995 25.1085 35.3174 23.3304 31.3459C22.3755 29.2107 21.3089 26.829 20.9147 25.3578C20.8502 25.1169 20.8045 24.9012 20.7786 24.7137C20.5004 22.6889 20.5188 21.1588 20.535 19.5412ZM13.2785 39.0614C13.1695 38.6319 13.061 37.8984 12.9566 37.0665L23.0537 34.361C23.382 35.1329 23.6549 35.8223 23.7724 36.2496L13.2785 39.0614ZM19.069 19.5238C19.051 21.1237 19.0326 22.7784 19.3248 24.9119C19.5351 26.4566 20.7836 29.2453 21.9901 31.9451C22.1402 32.2785 22.3 32.6368 22.4613 33.0007C22.4636 33.0092 22.4687 33.0169 22.471 33.0254L12.7934 35.6185C12.7934 35.6185 12.7889 35.6015 12.7923 35.5915C12.7493 35.1928 12.7078 34.7999 12.6703 34.4332C12.3696 31.4968 12.0537 28.4582 11.4671 27.0173C10.6505 25.0243 9.81003 23.5998 8.99457 22.2233C8.06262 20.6501 7.182 19.1664 6.32384 16.8595C6.25671 16.6769 6.18957 16.4944 6.12451 16.3083C5.09185 13.3615 4.52439 10.2232 4.43901 6.96785L15.3837 4.03525C16.9351 6.88862 18.0121 9.88737 18.597 12.9663C18.6337 13.16 18.6676 13.3545 18.7007 13.5461C19.1074 15.971 19.0895 17.6954 19.069 19.5238Z" fill="black"/>
</g>
<defs>
<clipPath id="clip0_111_340">
<rect width="18.9491" height="39.1572" fill="white" transform="translate(0 5.11914) rotate(-15)"/>
</clipPath>
</defs>
</svg>
