<svg width="38" height="53" viewBox="0 0 38 53" fill="none" xmlns="http://www.w3.org/2000/svg">
<g clip-path="url(#clip0_111_320)">
<path d="M26.6432 14.2299C26.3387 13.8193 26.1552 13.5312 26.0466 13.3415C27.3719 11.8927 27.8747 9.95934 27.3894 8.14799C26.7278 5.67899 24.3971 4.02184 21.7192 4.02845C20.2633 3.00579 18.3228 2.66898 16.5086 3.15509C15.627 3.39131 14.8196 3.80211 14.1299 4.35757C13.0238 4.02808 11.8262 4.01477 10.664 4.32618C8.44446 4.92091 6.78442 6.57187 6.25546 8.60032C3.24775 9.60979 1.46061 12.6347 2.2361 15.5288C2.79741 17.6237 4.57071 19.1507 6.75779 19.546C7.09552 21.8496 7.66929 24.093 8.46847 26.2364C9.41518 28.7718 10.3985 30.4346 11.346 32.0431L11.3621 32.0692C12.1548 33.4062 12.9064 34.6692 13.6422 36.4742C14.0684 37.5206 14.3999 40.7191 14.642 43.0514L14.6431 43.0784C14.7154 43.7791 14.782 44.3902 14.8431 44.9359L14.8628 45.1341C14.8655 45.1668 14.8718 45.2016 14.8773 45.2335C15.2041 48.0748 15.447 49.31 16.5065 50.0439C17.0697 50.4338 17.7737 50.5551 18.4342 50.3781L29.9287 47.2982C30.5807 47.1235 31.1276 46.6701 31.431 46.0449C32.0738 44.6908 31.4408 43.2806 29.5686 39.0943L29.5531 39.059C28.6351 37.0051 27.5922 34.6777 27.2299 33.3256C27.1692 33.0988 27.141 32.9484 27.1303 32.8632C26.8664 30.9256 26.8837 29.4596 26.9041 27.8804C26.9206 26.1503 26.9411 24.3674 26.5888 21.9979C27.5691 21.3706 28.1549 20.3933 28.3946 19.5757C28.994 17.504 27.8086 15.8468 26.756 14.3789L26.6452 14.2263L26.6432 14.2299Z" fill="white"/>
<path d="M24.2235 33.2623C24.4339 34.8071 25.6824 37.5958 26.8889 40.2955C27.039 40.629 27.1988 40.9872 27.3601 41.3511L27.3953 41.369L17.6894 43.9697C17.6894 43.9697 17.6848 43.9527 17.6882 43.9427C17.6452 43.544 17.6037 43.1511 17.5662 42.7844C17.2656 39.848 16.9496 36.8094 16.363 35.3685C15.5493 33.3748 14.706 31.951 13.8905 30.5745C12.9586 29.0013 12.078 27.5176 11.2198 25.2107C10.3514 22.8882 9.77853 20.4441 9.50744 17.913C9.59947 17.8823 9.6879 17.8495 9.77557 17.8138C10.8409 18.6829 12.3294 19.0223 13.7805 18.7003C14.8745 19.4159 16.2797 19.6257 17.629 19.2642C18.1307 19.1297 18.4937 18.9535 18.8126 18.783C19.2951 18.52 19.635 18.2466 19.9321 18.006C20.3134 17.6942 20.588 17.4718 21.1095 17.332C21.3136 17.2773 21.3993 17.2908 21.4106 17.2878C21.4273 17.3046 21.5197 17.4226 21.6343 17.8051C21.7723 18.2634 21.766 18.5233 21.7638 18.776C21.758 19.1057 21.75 19.518 22.0626 19.9933C22.371 20.4636 22.8716 20.8126 23.4336 21.0053C23.4948 21.3018 23.5504 21.5998 23.5995 21.8966C24.0062 24.3214 23.9882 26.0459 23.9677 27.8743C23.9498 29.4741 23.9314 31.1288 24.2235 33.2623Z" fill="#F1BB21"/>
<path d="M24.484 13.1799C24.5086 13.0336 24.5472 12.7923 24.8956 12.4255C25.9323 11.3396 26.3349 9.88277 25.9718 8.5278C25.4447 6.56054 23.4226 5.3068 21.2436 5.52C20.1227 4.52303 18.4671 4.14939 16.8882 4.57246C15.9357 4.82767 15.0889 5.35232 14.4651 6.06328C13.4464 5.54937 12.2228 5.42758 11.0435 5.74355C9.02527 6.28435 7.64181 7.95843 7.54873 9.78805C7.37125 9.81737 7.1989 9.85444 7.02598 9.90078C4.56833 10.5593 3.05392 12.9126 3.65321 15.1491C4.15906 17.037 6.01384 18.2444 8.06218 18.1787C8.34962 20.7935 8.94812 23.3219 9.8442 25.725C10.75 28.1529 11.7039 29.7627 12.6264 31.3233C13.452 32.7153 14.2302 34.032 15.0045 35.9239C15.5117 37.1703 15.828 40.2331 16.1084 42.9349C16.1835 43.6804 16.2563 44.3262 16.3207 44.8954C16.3194 44.9018 16.3209 44.9075 16.3204 44.9167C16.3251 44.9458 16.3278 44.9785 16.3326 45.0076L16.3349 45.0161C16.6378 47.6663 16.8468 48.4914 17.3466 48.8375C17.5555 48.982 17.8168 49.0275 18.0606 48.9621L29.5495 45.8837C29.7933 45.8184 29.994 45.6491 30.1054 45.4188C30.4237 44.7471 30.0069 43.6678 28.2288 39.6964C27.2739 37.5612 26.2073 35.1794 25.8131 33.7083C25.7486 33.4673 25.7029 33.2517 25.677 33.0642C25.4016 31.0386 25.4172 29.5092 25.4362 27.8909C25.4548 26.0782 25.476 24.207 25.0465 21.6516C25.0164 21.4713 24.9835 21.2917 24.9498 21.1093C24.9967 21.1028 25.0449 21.0899 25.0902 21.0778C25.1441 21.0633 25.1972 21.0461 25.2475 21.0296C26.227 20.6942 26.7844 19.8491 26.9823 19.1702C27.3846 17.7803 26.5405 16.6028 25.5651 15.2418L25.4638 15.1018C24.5103 13.8109 24.4576 13.3875 24.4626 13.3041C24.4684 13.2692 24.4755 13.2278 24.484 13.1799ZM18.1769 47.4119C18.0679 46.9823 17.9594 46.2488 17.855 45.417L27.9521 42.7115C28.2804 43.4833 28.5533 44.1728 28.6736 44.5993L18.1769 47.4119ZM23.5991 21.8966C24.0058 24.3215 23.9879 26.0459 23.9674 27.8743C23.9494 29.4741 23.931 31.1288 24.2231 33.2623C24.4335 34.8071 25.682 37.5958 26.8885 40.2955C27.0386 40.629 27.3722 41.3751 27.3722 41.3751L17.689 43.9697C17.689 43.9697 17.6844 43.9527 17.6878 43.9427C17.6448 43.544 17.6033 43.1511 17.5658 42.7844C17.2652 39.848 16.9492 36.8094 16.3626 35.3685C15.5489 33.3748 14.7056 31.951 13.8901 30.5745C12.9582 29.0013 12.0776 27.5176 11.2194 25.2107C10.351 22.8883 9.77814 20.4441 9.50706 17.913C9.59908 17.8823 9.68751 17.8495 9.77518 17.8138C10.8405 18.6829 12.329 19.0223 13.7801 18.7004C14.8741 19.4159 16.2793 19.6257 17.6286 19.2642C18.1304 19.1297 18.4933 18.9535 18.8122 18.783C19.2947 18.52 19.6346 18.2467 19.9317 18.006C20.313 17.6942 20.5876 17.4718 21.1091 17.332C21.3132 17.2773 21.3989 17.2908 21.4102 17.2878C21.4269 17.3046 21.5193 17.4226 21.6339 17.8051C21.7719 18.2634 21.7656 18.5233 21.7634 18.7761C21.7576 19.1057 21.7496 19.518 22.0623 19.9933C22.3706 20.4636 22.8712 20.8126 23.4332 21.0053C23.4945 21.3018 23.55 21.5999 23.5991 21.8966ZM23.6223 11.2112C22.8941 11.9744 22.7918 12.6247 22.7473 12.9009L22.7421 12.9266C22.5266 13.914 23.2435 15.0587 24.0492 16.1493L24.1323 16.2668C24.9524 17.4112 25.448 18.1382 25.2898 18.6819C25.2172 18.9322 24.9941 19.2563 24.6763 19.3627C24.643 19.3747 24.609 19.3838 24.5742 19.3901C24.16 19.4768 23.6791 19.2471 23.5265 19.0176C23.521 18.9857 23.5235 18.8817 23.5236 18.8027C23.5283 18.4915 23.5353 18.0187 23.3218 17.3012C23.1166 16.6149 22.8456 16.1589 22.46 15.8763C22.3569 15.7976 22.249 15.7354 22.1321 15.6847C22.0224 15.6381 21.9094 15.6016 21.7936 15.5779C21.4514 15.5025 21.0673 15.5203 20.6534 15.6312C19.769 15.8682 19.2648 16.2768 18.821 16.6387C18.559 16.8517 18.3146 17.0509 17.9746 17.2331C17.7566 17.3493 17.5159 17.4715 17.1729 17.5634C16.2063 17.8224 15.2144 17.6355 14.5127 17.0579C14.2832 16.8702 13.9689 16.8086 13.6893 16.8987L13.6156 16.9185C13.5916 16.931 13.5668 16.9407 13.5385 16.9483C12.4273 17.246 11.274 16.9444 10.6069 16.1782C10.3311 15.8632 9.87352 15.7884 9.51175 15.9916C9.46169 16.0202 9.4137 16.0453 9.36288 16.071C9.16168 16.1705 8.95515 16.2501 8.74255 16.3071C8.63484 16.336 8.52844 16.3584 8.42052 16.3752C8.25231 16.4051 8.08314 16.42 7.9166 16.4221C6.70657 16.4303 5.63731 15.7507 5.354 14.6934C5.00613 13.3951 5.96233 12.0087 7.48171 11.6016C7.79636 11.5173 8.12392 11.4811 8.45512 11.4927C8.72508 11.5024 8.98941 11.389 9.16459 11.181C9.33977 10.9731 9.40844 10.6964 9.35197 10.429C9.07917 9.1501 10.0224 7.84007 11.4993 7.44435C12.4574 7.18762 13.4421 7.37038 14.14 7.93382C14.3421 8.09842 14.6058 8.16446 14.8599 8.11463C15.111 8.06556 15.3333 7.90877 15.4612 7.68309C15.8449 7.00606 16.5332 6.49049 17.3439 6.27326C18.4551 5.97552 19.6048 6.27509 20.2739 7.03762C20.4793 7.27122 20.7972 7.38048 21.1059 7.31905C22.5547 7.03414 23.9444 7.76462 24.271 8.98352C24.3728 9.36337 24.3631 9.7579 24.2499 10.1407C24.1396 10.5226 23.9259 10.8928 23.6223 11.2112Z" fill="black"/>
<path d="M24.2712 8.98357C24.373 9.36342 24.3633 9.75795 24.2501 10.1407C24.1398 10.5227 23.9261 10.8929 23.6225 11.2112C22.8943 11.9745 22.792 12.6247 22.7476 12.9009L22.7423 12.9267C22.5268 13.9141 23.2437 15.0588 24.0494 16.1493L24.1325 16.2668C24.9526 17.4112 25.4482 18.1382 25.29 18.6819C25.2174 18.9323 24.9943 19.2564 24.6765 19.3628C24.6432 19.3747 24.6092 19.3839 24.5744 19.3901C24.1602 19.4768 23.6794 19.2472 23.5267 19.0177C23.5212 18.9857 23.5237 18.8818 23.5238 18.8027C23.5285 18.4916 23.5355 18.0188 23.322 17.3013C23.1168 16.6149 22.8458 16.1589 22.4602 15.8764C22.3571 15.7977 22.2492 15.7354 22.1324 15.6847C22.0227 15.6381 21.9096 15.6016 21.7938 15.5779C21.4516 15.5025 21.0675 15.5204 20.6536 15.6313C19.7692 15.8683 19.265 16.2768 18.8212 16.6388C18.5592 16.8518 18.3148 17.0509 17.9748 17.2332C17.7568 17.3493 17.5161 17.4715 17.1731 17.5634C16.2065 17.8224 15.2146 17.6355 14.5129 17.0579C14.2834 16.8703 13.9691 16.8087 13.6895 16.8988L13.6158 16.9185C13.5918 16.931 13.567 16.9407 13.5387 16.9483C12.4275 17.2461 11.2742 16.9444 10.6071 16.1783C10.3313 15.8633 9.87373 15.7884 9.51196 15.9917C9.4619 16.0203 9.41392 16.0453 9.3631 16.0711C9.16189 16.1706 8.95537 16.2502 8.74277 16.3072C8.63505 16.336 8.52865 16.3585 8.42073 16.3752C8.25252 16.4051 8.08335 16.4201 7.91681 16.4221C6.70678 16.4304 5.63753 15.7508 5.35422 14.6934C5.00634 13.3952 5.96254 12.0087 7.48192 11.6016C7.79657 11.5173 8.12413 11.4812 8.45534 11.4927C8.7253 11.5024 8.98962 11.389 9.1648 11.1811C9.33998 10.9731 9.40865 10.6965 9.35218 10.429C9.07938 9.15015 10.0226 7.84012 11.4995 7.4444C12.4576 7.18767 13.4423 7.37043 14.1402 7.93387C14.3423 8.09847 14.6061 8.16451 14.8601 8.11467C15.1112 8.0656 15.3335 7.90881 15.4614 7.68314C15.8451 7.00611 16.5334 6.49053 17.3441 6.2733C18.4553 5.97556 19.605 6.27514 20.2742 7.03767C20.4795 7.27126 20.7974 7.38053 21.1061 7.3191C22.5549 7.03418 23.9446 7.76467 24.2712 8.98357Z" fill="white"/>
</g>
<defs>
<clipPath id="clip0_111_320">
<rect width="26.2065" height="46.4968" fill="white" transform="translate(0 7.18359) rotate(-15)"/>
</clipPath>
</defs>
</svg>
