<svg width="32" height="32" viewBox="0 0 32 32" fill="none" xmlns="http://www.w3.org/2000/svg">
<path opacity="0.5" fill-rule="evenodd" clip-rule="evenodd" d="M16 32C24.8366 32 32 24.8366 32 16C32 7.16344 24.8366 0 16 0C7.16344 0 0 7.16344 0 16C0 24.8366 7.16344 32 16 32ZM22.6088 9.39107C22.0874 8.86964 21.242 8.86964 20.7206 9.39107L15.9999 14.1117L11.2793 9.39118C10.7579 8.86975 9.91251 8.86975 9.39109 9.39118C8.86966 9.9126 8.86966 10.758 9.39109 11.2794L14.1116 16L9.39107 20.7206C8.86964 21.242 8.86964 22.0874 9.39107 22.6088C9.9125 23.1302 10.7579 23.1302 11.2793 22.6088L15.9999 17.8882L20.7206 22.6089C21.242 23.1304 22.0874 23.1304 22.6088 22.6089C23.1303 22.0875 23.1303 21.2421 22.6088 20.7207L17.8881 16L22.6088 11.2793C23.1302 10.7579 23.1302 9.9125 22.6088 9.39107Z" fill="white"/>
</svg>
