<svg width="83" height="82" viewBox="0 0 83 82" fill="none" xmlns="http://www.w3.org/2000/svg">
<circle cx="41" cy="41" r="40.5" fill="#C879FF" stroke="black"/>
<mask id="mask0_308_50" style="mask-type:alpha" maskUnits="userSpaceOnUse" x="1" y="0" width="82" height="82">
<path d="M82.5 41C82.5 63.3675 64.3675 81.5 42 81.5C19.6325 81.5 1.5 63.3675 1.5 41C1.5 18.6325 19.6325 0.5 42 0.5C64.3675 0.5 82.5 18.6325 82.5 41Z" fill="#C879FF" stroke="black"/>
</mask>
<g mask="url(#mask0_308_50)">
<path d="M50.7232 31.2519C50.2704 38.5326 49.0169 43.3793 44.6683 49.4125C41.2285 54.1828 37.688 58.261 33.1592 62.7898C31.7975 61.7635 30.0995 60.0655 28.9055 58.8715" fill="white"/>
<path d="M50.3718 31.2493C50.1015 35.5519 49.4529 39.825 47.6344 43.7492C46.676 45.8188 45.454 47.7396 44.1159 49.5796C42.5642 51.7136 40.9276 53.7848 39.2104 55.7843C37.2045 58.1217 35.0866 60.3606 32.9128 62.5389L33.3348 62.4843C31.8277 61.3391 30.4922 59.9595 29.1571 58.6244C28.8345 58.3018 28.3402 58.7962 28.6627 59.1188C30.0471 60.5031 31.4317 61.9098 32.9925 63.0954C33.1155 63.1875 33.3174 63.1378 33.4146 63.0407C37.2724 59.1828 40.8997 55.1076 44.1533 50.7205C45.5819 48.7945 46.9279 46.8123 47.9902 44.6523C48.9014 42.7959 49.5983 40.8355 50.0746 38.818C50.6565 36.3409 50.9222 33.7948 51.0834 31.2546C51.1111 30.8013 50.4063 30.7982 50.3807 31.2494L50.3718 31.2493Z" fill="#313C6C"/>
<path d="M49.3991 37.0786C48.9181 38.7738 48.0023 40.3034 47.0438 41.7637C45.9885 43.3745 44.922 44.9741 43.9182 46.6187C42.8484 48.3695 41.8055 50.156 40.5346 51.7719C39.2549 53.4011 37.8321 54.9135 36.3666 56.3745C34.7378 57.9989 33.0552 59.565 31.4263 61.1893C31.188 61.4277 31.5643 61.804 31.8027 61.5657C34.7645 58.6083 37.9301 55.8325 40.5739 52.5704C41.8694 50.9703 42.9503 49.2218 44.0245 47.4666C45.0987 45.7114 46.1207 44.107 47.2246 42.4565C48.3285 40.8061 49.3743 39.124 49.9138 37.2181C50.0069 36.8919 49.4945 36.7547 49.4013 37.0809L49.3991 37.0786Z" fill="#313C6C"/>
<path d="M49.1451 38.7977C48.129 40.2887 47.4968 41.9872 46.7084 43.6044C45.92 45.2217 44.8424 46.8146 43.8444 48.3635C42.7696 50.0298 41.5939 51.5952 40.3156 53.111C39.0858 54.5693 37.773 55.9448 36.485 57.3493C35.1065 58.8532 33.7863 60.4109 32.3452 61.861C32.1068 62.0994 32.4832 62.4757 32.7215 62.2373C34.0325 60.9219 35.2404 59.5168 36.4865 58.1409C37.7523 56.7406 39.0696 55.3874 40.2996 53.9514C41.5296 52.5153 42.7764 50.9504 43.856 49.3197C44.8828 47.7687 45.9472 46.1935 46.8266 44.5481C47.7937 42.7387 48.446 40.7647 49.6095 39.0635C49.7987 38.7848 49.3365 38.5212 49.1473 38.7999L49.1451 38.7977Z" fill="#313C6C"/>
<path d="M48.8076 37.9658C46.8211 41.1217 44.9687 44.3675 42.7944 47.3974C40.6202 50.4274 37.938 53.3112 35.3216 56.0799C33.8501 57.6365 32.354 59.1685 30.8423 60.6847C30.6039 60.9231 30.9803 61.2994 31.2186 61.0611C33.9641 58.3155 36.6514 55.5117 39.2246 52.6071C40.4549 51.2199 41.6674 49.8148 42.7724 48.3244C43.8775 46.8341 44.9042 45.2697 45.8931 43.694C47.0313 41.8792 48.1293 40.0419 49.2676 38.2316C49.4456 37.9461 48.9856 37.6803 48.8054 37.968L48.8076 37.9658Z" fill="#313C6C"/>
<path d="M61.3344 14.3902C65.3448 28.0365 33.2611 59.7798 16.7893 71.6638C6.45997 79.2422 -3.37277 86.3241 -15.4389 89.6806C-13.9611 82.7011 -7.10775 72.6399 -2.555 66.2502C3.76 57.6413 11.0143 49.473 18.7048 42.2396C30.1295 31.2763 47.3567 20.8098 61.3344 14.3902Z" fill="#D1E2EA"/>
<path d="M42.9024 27.885C43.7635 30.3572 44.3169 33.0072 42.8222 35.3307C41.7013 37.0789 40.085 38.5922 38.5769 40.0017C37.0268 41.4532 35.405 42.8241 33.7495 44.1525C30.4364 46.816 27.0022 49.3497 23.8731 52.2324C19.6243 56.1496 15.6425 60.3868 11.5573 64.472L-0.797556 76.8269C-3.20321 79.2325 -5.81757 81.9768 -9.18741 82.9945C-10.4142 83.3656 -11.7697 83.48 -12.9851 82.993C-10.1802 77.1728 -5.78971 70.7842 -2.55503 66.2458C3.75996 57.6369 11.0143 49.4686 18.7047 42.2351C25.1203 36.0795 33.3624 30.0775 41.8327 24.8643C42.1693 25.8718 42.5458 26.8707 42.898 27.8805L42.9024 27.885Z" fill="#8BB7CA"/>
<path d="M54.2839 22.1621C56.7217 24.3748 53.3733 27.078 51.5633 25.2724C49.5069 23.216 52.513 20.528 54.2839 22.1621Z" fill="white"/>
<path d="M54.5311 21.9149C55.3393 22.6569 55.7542 23.7294 55.286 24.7576C54.9031 25.5975 54.0112 26.1534 53.0978 26.211C52.0111 26.2808 51.0315 25.5131 50.655 24.5142C50.2966 23.5687 50.6801 22.5132 51.4382 21.8985C52.3509 21.1605 53.6222 21.0899 54.5333 21.9127C54.8713 22.2198 54.377 22.7142 54.0389 22.4071C53.7703 22.1649 53.4246 22.0178 53.0754 22.0086C52.7263 21.9993 52.4069 22.0992 52.0859 22.2991C51.8071 22.4749 51.56 22.7355 51.3956 23.0522C51.2443 23.3423 51.1805 23.7199 51.2451 24.0361C51.3327 24.4636 51.5755 24.8212 51.9202 25.1261C52.153 25.3324 52.5299 25.4842 52.828 25.5042C53.0393 25.5169 53.1548 25.5044 53.3213 25.4679C53.5344 25.4205 53.6187 25.39 53.7848 25.3045C53.8668 25.2629 53.9464 25.2146 54.0217 25.1662C54.1212 25.098 54.0969 25.1179 54.2029 25.0253C54.2714 24.9658 54.3354 24.9018 54.395 24.8333C54.4259 24.8024 54.4501 24.7692 54.4765 24.7338C54.4302 24.7935 54.5117 24.6807 54.5227 24.6652C54.5776 24.5789 54.6237 24.4926 54.6697 24.4017C54.6784 24.384 54.6872 24.3619 54.6959 24.3441C54.6697 24.4106 54.7025 24.3242 54.7068 24.3109C54.722 24.2598 54.7394 24.211 54.7523 24.1578C54.7847 24.0268 54.7848 24.0313 54.7906 23.9135C54.7946 23.8646 54.7943 23.8157 54.7917 23.7645C54.7915 23.7423 54.7771 23.5999 54.7842 23.6555C54.7115 23.1503 54.4262 22.7635 54.0389 22.4071C53.7031 22.0977 54.1975 21.6034 54.5333 21.9127L54.5311 21.9149Z" fill="#313C6C"/>
<path d="M53.6782 22.9291C54.9654 24.0971 53.1972 25.5247 52.2429 24.5704C51.1565 23.484 52.7446 22.0661 53.6782 22.9291Z" fill="#313C6C"/>
<path d="M55.0931 33.4944C54.3077 34.6202 53.2049 35.517 51.7988 35.6999C50.5616 35.8619 49.3135 35.4747 48.2504 34.8353C46.0728 33.5228 44.2042 31.0142 44.1049 28.4209C44.0497 26.9886 44.6696 25.7281 45.8017 24.8783C46.1599 24.6097 46.5113 25.2259 46.1531 25.4945C44.2582 26.9146 44.6528 29.45 45.7315 31.2879C46.8103 33.1259 48.9257 35.0471 51.2336 35.0376C52.601 35.0322 53.7223 34.229 54.4746 33.1451C54.7298 32.7779 55.3461 33.1294 55.0909 33.4966L55.0931 33.4944Z" fill="#313C6C"/>
<path d="M52.3584 33.5096C51.1006 33.9071 49.7121 33.7545 48.6255 32.9504C47.4383 32.0677 46.8521 30.6826 46.6725 29.2583C46.6158 28.8087 47.3207 28.8162 47.3752 29.2635C47.5263 30.4475 48.04 31.6631 49.0327 32.3909C49.9605 33.0715 51.1063 33.1667 52.1732 32.83C52.6036 32.6954 52.7865 33.3771 52.3562 33.5118L52.3584 33.5096Z" fill="#313C6C"/>
<path d="M61.6762 14.3039C62.2536 16.2981 62.0582 18.4245 61.5837 20.4043C60.9713 22.9523 59.8798 25.3744 58.654 27.671C55.4348 33.6992 51.1419 39.1525 46.6844 44.2955C41.7309 50.0152 36.3925 55.4073 30.8141 60.5153C25.9004 65.0123 20.7642 69.1986 15.3883 73.1275C6.97165 79.2816 -1.6991 85.3493 -11.6296 88.8507C-12.8538 89.2818 -14.0938 89.6706 -15.3452 90.0215C-15.607 90.0951 -15.8335 89.8378 -15.7775 89.5891C-15.1822 86.8254 -14.0078 84.2038 -12.7345 81.703C-11.2444 78.7747 -9.53327 75.9614 -7.74608 73.211C-3.7804 67.1082 0.589873 61.2953 5.31804 55.7697C10.4959 49.7226 16.0557 43.9119 22.078 38.696C27.6496 33.8682 33.6877 29.5818 39.9219 25.646C46.0388 21.7872 52.3805 18.2591 58.912 15.1371C59.6586 14.7802 60.4075 14.43 61.1609 14.0843C61.5664 13.8984 61.9246 14.5125 61.5124 14.7006C55.093 17.6523 48.859 21.01 42.8274 24.6805C36.7959 28.3509 30.3804 32.7234 24.6723 37.428C18.7056 42.3463 13.2261 47.8975 8.09061 53.6691C2.95516 59.4408 -1.51349 65.1818 -5.70504 71.4074C-7.53911 74.133 -9.3061 76.9081 -10.9056 79.78C-12.3537 82.3795 -13.71 85.0754 -14.6048 87.9281C-14.796 88.5359 -14.9603 89.1528 -15.0958 89.7766L-15.5281 89.3442C-5.41028 86.5113 3.4636 80.8497 11.8988 74.7936C14.9132 72.6303 17.9299 70.4605 20.832 68.1497C23.3828 66.1187 25.8662 64.0026 28.3003 61.8329C33.8443 56.8892 39.1439 51.6613 44.1123 46.1419C48.7476 40.9913 53.1897 35.5636 56.7495 29.5979C58.1703 27.2182 59.4703 24.7265 60.3578 22.0872C61.0343 20.0756 61.5185 17.9069 61.2602 15.7638C61.208 15.332 61.1181 14.9023 60.9971 14.4811C60.8762 14.06 61.5507 13.8693 61.6762 14.3083L61.6762 14.3039Z" fill="#313C6C"/>
<path d="M-8.38028 87.1784C-14.1621 90.953 -14.7097 95.3492 -18.6572 100.3C-19.6756 97.3044 -19.1134 94.5693 -17.3977 91.178C-21.2855 92.8166 -23.9877 92.4141 -27.106 91.6882C-22.8137 88.2338 -17.5929 87.3589 -12.978 82.744" fill="#D1E2EA"/>
<path d="M-8.20235 87.4843C-10.1074 88.7398 -11.7433 90.3084 -13.0501 92.1753C-14.2095 93.8365 -15.1366 95.6417 -16.1955 97.3681C-16.8721 98.4704 -17.6023 99.5366 -18.4064 100.547C-18.5848 100.77 -18.9217 100.61 -18.999 100.382C-19.4925 98.9044 -19.6307 97.3714 -19.4041 95.8412C-19.15 94.1355 -18.475 92.524 -17.7059 90.9978L-17.222 91.4817C-18.8978 92.1807 -20.6553 92.6434 -22.4872 92.6698C-24.0746 92.6891 -25.6466 92.3839 -27.1924 92.0256C-27.4352 91.9682 -27.5646 91.6003 -27.3569 91.4329C-24.0414 88.7806 -19.9246 87.4549 -16.4202 85.1019C-15.2742 84.3322 -14.2089 83.4597 -13.229 82.4886C-12.9112 82.1708 -12.4094 82.6726 -12.7272 82.9904C-14.3604 84.6147 -16.2472 85.9325 -18.2601 87.0448C-20.0935 88.0584 -22.0105 88.9135 -23.8372 89.9383C-24.8911 90.5308 -25.9113 91.1791 -26.8551 91.9347L-27.0196 91.342C-25.5629 91.6819 -24.0911 91.9708 -22.5925 91.9642C-20.8516 91.9572 -19.165 91.5295 -17.5735 90.8654C-17.2632 90.7343 -16.9231 91.0214 -17.0896 91.3493C-17.8171 92.7935 -18.4461 94.3097 -18.7031 95.9242C-18.9325 97.3677 -18.7794 98.8186 -18.3155 100.209L-18.9081 100.045C-16.245 96.6874 -14.7196 92.5231 -11.712 89.4349C-10.7632 88.4592 -9.69333 87.6133 -8.55604 86.8658C-8.17988 86.6196 -7.82844 87.2359 -8.20459 87.4821L-8.20235 87.4843Z" fill="#313C6C"/>
<path d="M-9.9892 86.0992C-11.8541 87.9641 -13.6339 89.9231 -14.9687 92.2166C-16.3868 94.6563 -17.4988 97.3139 -18.56 99.9253C-18.6888 100.238 -19.1466 99.9698 -19.0222 99.6617C-17.9436 97.006 -16.8142 94.2996 -15.3584 91.8313C-14.0124 89.5489 -12.2282 87.59 -10.3655 85.7228C-10.1272 85.4845 -9.75085 85.8608 -9.9892 86.0992Z" fill="#313C6C"/>
<path d="M-11.5514 84.7224C-15.2898 87.0091 -18.7745 89.9204 -23.0338 91.2316C-24.194 91.5899 -25.3953 91.801 -26.6136 91.8231C-26.9537 91.8317 -26.9576 91.3025 -26.6175 91.2939C-22.1868 91.2046 -18.3444 88.5584 -14.8133 86.2011C-13.8221 85.5415 -12.8332 84.8796 -11.8172 84.2579C-11.5295 84.0822 -11.2637 84.5422 -11.5537 84.7201L-11.5514 84.7224Z" fill="#313C6C"/>
<path d="M-11.2776 85.9673C-13.2951 87.6399 -14.9319 89.6933 -16.1285 92.0279C-17.3251 94.3625 -18.047 96.8496 -18.4949 99.4077C-18.5524 99.743 -19.0649 99.6013 -19.0073 99.2705C-18.0793 94.0011 -15.815 89.0397 -11.6517 85.5932C-11.3931 85.3795 -11.0146 85.7536 -11.2753 85.9695L-11.2776 85.9673Z" fill="#313C6C"/>
<path d="M-13.854 87.5268C-16.0067 88.6669 -17.9435 90.1378 -20.2339 91.0123C-22.0918 91.7189 -24.1729 92.3349 -26.1937 92.0752C-26.5275 92.0327 -26.5359 91.5035 -26.1976 91.546C-24.2169 91.7965 -22.1936 91.1934 -20.3733 90.4977C-18.1273 89.6406 -16.2261 88.1784 -14.1199 87.0623C-13.8231 86.9044 -13.5551 87.3667 -13.8563 87.5245L-13.854 87.5268Z" fill="#313C6C"/>
<path d="M-9.8567 87.472C-10.7648 88.2457 -11.6638 89.0372 -12.4845 89.9072C-13.3051 90.7771 -14.0245 91.8101 -14.6323 92.9017C-15.8522 95.0939 -16.9337 97.3671 -18.234 99.5141C-18.4097 99.8019 -18.8719 99.5383 -18.6962 99.2505C-17.3673 97.0614 -16.2706 94.7417 -15.0198 92.5097C-13.7691 90.2778 -12.1022 88.6916 -10.2352 87.0979C-9.98117 86.8797 -9.60262 87.2538 -9.8589 87.4742L-9.8567 87.472Z" fill="#313C6C"/>
<path d="M-15.4024 89.5052C-17.3816 91.8563 -18.3812 94.9616 -18.9638 97.9501C-19.028 98.2831 -19.5426 98.1436 -19.4762 97.8128C-18.8743 94.7289 -17.8196 91.555 -15.7788 89.1289C-15.5606 88.8704 -15.1864 89.2489 -15.4024 89.5052Z" fill="#313C6C"/>
<path d="M-16.905 90.1611C-19.0717 91.5168 -21.674 91.9955 -24.1726 92.3749C-24.5057 92.4258 -24.6474 91.9133 -24.3098 91.8625C-21.8556 91.4916 -19.2954 91.0327 -17.1664 89.7011C-16.8809 89.5231 -16.6151 89.9831 -16.9028 90.1633L-16.905 90.1611Z" fill="#313C6C"/>
<path d="M-12.7956 84.5463C-16.8123 87.3802 -21.207 89.6199 -25.6494 91.7147C-25.9529 91.8569 -26.221 91.3991 -25.913 91.2524C-21.4706 89.1577 -17.0759 86.918 -13.0592 84.0841C-12.785 83.8905 -12.5214 84.3527 -12.7956 84.5463Z" fill="#313C6C"/>
<path d="M35.2376 39.4566C35.2179 39.4987 35.1982 39.5408 35.1808 39.5851L35.2659 39.3745C35.2376 39.4477 35.2114 39.5187 35.183 39.5918C35.1328 39.7182 35.0851 39.869 35.0059 39.984C34.8585 40.1986 34.7658 40.2913 34.5512 40.4387C34.4915 40.4805 34.4205 40.5022 34.3518 40.5306C34.2742 40.5634 34.2011 40.5917 34.1189 40.6111L33.8946 40.6384C33.779 40.6419 33.6676 40.6189 33.5649 40.5648C33.487 40.5442 33.4222 40.5059 33.364 40.4476C33.2634 40.3824 33.1827 40.2973 33.1241 40.1857C33.0361 40.0139 32.957 39.8376 32.8867 39.657C32.8346 39.5254 32.8046 39.3762 32.808 39.2384C32.8095 39.1383 32.8198 39.0384 32.848 38.943C32.9133 38.7433 32.9748 38.646 33.107 38.4869C33.1996 38.3764 33.3302 38.2951 33.4452 38.2159C33.5514 38.1411 33.662 38.0708 33.7704 37.9938C33.87 37.9345 33.9765 37.8997 34.092 37.8961C34.2031 37.8747 34.3165 37.8778 34.4279 37.9142C34.6597 37.987 34.8431 38.1263 34.9736 38.3362C35.1154 38.5663 35.235 38.8095 35.3214 39.0637C35.3624 39.1885 35.3789 39.3242 35.391 39.4555C35.4008 39.5668 35.3839 39.6867 35.3535 39.7932C35.2472 40.1459 34.9715 40.444 34.6007 40.5191C34.3765 40.5641 34.1408 40.5579 33.9223 40.4851C33.7551 40.4283 33.5856 40.3559 33.4382 40.2614C33.3265 40.1894 33.2236 40.1086 33.1229 40.0256C33.0827 39.9942 33.0424 39.9583 33.0065 39.9225C32.9169 39.8329 32.8428 39.7278 32.7708 39.625C32.7034 39.5311 32.6648 39.413 32.624 39.306C32.6172 39.2903 32.6126 39.2725 32.608 39.2547C32.5919 39.1768 32.5801 39.0899 32.5751 39.0099C32.575 39.001 32.5749 38.9921 32.5749 38.9832C32.5749 38.9832 32.5748 38.9743 32.5748 38.9698C32.5766 38.9143 32.5912 38.7921 32.6019 38.7366C32.6041 38.7299 32.604 38.721 32.6062 38.7144C32.6084 38.7122 32.6084 38.7077 32.6083 38.7033C32.6257 38.6412 32.6672 38.5414 32.6957 38.486C32.7023 38.4794 32.7022 38.4705 32.7066 38.4617C32.7088 38.4594 32.7132 38.455 32.7154 38.4528C32.7484 38.4019 32.8233 38.3047 32.863 38.2605C32.8696 38.2539 32.8762 38.2472 32.8828 38.2406C32.9159 38.2075 32.9646 38.1768 32.9978 38.1525C33.0332 38.1261 33.0751 38.0886 33.1172 38.0645C33.2234 37.9986 33.3454 37.9572 33.4653 37.927C33.4986 37.9206 33.5319 37.9142 33.5652 37.9077C33.674 37.893 33.7873 37.8783 33.8984 37.8702C33.9984 37.8643 34.0941 37.8672 34.1942 37.8746C34.2542 37.8773 34.3143 37.8844 34.3766 37.8893C34.4922 37.8857 34.6035 37.9088 34.7062 37.9629C34.8199 37.9971 34.9182 38.0601 35.0011 38.1519C35.0907 38.237 35.1537 38.3353 35.1901 38.4468C35.2442 38.5495 35.2673 38.6608 35.2637 38.7764C35.2565 39.0031 35.1826 39.2383 35.0104 39.3971L34.8247 39.538C34.6918 39.6126 34.5454 39.6515 34.3897 39.6504C34.1983 39.6312 34.0048 39.6186 33.816 39.6417L34.0404 39.6144C33.9737 39.6228 33.9071 39.6357 33.8451 39.6619L34.0556 39.5768C34.0268 39.5877 33.998 39.603 33.9737 39.6228L34.1594 39.4819C34.1462 39.4952 34.133 39.5084 34.1197 39.5216L34.2606 39.3359C34.2606 39.3359 34.2452 39.3603 34.2387 39.3758L34.3238 39.1652C34.3238 39.1652 34.3129 39.194 34.3108 39.2096L34.3381 38.9852C34.3381 38.9852 34.3361 39.0185 34.3407 39.0364L34.3101 38.8116C34.3125 38.836 34.3194 38.8605 34.3307 38.8851L34.2424 38.6732C34.2605 38.7178 34.2875 38.758 34.3166 38.796L34.1729 38.6082C34.2336 38.6865 34.3075 38.7559 34.3857 38.8166L34.1979 38.6729C34.2963 38.7492 34.4057 38.8145 34.5195 38.862L34.3076 38.7737C34.3678 38.7986 34.428 38.8191 34.4925 38.8263L34.2677 38.7957C34.2989 38.8004 34.3278 38.8028 34.3589 38.7986L34.1345 38.8258C34.1345 38.8258 34.1723 38.8194 34.1878 38.8129L33.9772 38.898C33.9772 38.898 34.0038 38.8849 34.0149 38.8783L33.8291 39.0192C33.8291 39.0192 33.8468 39.0015 33.8556 38.9927L33.7147 39.1784C33.7147 39.1784 33.7279 39.1563 33.7345 39.1452L33.6493 39.3558C33.6559 39.3403 33.6602 39.3226 33.6623 39.3026L33.635 39.5269C33.6393 39.4958 33.639 39.4647 33.6343 39.4335L33.6649 39.6583C33.6554 39.5782 33.6259 39.5002 33.5965 39.4266L33.6848 39.6385C33.6236 39.489 33.5425 39.3461 33.457 39.2076L34.6602 39.5457C34.5363 39.6337 34.408 39.7128 34.2863 39.803L34.4721 39.6621C34.4345 39.6907 34.3991 39.7216 34.3661 39.7592L34.507 39.5734C34.4915 39.5889 34.4828 39.6111 34.474 39.6288L34.5592 39.4182C34.5592 39.4182 34.5505 39.4493 34.5484 39.4648L34.5756 39.2404C34.5736 39.2604 34.5737 39.2827 34.5761 39.3027L34.5455 39.0779C34.5527 39.138 34.5753 39.196 34.598 39.2539L34.5097 39.0421C34.5527 39.1424 34.6023 39.2406 34.652 39.3388L33.6594 38.9157C33.7038 38.9071 33.7437 38.8941 33.7859 38.8788L33.5753 38.9639C33.6152 38.9465 33.6528 38.9267 33.6882 38.9003L33.5025 39.0412C33.5334 39.0148 33.5599 38.9883 33.5863 38.9574L33.4454 39.1431C33.4961 39.079 33.5289 39.0058 33.5595 38.9305L33.4743 39.1411C33.5485 38.9549 33.6094 38.7641 33.6992 38.5847C33.754 38.4761 33.8334 38.3922 33.9352 38.3263C34.0213 38.2491 34.1232 38.1965 34.2386 38.1707C34.3518 38.1382 34.4629 38.1345 34.5743 38.1576C34.6899 38.1629 34.7969 38.1993 34.8974 38.2601C35.094 38.386 35.2666 38.5719 35.3195 38.8057L35.3501 39.0305C35.3512 39.1862 35.3145 39.3304 35.2377 39.4655L35.2376 39.4566Z" fill="#313C6C"/>
<path d="M18.0831 54.3083C18.0571 54.4015 18.0289 54.4924 17.9962 54.5833C17.9417 54.723 17.8916 54.8671 17.8214 55C17.7601 55.1196 17.6719 55.2257 17.5904 55.3296C17.5133 55.4246 17.4116 55.495 17.312 55.5632C17.2235 55.6248 17.1149 55.6663 17.0128 55.6922C17.0062 55.6944 16.9995 55.6965 16.9906 55.6965C16.924 55.7093 16.8285 55.7197 16.7596 55.7259C16.7596 55.7259 16.7529 55.728 16.7485 55.728C16.7396 55.7279 16.7351 55.7279 16.7262 55.7278C16.7262 55.7278 16.7196 55.7256 16.7174 55.7278C16.6573 55.7251 16.5438 55.7087 16.4859 55.6949C16.4703 55.6926 16.4569 55.688 16.4435 55.6835C16.3677 55.6562 16.2875 55.6245 16.216 55.5884C16.2116 55.5839 16.2026 55.5794 16.1959 55.5771C16.1893 55.5749 16.1847 55.5659 16.1781 55.5637C16.1088 55.5165 16.0372 55.4626 15.9723 55.4065C15.9611 55.3953 15.9499 55.3841 15.9387 55.3729C15.7772 55.1849 15.6827 55.0286 15.6098 54.7879C15.5756 54.6787 15.568 54.5608 15.5561 54.4518C15.5491 54.4095 15.5488 54.3694 15.5485 54.325C15.5522 54.2316 15.5671 54.1361 15.5797 54.0428C15.5818 54.0228 15.5861 54.0006 15.5904 53.9784C15.6162 53.863 15.6687 53.7522 15.7147 53.6481C15.7606 53.5439 15.8532 53.4379 15.9193 53.3539C15.9457 53.3185 15.9788 53.2898 16.0142 53.259C16.1136 53.1819 16.2086 53.0959 16.3261 53.0456C16.4435 52.9953 16.5632 52.9384 16.6898 52.9194C16.8253 52.9004 16.9652 52.8769 17.1053 52.8847C17.1431 52.8872 17.1809 52.8897 17.2165 52.8944C17.3278 52.9085 17.4413 52.9205 17.5527 52.9436C17.5972 52.9528 17.6395 52.9642 17.6863 52.9757C17.84 53.0191 17.974 53.0957 18.086 53.2077C18.1756 53.2928 18.2386 53.3911 18.275 53.5026C18.3291 53.6053 18.3522 53.7166 18.3486 53.8322C18.3498 53.9878 18.313 54.1321 18.2362 54.2672C18.1705 54.3956 18.098 54.5174 18.0211 54.6391C17.9573 54.7387 17.8958 54.8361 17.8522 54.9469L17.9373 54.7363C17.9286 54.7585 17.9221 54.7784 17.9133 54.8006C17.8875 54.916 17.8372 55.0202 17.7577 55.1041C17.694 55.2036 17.6101 55.2831 17.4993 55.34C17.3997 55.3993 17.2933 55.4341 17.1777 55.4377C17.0667 55.4591 16.9532 55.456 16.8418 55.4196L16.6299 55.3313C16.4892 55.248 16.3794 55.1383 16.2961 54.9976L16.2078 54.7857C16.1689 54.6364 16.1656 54.4874 16.2045 54.341C16.2698 54.1458 16.3507 53.9663 16.4606 53.7937C16.5441 53.6609 16.6276 53.5281 16.6977 53.3863L17.2498 54.6756C17.1696 54.6528 17.0872 54.6366 17.0049 54.6249L17.2297 54.6554C17.1384 54.6436 17.045 54.6385 16.9517 54.6511L17.1761 54.6239C17.1139 54.6323 17.0562 54.6453 16.9963 54.6693L17.2069 54.5841C17.1626 54.6016 17.1205 54.6257 17.0807 54.6566L17.2664 54.5156C17.2288 54.5443 17.1957 54.5774 17.1693 54.6127L17.3102 54.427C17.2816 54.4646 17.2553 54.5089 17.2378 54.5532L17.3229 54.3426C17.3033 54.3936 17.2904 54.4469 17.2841 54.5024L17.3113 54.2781C17.3029 54.3403 17.3034 54.4025 17.3127 54.4648L17.2822 54.24C17.2915 54.2979 17.303 54.3536 17.3256 54.4071L17.2374 54.1952C17.2554 54.2354 17.2757 54.2733 17.3027 54.3091L17.159 54.1213C17.1769 54.1437 17.1971 54.1638 17.2195 54.1818L17.0316 54.0381C17.0451 54.0515 17.0651 54.0583 17.083 54.0674L16.8711 53.9791C16.8711 53.9791 16.9001 53.9904 16.9179 53.9905L16.6931 53.96C16.6931 53.96 16.7264 53.9624 16.742 53.9603L16.5176 53.9876C16.5176 53.9876 16.5509 53.9811 16.5664 53.9746L16.3559 54.0597C16.3802 54.0488 16.4024 54.0356 16.4223 54.0202L16.2365 54.1611C16.2741 54.1325 16.305 54.0971 16.3337 54.064L16.1927 54.2497C16.261 54.1591 16.3091 54.0572 16.3506 53.953L16.2655 54.1636C16.3069 54.0594 16.3417 53.9529 16.372 53.8419C16.3978 53.7265 16.4482 53.6224 16.5276 53.5385C16.5914 53.4389 16.6753 53.3595 16.786 53.3025C16.8856 53.2432 16.9921 53.2084 17.1077 53.2048C17.2187 53.1834 17.3321 53.1865 17.4436 53.2229L17.6554 53.3112C17.7961 53.3945 17.9059 53.5043 17.9892 53.645L18.0775 53.8569C18.1164 54.0061 18.1198 54.1551 18.0808 54.3016L18.0831 54.3083Z" fill="#313C6C"/>
<path d="M31.4184 42.2319C31.4112 42.4587 31.3907 42.6942 31.3256 42.9116C31.2909 43.027 31.2473 43.1423 31.1925 43.2508C31.1444 43.3527 31.0717 43.4433 31.0011 43.5273C30.9108 43.64 30.7893 43.7392 30.6541 43.7982C30.5676 43.8354 30.4812 43.877 30.3879 43.8896C30.208 43.9172 30.1302 43.9144 29.9521 43.8864C29.6404 43.8351 29.3474 43.5995 29.1964 43.3293C29.1018 43.1596 29.0537 42.9747 29.0479 42.7835C29.0449 42.6879 29.0597 42.5879 29.079 42.4924C29.1005 42.3948 29.1443 42.2973 29.1881 42.2042C29.2384 42.1001 29.3156 42.0095 29.3861 41.9211C29.4323 41.8658 29.4853 41.8129 29.5428 41.7688C29.6555 41.6785 29.7683 41.5926 29.8967 41.5224C30.0362 41.4457 30.187 41.389 30.3333 41.3322L30.5021 41.3113C30.5888 41.3097 30.6735 41.3281 30.7494 41.3687C30.8051 41.3847 30.8564 41.414 30.899 41.4565C30.975 41.506 31.0355 41.5709 31.0783 41.6535C31.2654 41.9907 31.4149 42.3564 31.331 42.7404C31.3202 42.7826 31.3027 42.8225 31.2852 42.8624C31.2677 42.9023 31.2547 42.9467 31.2328 42.9821C31.1976 43.0441 31.1492 43.1015 31.1029 43.1568C31.0896 43.17 31.0786 43.181 31.0654 43.1943C30.9682 43.2914 30.851 43.3683 30.7336 43.4364C30.6318 43.4979 30.5278 43.5571 30.426 43.6231C30.2932 43.711 30.0821 43.725 29.9306 43.6839C29.7724 43.6405 29.5981 43.5191 29.5213 43.3673C29.4446 43.2156 29.4033 43.0374 29.4532 42.871L29.5165 42.7136C29.5757 42.6095 29.6574 42.5279 29.7637 42.4664C29.9097 42.3697 30.0692 42.2953 30.2085 42.1873L30.067 42.293C30.1024 42.2666 30.1333 42.2357 30.1597 42.2003L30.054 42.3418C30.0716 42.3197 30.0826 42.2954 30.0935 42.271L30.0302 42.4284C30.0411 42.404 30.0454 42.3773 30.0474 42.3529L30.0264 42.5217C30.0307 42.4906 30.0282 42.4573 30.0235 42.4261L30.047 42.5953C30.0375 42.5196 30.0103 42.4482 29.9831 42.3769L30.0488 42.5352C30.0126 42.4505 29.9697 42.3679 29.9246 42.2875L30.6696 42.6043C30.6696 42.6043 30.6453 42.6153 30.6319 42.6196L30.7893 42.5563C30.6364 42.6197 30.488 42.6919 30.3575 42.791L30.499 42.6853C30.4261 42.7404 30.3576 42.8043 30.3026 42.8773L30.4082 42.7358C30.3708 42.7867 30.3379 42.8376 30.316 42.8952L30.3794 42.7378C30.3619 42.7821 30.3511 42.8288 30.3448 42.8754L30.3658 42.7066C30.3594 42.7488 30.362 42.791 30.3667 42.8311L30.3432 42.6619C30.348 42.702 30.3594 42.7399 30.3752 42.7778L30.3095 42.6194C30.3254 42.6574 30.3457 42.6953 30.3704 42.7288L30.2626 42.5857C30.2873 42.6193 30.3187 42.6506 30.3545 42.6776L30.2113 42.5698C30.2449 42.5945 30.2806 42.617 30.3208 42.6351L30.1624 42.5694C30.1981 42.583 30.2337 42.5922 30.2694 42.5969L30.1002 42.5734C30.1358 42.5781 30.1669 42.5784 30.2025 42.5742L30.0337 42.5952C30.0692 42.591 30.1047 42.5823 30.1357 42.5692L29.9784 42.6325C30.016 42.6173 30.0492 42.5975 30.0824 42.5733L29.9409 42.679C29.9829 42.6459 30.0182 42.6106 30.0513 42.5686L29.9456 42.7101C29.9918 42.6504 30.0269 42.5795 30.0575 42.5086L29.9942 42.666C30.0444 42.5396 30.0723 42.4042 30.0891 42.2709L30.0681 42.4398C30.0764 42.3642 30.0825 42.2865 30.0864 42.2109C30.094 42.0375 30.1505 41.869 30.2741 41.7454C30.3889 41.6306 30.5751 41.5475 30.7397 41.5576C30.9043 41.5677 31.0892 41.6247 31.208 41.7523C31.3268 41.8799 31.4126 42.0451 31.4027 42.2207L31.4184 42.2319Z" fill="#313C6C"/>
<path d="M13.7547 58.8697C13.7033 59.145 13.6319 59.4091 13.5137 59.6617C13.4612 59.7725 13.3886 59.872 13.3114 59.9626C13.2078 60.0841 13.0661 60.1586 12.9152 60.2064C12.7866 60.2499 12.6176 60.2442 12.4839 60.2076C12.3279 60.162 12.2118 60.09 12.0931 59.9802C12.0148 59.9107 11.9563 59.8213 11.9001 59.7341C11.8416 59.6403 11.8007 59.5333 11.7622 59.433C11.7169 59.317 11.6848 59.1967 11.6661 59.072C11.6497 58.9541 11.631 58.8383 11.6279 58.7205C11.6248 58.6026 11.6418 58.4915 11.6587 58.3805C11.6928 58.1717 11.798 57.968 11.9414 57.8156C12.1201 57.628 12.4038 57.5144 12.6642 57.5408C12.7465 57.5481 12.8399 57.5577 12.9224 57.5828C13.0093 57.6079 13.0963 57.6463 13.1788 57.6848C13.2658 57.7232 13.3463 57.7727 13.4245 57.8244C13.5206 57.8896 13.61 57.9615 13.7017 58.0355C13.9634 58.2442 13.9547 58.5666 13.9035 58.8552C13.8971 58.893 13.8863 58.9307 13.8732 58.9662C13.8405 59.0527 13.81 59.1414 13.7662 59.2211C13.7026 59.3385 13.6144 59.4445 13.5262 59.5461C13.4667 59.6146 13.4027 59.6786 13.3387 59.7426C13.2195 59.8618 13.0444 59.9339 12.8732 59.9304C12.7865 59.932 12.7018 59.9135 12.6259 59.873C12.5412 59.8456 12.4675 59.7984 12.4048 59.7312C12.2882 59.6059 12.2002 59.4384 12.2101 59.2629C12.2199 59.0873 12.2742 58.9209 12.3978 58.7973C12.4839 58.7113 12.5722 58.623 12.647 58.5257L12.5414 58.6672C12.5854 58.6097 12.6227 58.5455 12.6511 58.4813L12.5878 58.6387C12.6096 58.581 12.6248 58.5211 12.631 58.4611L12.61 58.6299C12.6142 58.5944 12.6161 58.5566 12.6159 58.521L12.8106 58.9894C12.7837 58.967 12.7591 58.9468 12.7301 58.9265L12.8732 59.0343C12.7636 58.9513 12.6474 58.8748 12.5203 58.8183L12.6786 58.8839C12.6273 58.8635 12.5738 58.8453 12.5159 58.836L12.6851 58.8595C12.6539 58.8548 12.6184 58.8546 12.5873 58.8588L12.7561 58.8378C12.7294 58.842 12.705 58.8485 12.6829 58.8573L12.8402 58.794C12.8181 58.8027 12.7959 58.8159 12.7783 58.8291L12.9198 58.7234C12.8977 58.741 12.8822 58.7609 12.8624 58.7808L12.9681 58.6393C12.9461 58.6702 12.9285 58.7012 12.9154 58.7367L12.9787 58.5793C12.9569 58.637 12.944 58.6947 12.9378 58.7547L12.9588 58.5858C12.9484 58.6903 12.9492 58.797 12.9656 58.9016L12.9421 58.7325C12.9586 58.8593 12.9906 58.9841 13.0404 59.1001L12.9748 58.9417C13.0019 59.0086 13.0358 59.0733 13.0807 59.1315L12.9729 58.9884C12.9953 59.0152 13.0177 59.0421 13.0446 59.0601L12.9015 58.9523C12.9149 58.9657 12.9328 58.9747 12.9528 58.9816L12.7945 58.9159C12.7945 58.9159 12.8212 58.925 12.8368 58.9273L12.6676 58.9038C12.6676 58.9038 12.6921 58.9063 12.7032 58.9041L12.5344 58.9251C12.5344 58.9251 12.561 58.9208 12.5721 58.9143L12.4147 58.9776C12.4302 58.971 12.448 58.9622 12.4634 58.9512L12.3219 59.0569C12.3462 59.0371 12.3661 59.0128 12.3881 58.9907L12.2825 59.1322C12.3287 59.0725 12.3615 58.9994 12.3899 58.9307L12.3266 59.0881C12.3986 58.9041 12.4416 58.7087 12.4757 58.5133C12.4951 58.4267 12.5323 58.3492 12.5919 58.2852C12.6402 58.2099 12.7043 58.1504 12.7862 58.1087C12.8593 58.0626 12.9414 58.0387 13.0281 58.0372C13.1124 58.02 13.1947 58.0228 13.2794 58.0501C13.4466 58.1025 13.6074 58.206 13.6886 58.3667L13.7543 58.5251C13.7841 58.6387 13.7849 58.7498 13.7568 58.8586L13.7547 58.8697Z" fill="#313C6C"/>
<path d="M23.9988 48.8137C23.9988 48.8137 23.9899 48.8136 23.9877 48.8158L24.1565 48.7949C24.1565 48.7949 24.1454 48.797 24.141 48.797L24.2984 48.7337C24.2984 48.7337 24.2895 48.738 24.2851 48.7425L24.4266 48.6368C24.4266 48.6368 24.4156 48.6478 24.4112 48.6522L24.5168 48.5107C24.5168 48.5107 24.5015 48.5351 24.4971 48.5484L24.5604 48.391C24.519 48.4996 24.4977 48.6195 24.4295 48.7191C24.3437 48.8452 24.2908 48.9115 24.158 48.9905C24.0982 49.0279 24.0317 49.0541 23.9607 49.0713C23.8187 49.1058 23.6452 49.1046 23.507 49.0502C23.4267 49.0184 23.342 48.9867 23.2661 48.9461C23.2482 48.9371 23.2348 48.9281 23.2169 48.919C23.1008 48.847 22.9934 48.7617 22.9258 48.6412C22.847 48.505 22.8303 48.3514 22.8403 48.1981C22.8463 48.1069 22.8567 48.0114 22.876 47.9204C22.8975 47.8183 22.9345 47.7141 22.9939 47.6278C23.0907 47.4862 23.1304 47.4465 23.272 47.3497C23.3295 47.3101 23.4093 47.284 23.4692 47.2645C23.6689 47.2037 23.856 47.2495 24.0563 47.2777L23.8872 47.2542C23.9295 47.2612 23.9717 47.2637 24.0162 47.2596L23.8473 47.2806C23.8473 47.2806 23.8851 47.2742 23.9006 47.2677C23.9827 47.2438 24.0671 47.24 24.1518 47.2584C24.2385 47.2613 24.3188 47.2886 24.3947 47.3336C24.4773 47.3765 24.5422 47.437 24.5917 47.5129C24.6522 47.5779 24.6906 47.656 24.7112 47.7428C24.748 47.9077 24.7405 48.0899 24.6505 48.2382L24.5448 48.3797C24.4609 48.4636 24.3613 48.5184 24.2459 48.5487C24.0396 48.6117 23.8369 48.5679 23.6299 48.5375L23.799 48.561C23.7634 48.5562 23.7234 48.5515 23.6878 48.5557L23.8567 48.5347C23.8567 48.5347 23.8256 48.5389 23.8101 48.5455L23.9674 48.4822C23.9674 48.4822 23.9431 48.4931 23.9298 48.5019L24.0713 48.3962C24.0713 48.3962 24.0492 48.4183 24.0382 48.4293L24.1439 48.2878C24.1307 48.3055 24.1197 48.3254 24.111 48.3476L24.1743 48.1902C24.159 48.2323 24.1505 48.2767 24.1441 48.3234L24.1651 48.1546C24.1589 48.2101 24.1571 48.2657 24.1575 48.3235L23.8197 47.7473C23.8711 47.7811 23.9247 47.8126 23.9804 47.8375L23.8221 47.7718C23.8466 47.7831 23.8734 47.7922 23.9023 47.7946L23.7331 47.7711C23.7331 47.7711 23.7621 47.7736 23.7754 47.7737L23.6066 47.7947C23.6066 47.7947 23.6266 47.7926 23.6354 47.7882L23.478 47.8515C23.478 47.8515 23.4958 47.8427 23.5002 47.8383L23.3587 47.944C23.3587 47.944 23.3741 47.9286 23.3807 47.9219L23.2751 48.0634C23.2883 48.0502 23.2948 48.0302 23.3014 48.0147L23.2381 48.1721C23.2468 48.15 23.2533 48.1255 23.2598 48.1056C23.2815 48.0301 23.3098 47.957 23.3449 47.8861C23.3493 47.8772 23.3537 47.8684 23.358 47.8595C23.3822 47.8219 23.4372 47.7445 23.4703 47.7114C23.4747 47.707 23.477 47.7048 23.4814 47.7003C23.4924 47.6893 23.6096 47.599 23.6251 47.5925C23.6251 47.5925 23.6273 47.5903 23.6295 47.588C23.6317 47.5858 23.6317 47.5858 23.6339 47.5836C23.6516 47.5749 23.778 47.5247 23.7958 47.5204C23.798 47.5181 23.8046 47.516 23.8091 47.516C23.8202 47.5139 23.969 47.495 23.9779 47.495C23.9779 47.495 23.9823 47.4951 23.9868 47.4951C24.0735 47.4935 24.1581 47.5119 24.234 47.5525C24.3187 47.5798 24.3924 47.6271 24.4552 47.6942C24.5224 47.757 24.5696 47.8307 24.5969 47.9154C24.6375 47.9913 24.6559 48.076 24.6543 48.1627C24.6489 48.3338 24.5925 48.5113 24.4666 48.6282L24.3251 48.7339C24.2232 48.7909 24.1167 48.8168 23.9989 48.8181L23.9988 48.8137Z" fill="#313C6C"/>
<path d="M6.99896 65.6254C6.95463 65.943 6.89466 66.2494 6.75005 66.5374C6.58572 66.863 6.28306 67.1253 5.95061 67.2696C5.84876 67.3267 5.74223 67.3525 5.62439 67.3539C5.53769 67.3555 5.45307 67.337 5.37717 67.2965C5.19875 67.224 5.01295 67.0558 4.98254 66.8533C4.93569 66.5328 4.86636 66.1809 4.97743 65.8683C5.04927 65.662 5.1503 65.4938 5.30476 65.3348C5.44597 65.1891 5.61628 65.0681 5.77996 64.9537C5.96575 64.8217 6.24173 64.8593 6.43369 64.9586C6.72164 65.1097 6.93505 65.4026 6.92419 65.736C6.9205 65.8382 6.90558 65.9248 6.8707 66.018C6.85328 66.0668 6.83585 66.1156 6.82735 66.1688L6.84833 66C6.84626 66.02 6.84642 66.0423 6.8488 66.0623L6.82531 65.8931C6.82531 65.8931 6.83225 65.931 6.83904 65.9466C6.88688 66.1004 6.85503 66.3025 6.77825 66.442C6.70147 66.5815 6.53795 66.7181 6.37367 66.7525C6.01181 66.8276 5.67461 66.6316 5.56523 66.2751C5.51284 66.1079 5.5158 65.9078 5.56794 65.7437C5.58526 65.6816 5.61817 65.6218 5.62881 65.5574L5.60783 65.7262C5.60783 65.7262 5.60764 65.6995 5.60754 65.6862L5.63103 65.8553C5.63103 65.8553 5.62638 65.8286 5.61963 65.8174L5.68529 65.9758C5.68529 65.9758 5.67402 65.9557 5.66951 65.9468L5.7773 66.0899C5.76162 66.0742 5.74594 66.0585 5.73026 66.0428L5.87336 66.1506C5.85099 66.1327 5.82421 66.1191 5.79743 66.1056L6.45116 66.1105C6.41578 66.1369 6.3804 66.1633 6.34502 66.1897L6.48653 66.084C6.37598 66.1677 6.26992 66.2559 6.18625 66.3664L6.29192 66.2249C6.26112 66.2691 6.23477 66.3134 6.2129 66.3622L6.27621 66.2048C6.25654 66.2513 6.2458 66.3024 6.23727 66.3512L6.25826 66.1824C6.24363 66.309 6.26018 66.4403 6.27668 66.5672L6.25319 66.398C6.26017 66.4403 6.26716 66.4826 6.2697 66.5249L5.30165 66.113C5.4014 66.0715 5.49439 66.0188 5.58284 65.9528L5.44132 66.0585C5.50763 66.0056 5.57167 65.946 5.6223 65.8775L5.51663 66.019C5.56946 65.9483 5.61113 65.8707 5.64608 65.7865L5.58277 65.9439C5.66568 65.7311 5.69733 65.5023 5.72901 65.278C5.75005 65.118 5.90665 64.948 6.03951 64.8734C6.17236 64.7988 6.37887 64.7625 6.53488 64.8126C6.70203 64.865 6.86289 64.9684 6.94413 65.1291L7.00979 65.2875C7.03954 65.4011 7.04037 65.5123 7.01227 65.621L6.99896 65.6254Z" fill="#313C6C"/>
<path d="M21.0189 51.4396C21.0189 51.4396 21.0145 51.4441 21.0123 51.4463L21.1026 51.3246C21.1026 51.3246 21.096 51.3357 21.0916 51.3446L21.1462 51.2093C21.1462 51.2093 21.1397 51.2338 21.1376 51.2449L21.1565 51.1005C21.1523 51.136 21.1548 51.1738 21.1551 51.2094C21.1533 51.2739 21.1449 51.3405 21.1343 51.4005C21.1321 51.4071 21.1322 51.416 21.13 51.4227C21.1278 51.4249 21.1278 51.4293 21.1256 51.436L21.0711 51.5712C21.0711 51.5712 21.0688 51.5734 21.0666 51.5756C21.0403 51.6243 21.0007 51.673 20.9654 51.7127C20.9632 51.7149 20.961 51.7171 20.9588 51.7193C20.9455 51.7326 20.8505 51.8053 20.8327 51.814C20.7287 51.8733 20.6354 51.8948 20.5154 51.8984C20.362 51.9039 20.217 51.8428 20.0831 51.7751C19.9916 51.7233 19.9177 51.6493 19.8658 51.5578C19.8163 51.4685 19.7889 51.3749 19.7904 51.2749C19.79 51.2259 19.7896 51.1726 19.7892 51.1236C19.7889 51.0747 19.7952 51.0236 19.8015 50.9725C19.8078 50.9259 19.8119 50.8815 19.8227 50.8348C19.8313 50.7993 19.8377 50.766 19.8463 50.7305C19.8528 50.7017 19.8593 50.6728 19.8635 50.6462C19.8678 50.6284 19.8721 50.6106 19.8742 50.5907C19.8741 50.5818 19.8785 50.5729 19.8785 50.564C19.8806 50.5573 19.8806 50.5529 19.8828 50.5462L19.9374 50.411L20.0276 50.2894C20.0408 50.2762 20.1381 50.2013 20.1536 50.1947C20.1581 50.1903 20.1625 50.1904 20.1692 50.1882C20.1957 50.175 20.2268 50.1664 20.2534 50.1532C20.2889 50.1402 20.3265 50.1204 20.3665 50.1118C20.402 50.1032 20.4375 50.099 20.4709 50.097C20.5042 50.0951 20.5419 50.0842 20.5753 50.0867C20.6242 50.0915 20.6799 50.0986 20.7289 50.1079C20.7311 50.1101 20.7378 50.1079 20.7422 50.1124C20.7445 50.1146 20.7489 50.1147 20.7556 50.117C20.7757 50.1238 20.8783 50.1646 20.8961 50.1736C20.8961 50.1736 20.8984 50.1758 20.9006 50.1781C20.9028 50.1803 20.9073 50.1848 20.9096 50.187C20.9319 50.2005 20.9945 50.2499 20.9722 50.2364C20.9722 50.2364 21.0191 50.2701 21.037 50.288C21.0438 50.2947 21.0482 50.2992 21.055 50.3059C21.0706 50.3216 21.138 50.4111 21.1493 50.4312C21.1493 50.4312 21.1515 50.4334 21.1538 50.4356C21.156 50.4379 21.1582 50.4401 21.1605 50.4424C21.1875 50.4915 21.208 50.5472 21.2261 50.6007C21.2329 50.6163 21.2375 50.6342 21.2376 50.6519C21.2516 50.7365 21.2656 50.8211 21.2595 50.9034C21.2533 50.9678 21.2472 51.0367 21.2343 51.0988C21.2171 51.1743 21.1842 51.2385 21.1335 51.2982C21.0917 51.3624 21.0365 51.4131 20.9657 51.4526C20.8993 51.4921 20.8327 51.5139 20.7549 51.5155C20.6816 51.5305 20.6105 51.5255 20.5369 51.505L20.4009 51.4484C20.3093 51.3966 20.2354 51.3226 20.1836 51.2311L20.127 51.095C20.1018 50.9992 20.1011 50.9014 20.1248 50.806C20.127 50.7949 20.1269 50.786 20.1291 50.7793L20.1101 50.9237C20.1143 50.8837 20.1162 50.8415 20.1092 50.7992L20.1303 50.9439C20.1279 50.9238 20.1233 50.9016 20.1143 50.8837L20.1709 51.0198C20.1709 51.0198 20.1596 50.9997 20.1529 50.9885L20.245 51.1115C20.245 51.1115 20.2293 51.0958 20.2226 51.0891L20.3455 51.1812C20.3455 51.1812 20.3321 51.1722 20.3232 51.1676L20.4592 51.2242C20.4592 51.2242 20.4414 51.2197 20.4347 51.2174L20.5794 51.2385C20.5794 51.2385 20.5527 51.2383 20.5394 51.2382L20.6838 51.2192C20.6571 51.2235 20.6327 51.23 20.6083 51.2409L20.7436 51.1863C20.7436 51.1863 20.7192 51.1973 20.7103 51.2017L20.979 50.8523C20.964 50.9345 20.9468 51.0144 20.9274 51.0965C20.9188 51.1321 20.9102 51.1676 20.906 51.2031L20.9249 51.0587C20.9166 51.1343 20.9194 51.2121 20.92 51.2877L20.6272 50.7875C20.6451 50.7965 20.6629 50.8055 20.683 50.8123L20.5469 50.7557C20.5692 50.7648 20.5937 50.7717 20.616 50.7763L20.4713 50.7552C20.4713 50.7552 20.4936 50.7554 20.5069 50.7555L20.3625 50.7744C20.3625 50.7744 20.3736 50.7722 20.3803 50.7701L20.245 50.8247C20.245 50.8247 20.2539 50.8203 20.2583 50.8159L20.1367 50.9061C20.1367 50.9061 20.1433 50.8995 20.1477 50.8951L20.0575 51.0167C20.0575 51.0167 20.0663 51.0079 20.0685 50.9968L20.0139 51.132C20.0139 51.132 20.0204 51.1076 20.0225 51.0965L20.0036 51.2409C20.0099 51.1987 20.0052 51.1586 20.0071 51.1164C20.011 51.0497 20.015 50.983 20.0301 50.9187C20.0625 50.8011 20.113 50.7103 20.1968 50.622C20.252 50.5668 20.3117 50.525 20.3872 50.5033C20.4536 50.4682 20.5247 50.4554 20.6025 50.4582C20.6781 50.4543 20.7494 50.4727 20.8186 50.5065C20.8921 50.5315 20.9569 50.5698 21.0107 50.628L21.1027 50.751C21.1523 50.8403 21.1797 50.9339 21.1782 51.0339L21.1593 51.1783C21.1333 51.276 21.0851 51.3645 21.0122 51.4374L21.0189 51.4396Z" fill="#313C6C"/>
<path d="M9.54948 62.9673C9.53209 63.0206 9.51029 63.0782 9.48397 63.1269C9.47735 63.1336 9.47521 63.1447 9.46859 63.1513C9.43779 63.1955 9.40478 63.242 9.36729 63.2839C9.36288 63.2883 9.35847 63.2928 9.35405 63.2972C9.30991 63.3413 9.2524 63.3809 9.2015 63.4139C9.16833 63.4381 9.13061 63.4489 9.09293 63.4642C9.05304 63.4817 9.01535 63.497 8.97094 63.5056C8.91544 63.5163 8.85769 63.5247 8.80212 63.5265C8.78878 63.5264 8.77767 63.5286 8.76654 63.5263C8.69091 63.5213 8.61303 63.514 8.53947 63.489C8.45702 63.4639 8.3767 63.4278 8.30084 63.3916L8.17786 63.2995C8.12186 63.2435 8.07916 63.1832 8.05637 63.1074C8.03159 63.065 8.01789 63.016 8.01752 62.967C8.00141 62.8936 8.00533 62.8224 8.0248 62.7492C8.03781 62.7048 8.05303 62.6583 8.06159 62.6138C8.06584 62.5872 8.07008 62.5605 8.07654 62.5317C8.08296 62.4984 8.09383 62.4651 8.10694 62.4341C8.14838 62.3254 8.1943 62.2213 8.24466 62.1172C8.29512 62.0264 8.36795 61.9535 8.45874 61.9031C8.54732 61.8548 8.64051 61.8288 8.74059 61.8318C8.88734 61.8329 9.03433 61.8651 9.16162 61.9394C9.2755 62.0048 9.38524 62.1101 9.44836 62.2262C9.48446 62.2976 9.5184 62.3757 9.53678 62.4558C9.54367 62.4848 9.54835 62.516 9.55968 62.545L9.50308 62.4089C9.50308 62.4089 9.51211 62.4268 9.51883 62.4335L9.42675 62.3105C9.42675 62.3105 9.43571 62.3195 9.44019 62.3239L9.31721 62.2319C9.31721 62.2319 9.32394 62.2386 9.33062 62.2409L9.19457 62.1843C9.19457 62.1843 9.20795 62.1888 9.21463 62.1911L9.06995 62.17C9.06995 62.17 9.07885 62.1701 9.08329 62.1701C9.15886 62.1662 9.23015 62.1845 9.29933 62.2184C9.37289 62.2434 9.43766 62.2817 9.49145 62.3399C9.54745 62.3959 9.59015 62.4562 9.61295 62.532C9.64902 62.599 9.66289 62.6702 9.66124 62.748L9.64231 62.8924C9.61636 62.9901 9.5681 63.0786 9.49527 63.1515L9.37365 63.2417C9.28507 63.29 9.19188 63.316 9.0918 63.313C9.03175 63.3103 8.9739 63.3055 8.91596 63.2872C8.8647 63.2713 8.81344 63.2554 8.76653 63.2261C8.76653 63.2261 8.76205 63.2216 8.75981 63.2194C8.73747 63.2059 8.65472 63.1408 8.63235 63.1228C8.62787 63.1183 8.62564 63.1161 8.62115 63.1116C8.59651 63.087 8.54262 63.0154 8.5246 62.9842C8.5246 62.9842 8.52236 62.9819 8.52011 62.9797C8.49083 62.9283 8.4704 62.8726 8.45218 62.8146C8.43403 62.7656 8.43143 62.7144 8.41327 62.6654L8.46988 62.8014C8.46309 62.7858 8.45406 62.768 8.44507 62.7546L8.53714 62.8775C8.53714 62.8775 8.51698 62.8574 8.50578 62.8462L8.62876 62.9382C8.62876 62.9382 8.60418 62.9225 8.58857 62.9157L8.72462 62.9723C8.70456 62.9655 8.68449 62.9587 8.66002 62.9563L8.8047 62.9774C8.8047 62.9774 8.76909 62.9726 8.7513 62.9725L9.24723 62.6872C9.21874 62.7425 9.19248 62.8001 9.17068 62.8578L9.22526 62.7226C9.2056 62.7691 9.19262 62.8179 9.18409 62.8668C9.17566 62.929 9.15833 62.9911 9.13877 63.051L8.86269 62.4041C8.8783 62.4109 8.89616 62.42 8.91177 62.4267L8.77572 62.3701C8.81364 62.386 8.85153 62.3974 8.89158 62.4021L8.7469 62.381C8.77137 62.3834 8.79585 62.3859 8.82029 62.3838L8.67591 62.4027C8.69591 62.4007 8.71587 62.3942 8.73362 62.3898L8.5984 62.4444C8.61392 62.4379 8.63164 62.4291 8.64712 62.4181L8.5255 62.5084C8.53874 62.4951 8.55419 62.4797 8.56744 62.4664L8.47718 62.588C8.49042 62.5748 8.49918 62.5571 8.5035 62.5393L8.44892 62.6745C8.44892 62.6745 8.44892 62.6745 8.45113 62.6723C8.46835 62.5969 8.50122 62.5326 8.55192 62.473C8.59369 62.4088 8.6489 62.3581 8.71975 62.3186C8.78616 62.2791 8.8527 62.2573 8.93051 62.2557C9.00377 62.2406 9.07496 62.2456 9.14849 62.2662L9.28454 62.3228C9.37609 62.3746 9.45001 62.4485 9.50183 62.5401L9.55843 62.6761C9.5836 62.7719 9.58433 62.8698 9.56058 62.9652L9.54948 62.9673Z" fill="#313C6C"/>
<path d="M2.72732 69.7537C2.80796 69.8343 2.87547 69.9415 2.89853 70.0529C2.92851 70.1976 2.92225 70.2532 2.90331 70.3975C2.90127 70.422 2.89479 70.4464 2.88606 70.4686C2.85991 70.5395 2.83375 70.6105 2.79867 70.6769C2.76359 70.7434 2.70848 70.8074 2.66223 70.8671C2.64461 70.8892 2.62475 70.9091 2.60485 70.9245C2.54961 70.9708 2.49219 71.0237 2.42571 71.0543C2.30383 71.109 2.22178 71.1373 2.08615 71.1385L1.94147 71.1174C1.86574 71.0991 1.80101 71.0653 1.74059 71.0137C1.69592 70.9867 1.66008 70.9508 1.63306 70.9061C1.58151 70.8502 1.54544 70.7832 1.52929 70.7053C1.51783 70.6585 1.5086 70.6139 1.49048 70.5693L1.54708 70.7054C1.53575 70.6764 1.51997 70.6474 1.50201 70.625L1.59409 70.748C1.59409 70.748 1.57393 70.7278 1.56493 70.7144C1.53351 70.6742 1.49536 70.6272 1.46614 70.5847C1.46614 70.5847 1.46166 70.5802 1.45942 70.578L1.45494 70.5735C1.44815 70.5579 1.40289 70.4508 1.39831 70.433L1.39607 70.4308C1.39607 70.4308 1.39379 70.4241 1.396 70.4219C1.39142 70.4041 1.37501 70.2906 1.37488 70.2728C1.37488 70.2728 1.37264 70.2705 1.37485 70.2683C1.37485 70.2683 1.37478 70.2594 1.37699 70.2572C1.37883 70.2061 1.38733 70.1528 1.39582 70.0995C1.40007 70.0728 1.40656 70.0484 1.4175 70.0241C1.44576 69.9375 1.48515 69.8534 1.51786 69.7669C1.52876 69.7381 1.5419 69.7115 1.55281 69.6827C1.55936 69.6671 1.56591 69.6516 1.57247 69.6361C1.57688 69.6317 1.57686 69.6272 1.57903 69.6206L1.62527 69.5609C1.65163 69.5166 1.68694 69.4813 1.73121 69.455L1.7909 69.4087L1.92612 69.3541C1.92612 69.3541 1.93723 69.352 1.94388 69.3498C2.00828 69.3392 2.07272 69.333 2.13936 69.3246C2.15491 69.3225 2.17269 69.3226 2.19048 69.3228C2.20382 69.3229 2.21716 69.323 2.2283 69.3253C2.27949 69.3323 2.33289 69.3372 2.38632 69.3465C2.39301 69.3487 2.3997 69.351 2.40635 69.3488C2.40859 69.3511 2.41528 69.3533 2.41973 69.3534C2.46654 69.3693 2.52231 69.3942 2.56915 69.4145C2.57808 69.419 2.587 69.4235 2.59372 69.4303C2.63171 69.455 2.68761 69.4977 2.72342 69.5291C2.72566 69.5313 2.73014 69.5358 2.73238 69.538C2.73462 69.5403 2.7391 69.5447 2.74134 69.547C2.75926 69.5649 2.79296 69.6118 2.79072 69.6096C2.79744 69.6163 2.82663 69.6543 2.84014 69.6767C2.84686 69.6834 2.85137 69.6923 2.85365 69.699C2.87621 69.7436 2.89664 69.7994 2.91479 69.8484C2.91704 69.8507 2.91931 69.8574 2.91934 69.8618C2.92385 69.8707 2.92392 69.8796 2.92623 69.8908C2.93776 69.9464 2.94263 70.0043 2.94972 70.0599C2.95446 70.1 2.95252 70.1378 2.95947 70.1756L2.93839 70.0309C2.93839 70.0309 2.94303 70.0576 2.94982 70.0733L2.89322 69.9372C2.89322 69.9372 2.89777 69.9506 2.90449 69.9573L2.81241 69.8343L2.81689 69.8388C2.87289 69.8948 2.91559 69.9552 2.93839 70.0309C2.97446 70.0979 2.98833 70.1692 2.98668 70.247C2.99169 70.3226 2.97444 70.3936 2.9416 70.4623C2.91768 70.5355 2.88036 70.5997 2.82294 70.6526L2.70133 70.7429C2.61275 70.7911 2.51956 70.8171 2.41948 70.8142L2.2748 70.7931C2.17676 70.7657 2.08745 70.7161 2.01353 70.6422C1.92393 70.5526 1.88331 70.4722 1.84459 70.3496C1.82414 70.2895 1.8214 70.2205 1.81649 70.1582C1.81399 70.1204 1.81148 70.0826 1.80674 70.0425L1.82783 70.1872C1.82321 70.1649 1.8186 70.1427 1.81178 70.1226L1.86838 70.2587C1.86838 70.2587 1.85932 70.2364 1.85036 70.2274L1.94243 70.3504C1.94243 70.3504 1.92675 70.3347 1.91779 70.3257L2.04077 70.4178C2.04077 70.4178 2.01843 70.4043 2.0095 70.3998L2.14556 70.4564C2.14556 70.4564 2.11436 70.4472 2.09654 70.4427L2.24122 70.4638C2.20561 70.459 2.16783 70.461 2.13228 70.4652L2.27666 70.4462C2.27666 70.4462 2.24113 70.4504 2.22337 70.4547L2.57267 70.1861C2.54863 70.2415 2.52461 70.3013 2.50056 70.3567L2.55515 70.2215C2.5311 70.2769 2.50709 70.3368 2.49642 70.3967L2.51536 70.2523C2.51536 70.2523 2.51549 70.2701 2.51556 70.279L2.49447 70.1343C2.49447 70.1343 2.49678 70.1455 2.49905 70.1522L2.44245 70.0161C2.44245 70.0161 2.4492 70.0273 2.45372 70.0362L2.36163 69.9132C2.41326 69.9781 2.4693 70.0386 2.50985 70.11C2.54813 70.1748 2.57089 70.2461 2.59586 70.3152C2.60947 70.3509 2.61867 70.391 2.62786 70.4311L2.071 69.9978C2.071 69.9978 2.08209 69.9957 2.08878 69.9979L1.9444 70.0169C1.9444 70.0169 1.96881 70.0104 1.98212 70.006L1.84689 70.0606C1.86461 70.0518 1.88234 70.0431 1.90002 70.0299L1.77841 70.1201C1.80493 70.0981 1.8292 70.0738 1.85124 70.0473L1.76098 70.1689C1.7874 70.1335 1.80934 70.0937 1.82683 70.0538L1.77225 70.189C1.78315 70.1602 1.79182 70.1291 1.79603 70.098L1.7771 70.2424C1.7771 70.2424 1.7791 70.2135 1.77676 70.1979L1.79785 70.3426C1.79785 70.3426 1.79327 70.3248 1.791 70.3181L1.8476 70.4542C1.8476 70.4542 1.84084 70.443 1.83857 70.4363L1.93065 70.5593C1.93065 70.5593 1.92617 70.5548 1.92393 70.5526C1.86792 70.4966 1.82523 70.4362 1.80243 70.3604C1.76636 70.2935 1.75249 70.2222 1.75413 70.1444C1.74912 70.0688 1.76638 69.9977 1.79922 69.9291C1.82313 69.8559 1.86046 69.7917 1.91787 69.7387L2.03949 69.6485C2.12806 69.6002 2.22126 69.5742 2.32134 69.5772L2.46602 69.5983C2.56405 69.6257 2.65336 69.6753 2.72729 69.7492L2.72732 69.7537Z" fill="#313C6C"/>
<path d="M27.2762 45.832C27.2762 45.832 27.263 45.8452 27.2564 45.8519L27.3268 45.759C27.3136 45.7722 27.307 45.7877 27.3005 45.8077L27.342 45.7035C27.3354 45.7235 27.3289 45.7434 27.3269 45.7634L27.3394 45.6524C27.3374 45.6857 27.3377 45.7213 27.3379 45.7524C27.3406 45.8169 27.3344 45.8813 27.3238 45.9457C27.3067 46.039 27.2474 46.1431 27.1812 46.2048C27.1039 46.2776 27.0043 46.3369 26.8999 46.3517C26.8421 46.3602 26.7777 46.3708 26.7177 46.3681C26.5887 46.3672 26.4749 46.3107 26.3875 46.2189C26.3763 46.2077 26.3629 46.1943 26.3517 46.1831C26.3113 46.1383 26.2754 46.0891 26.2417 46.0422C26.2304 46.0265 26.2214 46.0087 26.2124 45.9908C26.192 45.9484 26.1694 45.8993 26.158 45.8526C26.1395 45.759 26.1346 45.6923 26.1561 45.5991C26.1776 45.5059 26.2325 45.4151 26.301 45.3511C26.3518 45.3048 26.4071 45.2674 26.4646 45.2323C26.4956 45.2147 26.5266 45.1972 26.5554 45.1729L26.4625 45.2434C26.4846 45.2258 26.5023 45.2081 26.5199 45.186L26.4494 45.2789C26.4626 45.2612 26.4714 45.2434 26.4801 45.2213L26.4387 45.3255C26.4387 45.3255 26.443 45.3166 26.443 45.3122C26.4559 45.2545 26.48 45.2035 26.5197 45.1593C26.5527 45.1084 26.5946 45.0709 26.65 45.0424C26.6987 45.0117 26.7542 44.9965 26.8119 44.9925C26.8674 44.9818 26.9231 44.9844 26.9788 45.0004C27.088 45.0346 27.1974 45.1043 27.2516 45.2115C27.3012 45.3097 27.3333 45.4344 27.2985 45.5409C27.2811 45.5897 27.2637 45.6429 27.2373 45.6872C27.211 45.7314 27.1757 45.7757 27.1427 45.8132C27.1008 45.864 27.0366 45.9058 26.9858 45.9432C26.9415 45.974 26.8906 45.9981 26.8463 46.0289L26.9392 45.9584C26.9392 45.9584 26.9193 45.9783 26.9105 45.9871L26.981 45.8943C26.981 45.8943 26.9699 45.9053 26.97 45.9142L27.0115 45.81C27.0115 45.81 27.0071 45.8233 27.0049 45.83L27.0175 45.7189C27.0175 45.7189 27.0176 45.7322 27.0198 45.7389L27.0057 45.6276C27.0057 45.6276 27.0103 45.6499 27.0148 45.6588L26.9718 45.554C26.9831 45.5786 26.9966 45.6009 27.0145 45.6233L26.9427 45.5293C26.9673 45.5584 26.992 45.5875 27.0189 45.6144L26.7066 45.4831C26.7066 45.4831 26.7467 45.4834 26.7644 45.4791L26.6533 45.4916C26.6733 45.4895 26.6955 45.4852 26.7133 45.4765L26.6091 45.518C26.6091 45.518 26.6268 45.5092 26.6357 45.5048L26.5428 45.5753C26.5428 45.5753 26.5538 45.5642 26.5605 45.5576L26.49 45.6505C26.49 45.6505 26.4988 45.6372 26.5032 45.6283L26.4617 45.7325C26.4617 45.7325 26.4704 45.7104 26.4703 45.697L26.4578 45.8081C26.4641 45.757 26.4548 45.7036 26.4567 45.6525C26.4585 45.6013 26.467 45.5525 26.4756 45.5036C26.4777 45.4881 26.482 45.4748 26.4864 45.4615C26.5234 45.3528 26.565 45.2753 26.6466 45.1892C26.6886 45.1472 26.735 45.1142 26.7927 45.0969C26.8437 45.0728 26.8969 45.0599 26.957 45.0625C27.017 45.0607 27.0705 45.0745 27.1218 45.0993C27.1797 45.1175 27.2289 45.149 27.2692 45.1938L27.3411 45.2877C27.3794 45.3569 27.3977 45.4282 27.4005 45.5061C27.3947 45.6239 27.3578 45.7325 27.2739 45.8164L27.2762 45.832Z" fill="#313C6C"/>
<path d="M-0.688334 73.8772C-0.768183 73.9033 -0.850273 73.9271 -0.932463 73.9376C-0.990209 73.9461 -1.05906 73.9567 -1.12132 73.9562C-1.16803 73.9537 -1.21477 73.9466 -1.25931 73.9374C-1.28603 73.9328 -1.31281 73.9192 -1.33735 73.9079C-1.36189 73.8966 -1.3864 73.8898 -1.40874 73.8763C-1.49367 73.8178 -1.53171 73.7842 -1.58795 73.6971C-1.63519 73.6233 -1.65364 73.5343 -1.65875 73.4453C-1.66135 73.3941 -1.6551 73.3386 -1.63767 73.2898C-1.62242 73.2477 -1.60496 73.2033 -1.58527 73.1612C-1.58089 73.1524 -1.5743 73.1413 -1.56992 73.1324C-1.53477 73.0749 -1.4907 73.0219 -1.44883 72.971C-1.42459 72.9423 -1.3981 72.9158 -1.37386 72.8871C-1.33192 72.8452 -1.28548 72.8122 -1.2278 72.7948C-1.17684 72.7707 -1.12357 72.7578 -1.06352 72.7604C-1.0035 72.7587 -0.950031 72.7724 -0.898706 72.7972C-0.840761 72.8155 -0.79161 72.847 -0.751255 72.8917L-0.679403 72.9856C-0.641089 73.0549 -0.622775 73.1261 -0.619972 73.204L-0.632486 73.3151C-0.651919 73.3927 -0.689238 73.4569 -0.74662 73.5143C-0.781932 73.5496 -0.815038 73.5827 -0.84363 73.6248L-0.77317 73.5319C-0.792967 73.5607 -0.814977 73.5916 -0.828087 73.6227L-0.786612 73.5185C-0.786612 73.5185 -0.795342 73.5406 -0.795242 73.554L-0.78273 73.4429C-0.78273 73.4429 -0.782628 73.4562 -0.782562 73.4651L-0.79673 73.3539C-0.79673 73.3539 -0.794429 73.365 -0.792189 73.3672L-0.835211 73.2624C-0.835211 73.2624 -0.828492 73.2691 -0.828459 73.2736L-0.900305 73.1797C-0.900305 73.1797 -0.893584 73.1864 -0.891344 73.1886L-0.985268 73.1168C-0.985268 73.1168 -0.976303 73.1257 -0.967409 73.1258L-1.07224 73.0828C-1.07224 73.0828 -1.04993 73.0918 -1.03659 73.0919L-1.14787 73.0778C-1.11671 73.0824 -1.08782 73.0804 -1.05672 73.0762L-1.1678 73.0887C-1.08116 73.0783 -0.999072 73.0544 -0.919222 73.0283C-0.863748 73.0132 -0.808173 73.0114 -0.752501 73.0229C-0.694655 73.0278 -0.641188 73.0415 -0.589798 73.0752C-0.533993 73.1046 -0.491466 73.1427 -0.457731 73.1941C-0.415169 73.2366 -0.390332 73.288 -0.378767 73.3481L-0.364597 73.4594C-0.364035 73.535 -0.3835 73.6082 -0.420788 73.6768L-0.491245 73.7697C-0.546421 73.8249 -0.612836 73.8644 -0.690512 73.8838L-0.688334 73.8772Z" fill="#313C6C"/>
<path d="M37.3391 37.1087C37.3391 37.1087 37.3325 37.1153 37.3303 37.1175L37.4007 37.0247C37.3875 37.0379 37.381 37.0579 37.3744 37.0734L37.4159 36.9692C37.3853 37.049 37.3749 37.1357 37.3577 37.2156C37.3276 37.3576 37.2775 37.4973 37.1738 37.6055C37.1319 37.6475 37.0854 37.6805 37.0278 37.6978C36.9768 37.7219 36.9235 37.7348 36.8635 37.7322C36.7456 37.7246 36.6385 37.6838 36.5512 37.6009C36.5445 37.5942 36.54 37.5897 36.5333 37.583L36.6272 37.6548C36.6048 37.6369 36.5781 37.6233 36.5513 37.6142L36.6561 37.6573C36.6182 37.6414 36.5759 37.63 36.538 37.6141C36.4689 37.5892 36.3931 37.5619 36.3327 37.5192C36.2969 37.4923 36.2567 37.4653 36.2231 37.4317C36.2097 37.4183 36.1558 37.3511 36.1468 37.3333L36.1241 37.2798C36.0993 37.2284 36.0856 37.175 36.0873 37.115C36.0871 37.0883 36.0892 37.0638 36.0912 37.0394C36.0973 36.9661 36.1034 36.8883 36.1229 36.8151C36.1424 36.7507 36.1642 36.6842 36.1994 36.6311C36.2257 36.5868 36.2565 36.547 36.2896 36.5095C36.2984 36.5006 36.3073 36.4918 36.3161 36.483C36.4067 36.4058 36.5041 36.3443 36.6239 36.3185C36.7039 36.3013 36.7861 36.2997 36.8661 36.2914L36.755 36.3039C36.755 36.3039 36.7883 36.2975 36.8038 36.2909L36.6996 36.3324C36.6996 36.3324 36.7107 36.3258 36.7174 36.3236L36.6245 36.3941C36.6245 36.3941 36.6289 36.3897 36.6311 36.3875C36.7106 36.308 36.8258 36.26 36.9415 36.2608C37.0015 36.2591 37.0549 36.2728 37.1063 36.2976C37.1642 36.3159 37.2134 36.3473 37.2537 36.3921C37.33 36.4772 37.3886 36.5888 37.385 36.7044C37.3814 36.82 37.3445 36.9331 37.2584 37.0147C37.2429 37.0302 37.2186 37.0456 37.2053 37.0543C37.2053 37.0543 37.1699 37.0852 37.1522 37.094C37.1146 37.1137 37.0724 37.129 37.0325 37.142C37.0192 37.1463 37.0059 37.1507 36.9926 37.1506C36.9215 37.1634 36.8526 37.1651 36.7815 37.1735L36.8926 37.161C36.8615 37.1652 36.8326 37.1716 36.8038 37.1825L36.908 37.1411C36.8903 37.1498 36.8748 37.1564 36.8571 37.1696L36.9499 37.0991C36.9367 37.1124 36.9234 37.1256 36.9102 37.1389L36.9807 37.046C36.9674 37.0637 36.9565 37.0836 36.9477 37.1058L36.9892 37.0016C36.9739 37.0393 36.9675 37.077 36.9612 37.1148L36.9737 37.0037C36.9673 37.0415 36.9676 37.0815 36.9678 37.1171L36.8366 36.8048C36.8366 36.8048 36.8478 36.816 36.8545 36.8227L36.7606 36.7509C36.7829 36.7688 36.8097 36.7824 36.8365 36.7915L36.7316 36.7484C36.7762 36.7666 36.8253 36.7803 36.8699 36.7984C36.9903 36.8437 37.0751 36.8844 37.1714 36.9763L36.5488 36.9716C36.5488 36.9716 36.5554 36.965 36.5576 36.9628L36.4871 37.0557C36.5004 37.0424 36.5069 37.0225 36.5134 37.0069L36.472 37.1111C36.5025 37.0313 36.513 36.9447 36.5302 36.8648C36.5602 36.7227 36.6103 36.583 36.714 36.4748C36.7913 36.3976 36.9132 36.3473 37.0244 36.3482C37.0844 36.3464 37.1379 36.3601 37.1892 36.385C37.2471 36.4032 37.2963 36.4347 37.3366 36.4795C37.4129 36.5645 37.4715 36.6761 37.4679 36.7917C37.4643 36.9073 37.4229 37.0159 37.3413 37.1021L37.3391 37.1087Z" fill="#313C6C"/>
<path d="M38.7942 50.6759C38.2701 51.0656 37.5265 52.1228 36.801 51.4371C36.1964 50.8678 36.6203 49.8748 37.0903 49.3825L37.4039 49.6961C36.7611 50.2672 35.7407 50.5842 35.0242 49.9119C34.3077 49.2395 34.6673 48.2617 35.2722 47.6881L35.5372 48.0369C34.8356 48.4786 33.7321 48.6816 33.1504 47.9057C32.5688 47.1299 33.2473 46.2855 33.9337 45.8993C34.1795 45.7611 34.4003 46.1452 34.1545 46.2834C33.6983 46.5379 33.0624 47.1246 33.5245 47.6795C33.9867 48.2343 34.8207 47.9648 35.3164 47.6528C35.5244 47.521 35.7625 47.834 35.5814 48.0016C35.1553 48.4054 34.7892 49.1119 35.3287 49.6029C35.8682 50.0938 36.6242 49.7948 37.0858 49.3825C37.2935 49.1973 37.5958 49.4908 37.3994 49.6961C37.1215 49.9875 36.619 50.8887 37.1726 51.1774C37.4427 51.3195 37.7606 51.0151 37.9439 50.8497C38.1537 50.6622 38.3479 50.4591 38.5734 50.2918C38.799 50.1245 39.0175 50.5108 38.7942 50.6759Z" fill="#313C6C"/>
<path d="M30.6705 57.0523C30.2402 57.496 29.4895 58.8067 28.7115 58.2317C27.8507 57.5916 28.7989 56.5403 29.2933 56.046L29.6069 56.3596C29.0504 56.8713 27.9203 57.6833 27.2251 56.8866C26.5972 56.166 27.0666 55.0066 27.4996 54.3361L27.802 54.6385C27.1004 55.0624 25.9067 55.4004 25.2871 54.6131C24.6676 53.8259 25.5301 52.9007 26.1986 52.501C26.4399 52.3583 26.6606 52.7423 26.4193 52.8851C25.9965 53.1376 25.1565 53.7984 25.6477 54.369C26.1389 54.9397 27.0854 54.5532 27.5813 54.2545C27.7606 54.1468 28.0024 54.3754 27.8837 54.5569C27.5628 55.0525 27.0983 55.9785 27.5229 56.562C27.9766 57.1835 28.9488 56.3636 29.2933 56.046C29.5009 55.8563 29.8078 56.1587 29.6069 56.3596C29.373 56.5935 28.3467 57.6109 29.0092 57.9071C29.2569 58.0179 29.5477 57.6643 29.6911 57.512C29.9227 57.2624 30.1208 56.9837 30.3568 56.7387C30.5532 56.5378 30.8668 56.8514 30.6705 57.0523Z" fill="#313C6C"/>
<path d="M18.2991 67.7929C17.8136 68.2873 16.8679 69.6855 16.0464 68.9434C15.2249 68.2013 16.201 67.0146 16.7329 66.4738L17.0465 66.7874C16.3833 67.2983 15.266 67.7525 14.5448 67.049C13.8236 66.3454 14.4385 65.3094 15.0393 64.7803L15.353 65.0939C14.9178 65.4753 14.0386 65.9513 13.5868 65.2964C13.135 64.6416 13.79 63.9194 14.2698 63.5561C14.4931 63.3866 14.7117 63.7728 14.4906 63.9402C14.2341 64.1339 13.6689 64.6723 13.9497 65.0546C14.2304 65.4369 14.8295 64.9677 15.0416 64.7825C15.2536 64.5973 15.5673 64.911 15.3552 65.0961C14.9576 65.4445 14.3052 66.2223 14.856 66.7422C15.4069 67.2622 16.2687 66.8395 16.7351 66.4761C16.9518 66.3087 17.2517 66.5822 17.0487 66.7897C16.7927 67.0457 16.5681 67.3331 16.3948 67.6542C16.2478 67.9221 16.0467 68.3875 16.3532 68.6322C16.635 68.8566 17.0103 68.5037 17.2069 68.3206C17.4851 68.0603 17.7185 67.7552 17.9855 67.4837C18.1841 67.2851 18.4955 67.5964 18.2991 67.7973L18.2991 67.7929Z" fill="#313C6C"/>
<path d="M40.7578 44.4426C40.5733 44.7481 40.3268 45.0931 39.9652 45.1994C39.7167 45.2731 39.4537 45.1867 39.2832 44.9853C38.8458 44.464 38.9753 43.6445 39.2424 43.0906L39.5913 43.3556C39.1719 43.766 38.5185 44.1147 37.9402 43.7835C37.4757 43.5177 37.3335 42.9341 37.5079 42.4551C37.6496 42.076 37.9276 41.789 38.255 41.5646C38.4872 41.4041 38.7058 41.7903 38.4757 41.9487C38.2258 42.1225 37.9874 42.3609 37.903 42.6649C37.8423 42.8823 37.8638 43.0848 37.9919 43.2614C38.084 43.3888 38.2737 43.4814 38.4804 43.4718C38.7893 43.4541 39.0635 43.2516 39.2754 43.0397C39.4542 42.8609 39.7293 43.0876 39.6242 43.3047C39.4337 43.7013 39.3336 44.2808 39.5854 44.6607C39.6506 44.7568 39.7265 44.8018 39.8463 44.7627C40.0592 44.6931 40.2484 44.4144 40.3692 44.2129C40.5164 43.9717 40.9004 44.1924 40.7533 44.4337L40.7578 44.4426Z" fill="#313C6C"/>
<path d="M25.9721 61.4998C25.5293 62.0591 24.6155 62.6593 23.9746 61.9919C23.3338 61.3245 23.778 60.3651 24.2785 59.8063L24.5922 60.1199C24.1063 60.561 23.3712 60.9735 22.7148 60.6129C22.208 60.3356 22.0654 59.7031 22.2573 59.1931C22.41 58.794 22.7146 58.4939 23.0687 58.2698C23.3054 58.1181 23.5262 58.5022 23.2894 58.6538C22.8468 58.9351 22.3667 59.5541 22.7374 60.0661C22.852 60.2248 23.0661 60.3198 23.2973 60.3082C23.6729 60.2909 24.0113 60.0511 24.2785 59.8063C24.4861 59.6166 24.7796 59.9101 24.5922 60.1199C24.2547 60.4932 23.8601 61.2373 24.2836 61.6829C24.7072 62.1285 25.3633 61.5575 25.6585 61.1862C25.8325 60.9674 26.1461 61.281 25.9721 61.4998Z" fill="#313C6C"/>
<path d="M13.5961 71.6178C13.2145 72.0307 12.6416 72.4333 12.0426 72.311C11.5705 72.2141 11.3514 71.7478 11.4926 71.3108C11.6078 70.9537 11.8725 70.6622 12.1553 70.4242C12.3652 70.2456 12.672 70.5392 12.4689 70.7378C12.065 71.1328 11.447 71.455 10.8888 71.144C10.4289 70.8871 10.2734 70.3123 10.4032 69.8286C10.5006 69.4669 10.7384 69.1574 11.0212 68.9193C11.2356 68.7408 11.5514 69.0523 11.3349 69.233C10.9349 69.5657 10.6035 70.1436 10.9226 70.604C10.9631 70.6621 11.0392 70.7294 11.1217 70.7722C11.1954 70.8106 11.2845 70.829 11.3845 70.8275C11.6802 70.8231 11.9478 70.6227 12.153 70.4219L12.4667 70.7355C12.2369 70.9295 11.983 71.17 11.903 71.474C11.8814 71.5583 11.8752 71.6272 11.9002 71.7007C11.9047 71.7141 11.9071 71.7297 11.9363 71.7722C11.9071 71.7297 12.0146 71.8417 11.9766 71.8125C12.0481 71.8619 12.1038 71.8779 12.1728 71.8851C12.2841 71.8948 12.3796 71.88 12.4861 71.8496C12.8011 71.7586 13.0596 71.536 13.278 71.2997C13.4676 71.0921 13.7813 71.4057 13.5916 71.6133L13.5961 71.6178Z" fill="#313C6C"/>
<path d="M34.5102 54.3416C33.9736 54.8379 33.1456 55.3253 32.4045 54.9329C31.8398 54.633 31.6967 53.9382 31.9194 53.384C32.0875 52.9695 32.4231 52.6518 32.8017 52.4256C33.0407 52.2806 33.2615 52.6647 33.0224 52.8097C32.852 52.9129 32.7503 52.9878 32.609 53.1335C32.5848 53.1577 32.5605 53.182 32.5407 53.2063C32.5274 53.2196 32.5142 53.2373 32.5032 53.2527C32.4635 53.3014 32.5274 53.2151 32.49 53.266C32.4437 53.3301 32.3998 53.3965 32.3647 53.4674C32.3494 53.4962 32.3385 53.525 32.3231 53.5538C32.3405 53.505 32.31 53.5848 32.3231 53.5538C32.3166 53.5693 32.31 53.5848 32.3079 53.6004C32.2862 53.6669 32.2711 53.7313 32.2583 53.8023C32.2498 53.8556 32.2601 53.7557 32.2583 53.8068C32.2562 53.8223 32.2563 53.8357 32.2542 53.8512C32.2521 53.8757 32.2523 53.9023 32.2525 53.9246C32.2527 53.9557 32.2552 53.9846 32.2576 54.0136C32.2484 53.9646 32.2602 54.0647 32.2576 54.0136C32.26 54.0336 32.2646 54.0514 32.2691 54.0692C32.2738 54.0959 32.2829 54.1227 32.2898 54.1517C32.2944 54.1695 32.3306 54.2542 32.3012 54.1895C32.3238 54.2386 32.3486 54.2899 32.3801 54.3346C32.389 54.3436 32.398 54.357 32.4048 54.3682C32.4296 54.4106 32.3667 54.3301 32.4003 54.3637C32.4205 54.3839 32.4362 54.404 32.4563 54.4242C32.472 54.4398 32.4877 54.4555 32.5056 54.4734C32.5168 54.4846 32.557 54.5116 32.5034 54.4712C32.519 54.4824 32.5347 54.4937 32.5481 54.5027C32.5727 54.5184 32.595 54.5319 32.6218 54.5455C32.6374 54.5522 32.7221 54.5884 32.6597 54.5657C32.7155 54.5862 32.7734 54.6044 32.8291 54.6159C32.8447 54.6183 32.8602 54.6206 32.8758 54.6229C32.8179 54.6136 32.8736 54.6207 32.8825 54.6208C32.9158 54.6232 32.947 54.6235 32.9804 54.6259C33.0137 54.6284 33.0493 54.6242 33.0826 54.6223C33.0915 54.6223 33.1492 54.6139 33.0959 54.6224C33.1137 54.618 33.1315 54.6182 33.1492 54.6139C33.3491 54.5798 33.4666 54.5295 33.6327 54.4396C33.8497 54.3211 34.0221 54.189 34.201 54.0191C34.4063 53.8272 34.7199 54.1408 34.5146 54.3327L34.5102 54.3416Z" fill="#313C6C"/>
<path d="M19.4998 61.8252C19.0496 62.2754 18.3394 62.7571 17.668 62.4652C17.1327 62.2345 17.0322 61.5822 17.193 61.0854C17.3322 60.664 17.6052 60.3058 17.9254 60.008C18.1308 59.8161 18.4444 60.1297 18.239 60.3216C17.9807 60.5621 17.7956 60.7875 17.6513 61.111C17.625 61.1686 17.6643 61.0711 17.6425 61.1288C17.6381 61.1421 17.6338 61.1509 17.6294 61.1642C17.6163 61.1997 17.6055 61.233 17.5968 61.2685C17.5795 61.3306 17.5688 61.3906 17.5604 61.4528C17.5689 61.395 17.5584 61.4772 17.5585 61.495C17.5565 61.5239 17.5567 61.5506 17.5569 61.5817C17.5572 61.6128 17.5618 61.6351 17.562 61.6618C17.5645 61.6996 17.5597 61.6551 17.5597 61.6506C17.5642 61.6685 17.5666 61.6885 17.5712 61.7063C17.5804 61.7509 17.5963 61.7932 17.61 61.8378C17.5872 61.7709 17.619 61.8512 17.628 61.869C17.6415 61.8914 17.6572 61.9115 17.6685 61.9361C17.6888 61.974 17.6394 61.9069 17.6573 61.9249C17.664 61.9316 17.673 61.9405 17.6797 61.9473C17.6954 61.9629 17.7088 61.9764 17.7245 61.9921C17.7335 62.001 17.7424 62.01 17.7514 62.0189C17.7828 62.0503 17.7067 61.9919 17.7447 62.0122C17.767 62.0257 17.7871 62.0414 17.8095 62.055C17.8296 62.0662 17.8496 62.073 17.8675 62.0821C17.805 62.0505 17.8675 62.0821 17.8898 62.0867C17.9143 62.0935 17.9388 62.1004 17.961 62.105C17.9722 62.1073 17.9833 62.1096 17.9944 62.1119C17.9321 62.0981 17.9944 62.1119 18.0078 62.112C18.0589 62.1146 18.1078 62.1105 18.1567 62.1109C18.2079 62.1091 18.1123 62.1195 18.1656 62.111C18.1767 62.1088 18.1878 62.1067 18.1989 62.1045C18.2367 62.0982 18.2722 62.0895 18.3077 62.0809C18.3454 62.0701 18.3832 62.0592 18.4186 62.0461C18.4319 62.0418 18.4408 62.0374 18.4541 62.0331C18.4076 62.0527 18.4851 62.02 18.4896 62.0155C18.5649 61.9805 18.6402 61.9411 18.7132 61.8949C18.8881 61.7873 19.025 61.6682 19.1795 61.5137C19.3782 61.3151 19.6918 61.6287 19.4932 61.8274L19.4998 61.8252Z" fill="#313C6C"/>
<path d="M9.13802 75.1977C8.57879 75.6404 7.82388 76.0817 7.07129 75.9383C6.82636 75.892 6.58515 75.7479 6.47005 75.518C6.33916 75.2591 6.37259 74.9703 6.47516 74.7109C6.64539 74.2809 6.98072 73.9276 7.3209 73.6277C7.40924 73.5484 7.5426 73.5405 7.6322 73.6301C7.71285 73.7107 7.7251 73.8642 7.63451 73.9414C7.47548 74.0825 7.32092 74.2281 7.18428 74.3916C7.16221 74.4137 7.11817 74.4711 7.11379 74.48C7.13142 74.4579 7.08738 74.5154 7.09179 74.511C7.07858 74.5287 7.06537 74.5464 7.0544 74.5663C7.01042 74.6327 6.96869 74.7013 6.93143 74.7744C6.91829 74.801 6.90515 74.8275 6.89204 74.8586C6.88766 74.8674 6.86806 74.9229 6.88546 74.8696C6.8789 74.8851 6.87234 74.9007 6.87024 74.9162C6.85284 74.9694 6.84214 75.025 6.8292 75.0782C6.83107 75.0315 6.81843 75.1248 6.8292 75.0782C6.8293 75.0916 6.82719 75.1071 6.82729 75.1204C6.82745 75.1427 6.82762 75.1649 6.82779 75.1872C6.82788 75.2005 6.83018 75.2116 6.83028 75.225C6.82761 75.1649 6.82568 75.2027 6.83022 75.2161C6.83484 75.2383 6.84169 75.2629 6.84854 75.2874C6.86228 75.3408 6.8238 75.2494 6.85532 75.303C6.86435 75.3208 6.87783 75.3387 6.88686 75.3566C6.9139 75.4057 6.85325 75.323 6.89357 75.3633C6.91149 75.3812 6.93166 75.4014 6.94958 75.4193C6.9787 75.4484 6.90939 75.3968 6.93614 75.4059C6.94507 75.4104 6.94957 75.4193 6.96071 75.4216C6.98304 75.4351 7.00314 75.4464 7.02324 75.4576C7.02996 75.4644 7.03885 75.4644 7.04554 75.4667C7.08352 75.4914 6.99428 75.4508 7.04106 75.4622C7.06557 75.4691 7.09011 75.4804 7.11683 75.485C7.14358 75.4941 7.17029 75.4988 7.19701 75.5034C7.25713 75.515 7.16588 75.5032 7.22817 75.5081C7.29046 75.513 7.35496 75.5157 7.41719 75.5117C7.43498 75.5119 7.45053 75.5097 7.46608 75.5076C7.46608 75.5076 7.52161 75.5014 7.49052 75.5056C7.45942 75.5098 7.51496 75.5036 7.51496 75.5036C7.53272 75.4992 7.55051 75.4994 7.56826 75.4951C7.64377 75.4823 7.71923 75.4651 7.79242 75.4411C8.14295 75.337 8.51711 75.1197 8.82434 74.8752C8.91717 74.8003 9.04379 74.7856 9.13564 74.8775C9.21404 74.9559 9.23079 75.1139 9.13796 75.1888L9.13802 75.1977Z" fill="#313C6C"/>
<path d="M38.2209 26.5052C31.5944 25.5154 24.3609 30.8089 19.4909 36.7004C26.0472 36.6135 34.8827 33.2574 38.2187 26.5074" fill="white"/>
<path d="M38.3074 26.1679C32.4667 25.3195 26.9456 28.8604 22.8734 32.6099C21.575 33.8054 20.3683 35.0927 19.24 36.4495C19.0571 36.6682 19.1645 37.0581 19.4935 37.0517C22.3636 37.0041 25.2231 36.4162 27.8971 35.4133C30.7241 34.356 33.4053 32.8217 35.5641 30.7078C36.7582 29.536 37.7776 28.1806 38.5268 26.6787C38.7262 26.2777 38.1143 25.9219 37.9106 26.3272C35.2881 31.5706 29.5743 34.6187 24.0157 35.8135C22.5283 36.1315 21.0134 36.3204 19.4883 36.3446L19.7418 36.9468C21.6457 34.6486 23.7978 32.5279 26.2082 30.7626C28.4683 29.1074 30.9993 27.7099 33.7582 27.0701C35.1855 26.7405 36.6721 26.6293 38.1345 26.8425C38.5775 26.9059 38.7592 26.2268 38.3073 26.1634L38.3074 26.1679Z" fill="#313C6C"/>
<path d="M37.5586 26.5358C36.68 27.3831 35.4554 27.7564 34.3403 28.195C33.1653 28.6577 32.0334 29.234 30.9104 29.806C28.507 31.031 26.0609 32.1779 23.7972 33.6485C22.5315 34.4706 21.3085 35.3531 20.0878 36.2379C19.8158 36.4337 20.0793 36.896 20.3514 36.7001C22.5341 35.1177 24.737 33.5421 27.1402 32.3037C28.3673 31.6725 29.6079 31.0681 30.8372 30.4391C32.0666 29.8101 33.2293 29.1984 34.4774 28.703C35.7256 28.2076 36.9834 27.8234 37.9349 26.9077C38.1777 26.6739 37.8014 26.2975 37.5585 26.5314L37.5586 26.5358Z" fill="#313C6C"/>
<path d="M37.3318 26.5386C35.0101 26.4813 32.8214 27.5678 30.8551 28.656C29.8786 29.198 28.9224 29.7778 27.9414 30.3108C26.6724 30.9973 25.4258 31.6973 24.2492 32.5379C22.92 33.4863 21.685 34.5555 20.5307 35.7053C20.2924 35.9437 20.6687 36.32 20.9071 36.0817C22.9266 34.0711 25.1885 32.3737 27.7111 31.034C29.7043 29.9771 31.596 28.7171 33.6885 27.8522C34.8411 27.3761 36.0726 27.0362 37.338 27.0656C37.6782 27.0748 37.6743 26.5456 37.334 26.5364L37.3318 26.5386Z" fill="#313C6C"/>
<path d="M37.2316 27.1137C35.1602 28.7237 32.9046 30.0832 30.6196 31.3691C29.5037 31.9967 28.3764 32.6042 27.247 33.2095C26.2083 33.7687 25.1968 34.3771 24.1423 34.9073C22.9262 35.5186 21.6627 36.0384 20.3173 36.2996C19.9842 36.3639 20.1237 36.8741 20.4545 36.812C22.8346 36.3539 24.9576 35.1091 27.0345 33.9327C29.3593 32.6204 31.7316 31.4085 33.9957 29.9912C35.2372 29.2156 36.4473 28.3864 37.6035 27.49C37.8688 27.283 37.4902 26.9089 37.2271 27.1137L37.2316 27.1137Z" fill="#313C6C"/>
<path d="M37.2739 27.4209C36.5519 28.3983 35.4989 29.1197 34.5169 29.815C33.484 30.5477 32.4554 31.2716 31.3619 31.9172C30.2683 32.5627 29.0884 33.2677 27.9416 33.9306C26.9454 34.5057 25.9222 35.0495 24.84 35.4417C23.585 35.8993 22.2661 36.1429 20.9199 36.0062C20.5816 35.9725 20.5878 36.4995 20.9238 36.5354C23.3648 36.787 25.6744 35.8125 27.7447 34.6562C30.1006 33.3397 32.4227 31.9451 34.6256 30.3873C35.7404 29.5996 36.9106 28.7967 37.7317 27.6889C37.932 27.4169 37.4676 27.1555 37.2695 27.4253L37.2739 27.4209Z" fill="#313C6C"/>
</g>
</svg>
