<svg width="20" height="20" viewBox="0 0 20 20" fill="none" xmlns="http://www.w3.org/2000/svg">
<mask id="mask0_477_42" style="mask-type:alpha" maskUnits="userSpaceOnUse" x="0" y="0" width="20" height="20">
<circle cx="10" cy="10" r="10" fill="#D9D9D9"/>
</mask>
<g mask="url(#mask0_477_42)">
<path d="M20 0H0V19.9999H20V0Z" fill="#000066"/>
<path d="M0 0V2.23606L17.764 20H20V17.764L2.236 6.66664e-05L0 0ZM20 0V2.23599L2.236 19.9999H0V17.7639L17.764 0H20Z" fill="white"/>
<path d="M8.33333 0V19.9999H11.6667V0H8.33333ZM0 6.66664V13.3333H20V6.66664H0Z" fill="white"/>
<path d="M0 7.99997V12H20V7.99997H0ZM9 0V19.9999H11V0H9Z" fill="#CC0000"/>
<path d="M0 19.9999L6.66667 13.3333H8.15733L1.49067 19.9999H0ZM0 0L6.66667 6.66664H5.176L0 1.49073L0 0ZM11.8427 6.66664L18.5093 0H20L13.3333 6.66664H11.8427ZM20 19.9999L13.3333 13.3333H14.824L20 18.5093V19.9999Z" fill="#CC0000"/>
</g>
</svg>
