<svg width="32" height="32" viewBox="0 0 32 32" fill="none" xmlns="http://www.w3.org/2000/svg">
<g opacity="0.5" clip-path="url(#clip0_111_415)">
<path d="M16 0C24.8227 0 32 7.17731 32 16C32 24.8227 24.8227 32 16 32C7.17731 32 0 24.8227 0 16C0 7.17731 7.17731 0 16 0ZM11.0573 16.9427L17.724 23.6093C17.984 23.8693 18.3253 24 18.6667 24C19.008 24 19.3494 23.8693 19.6094 23.6093C20.1307 23.088 20.1307 22.2453 19.6094 21.724L13.8853 16L19.6093 10.276C20.1306 9.75469 20.1306 8.912 19.6093 8.39069C19.088 7.86938 18.2453 7.86938 17.724 8.39069L11.0573 15.0574C10.536 15.5787 10.536 16.4213 11.0573 16.9427Z" fill="white"/>
</g>
<defs>
<clipPath id="clip0_111_415">
<rect width="32" height="32" fill="white" transform="matrix(-1 0 0 1 32 0)"/>
</clipPath>
</defs>
</svg>
