<svg width="32" height="32" viewBox="0 0 32 32" fill="none" xmlns="http://www.w3.org/2000/svg">
<circle cx="16" cy="16" r="16" fill="#00A878"/>
<path d="M21.375 13.75H20.25V11.5C20.25 9.01487 18.2351 7 15.75 7C13.2649 7 11.25 9.01487 11.25 11.5V13.75H10.125C9.50316 13.75 9 14.2532 9 14.875V23.875C9 24.4968 9.50316 25 10.125 25H21.375C21.9968 25 22.5 24.4968 22.5 23.875V14.875C22.5 14.2532 21.9968 13.75 21.375 13.75ZM15.75 20.5C15.1282 20.5 14.625 19.9968 14.625 19.375C14.625 18.7532 15.1282 18.25 15.75 18.25C16.3718 18.25 16.875 18.7532 16.875 19.375C16.875 19.9968 16.3718 20.5 15.75 20.5ZM18 13.75H13.5V11.5C13.5 10.2574 14.5074 9.25 15.75 9.25C16.9926 9.25 18 10.2574 18 11.5V13.75Z" fill="white"/>
</svg>
