<svg width="80" height="82" viewBox="0 0 80 82" fill="none" xmlns="http://www.w3.org/2000/svg">
<mask id="mask0_111_168" style="mask-type:alpha" maskUnits="userSpaceOnUse" x="0" y="0" width="80" height="82">
<path d="M79.5 41C79.5 63.3792 61.8037 81.5 40 81.5C18.1963 81.5 0.5 63.3792 0.5 41C0.5 18.6208 18.1963 0.5 40 0.5C61.8037 0.5 79.5 18.6208 79.5 41Z" fill="#C879FF" stroke="black"/>
</mask>
<g mask="url(#mask0_111_168)">
<path d="M49.7232 31.2519C49.2704 38.5326 48.0169 43.3793 43.6683 49.4125C40.2285 54.1828 36.688 58.261 32.1592 62.7898C30.7975 61.7635 29.0995 60.0655 27.9055 58.8715" fill="white"/>
<path d="M49.3718 31.2493C49.1015 35.5519 48.4529 39.825 46.6344 43.7492C45.676 45.8188 44.454 47.7396 43.1159 49.5796C41.5642 51.7136 39.9276 53.7848 38.2104 55.7843C36.2045 58.1217 34.0866 60.3606 31.9128 62.5389L32.3348 62.4843C30.8277 61.3391 29.4922 59.9595 28.1571 58.6244C27.8345 58.3018 27.3402 58.7962 27.6627 59.1188C29.0471 60.5031 30.4317 61.9098 31.9925 63.0954C32.1155 63.1875 32.3174 63.1378 32.4146 63.0407C36.2724 59.1828 39.8997 55.1076 43.1533 50.7205C44.5819 48.7945 45.9279 46.8123 46.9902 44.6523C47.9014 42.7959 48.5983 40.8355 49.0746 38.818C49.6565 36.3409 49.9222 33.7948 50.0834 31.2546C50.1111 30.8013 49.4063 30.7982 49.3807 31.2494L49.3718 31.2493Z" fill="#313C6C"/>
<path d="M48.3991 37.0786C47.9181 38.7738 47.0023 40.3034 46.0438 41.7637C44.9885 43.3745 43.922 44.9741 42.9182 46.6187C41.8484 48.3695 40.8055 50.156 39.5346 51.7719C38.2549 53.4011 36.8321 54.9135 35.3666 56.3745C33.7378 57.9989 32.0552 59.565 30.4263 61.1893C30.188 61.4277 30.5643 61.804 30.8027 61.5657C33.7645 58.6083 36.9301 55.8326 39.5739 52.5704C40.8694 50.9703 41.9503 49.2218 43.0245 47.4666C44.0987 45.7114 45.1207 44.107 46.2246 42.4565C47.3285 40.8061 48.3743 39.124 48.9138 37.2181C49.0069 36.8919 48.4945 36.7547 48.4013 37.0809L48.3991 37.0786Z" fill="#313C6C"/>
<path d="M48.1451 38.7977C47.129 40.2887 46.4968 41.9872 45.7084 43.6044C44.92 45.2217 43.8424 46.8146 42.8444 48.3635C41.7696 50.0298 40.5939 51.5952 39.3156 53.111C38.0858 54.5693 36.773 55.9448 35.485 57.3493C34.1065 58.8532 32.7863 60.4109 31.3452 61.861C31.1068 62.0993 31.4832 62.4757 31.7215 62.2373C33.0325 60.9219 34.2404 59.5168 35.4865 58.1409C36.7523 56.7406 38.0696 55.3874 39.2996 53.9514C40.5296 52.5153 41.7764 50.9504 42.856 49.3197C43.8828 47.7687 44.9472 46.1935 45.8266 44.5481C46.7937 42.7387 47.446 40.7647 48.6095 39.0635C48.7987 38.7848 48.3365 38.5212 48.1473 38.7999L48.1451 38.7977Z" fill="#313C6C"/>
<path d="M47.8076 37.9658C45.8211 41.1217 43.9687 44.3675 41.7944 47.3974C39.6202 50.4274 36.938 53.3112 34.3216 56.0799C32.8501 57.6365 31.354 59.1685 29.8423 60.6847C29.6039 60.9231 29.9803 61.2994 30.2186 61.0611C32.9641 58.3155 35.6514 55.5117 38.2246 52.6071C39.4549 51.2199 40.6674 49.8148 41.7724 48.3244C42.8775 46.8341 43.9042 45.2697 44.8931 43.694C46.0313 41.8792 47.1293 40.0419 48.2676 38.2316C48.4456 37.9461 47.9856 37.6803 47.8054 37.968L47.8076 37.9658Z" fill="#313C6C"/>
<path d="M60.3344 14.3902C64.3448 28.0365 32.2611 59.7798 15.7893 71.6638C5.45997 79.2422 -4.37277 86.3241 -16.4389 89.6806C-14.9611 82.7011 -8.10775 72.6399 -3.555 66.2502C2.75999 57.6413 10.0143 49.473 17.7048 42.2396C29.1295 31.2763 46.3567 20.8098 60.3344 14.3902Z" fill="#D1E2EA"/>
<path d="M41.9024 27.885C42.7635 30.3572 43.3169 33.0072 41.8222 35.3307C40.7013 37.0789 39.085 38.5922 37.5769 40.0017C36.0268 41.4532 34.405 42.8241 32.7495 44.1525C29.4364 46.816 26.0022 49.3497 22.8731 52.2324C18.6243 56.1496 14.6425 60.3868 10.5573 64.472L-1.79756 76.8269C-4.20321 79.2325 -6.81757 81.9768 -10.1874 82.9945C-11.4142 83.3656 -12.7697 83.48 -13.9851 82.993C-11.1802 77.1728 -6.78971 70.7842 -3.55503 66.2458C2.75996 57.6369 10.0143 49.4686 17.7047 42.2351C24.1203 36.0795 32.3624 30.0775 40.8327 24.8643C41.1693 25.8718 41.5458 26.8707 41.898 27.8805L41.9024 27.885Z" fill="#8BB7CA"/>
<path d="M53.2839 22.1621C55.7217 24.3748 52.3733 27.078 50.5633 25.2724C48.5069 23.216 51.513 20.528 53.2839 22.1621Z" fill="white"/>
<path d="M53.5311 21.9149C54.3393 22.6569 54.7542 23.7294 54.286 24.7576C53.9031 25.5975 53.0112 26.1534 52.0978 26.211C51.0111 26.2808 50.0315 25.5131 49.655 24.5142C49.2966 23.5687 49.6801 22.5132 50.4382 21.8985C51.3509 21.1605 52.6222 21.0899 53.5333 21.9127C53.8713 22.2198 53.377 22.7142 53.0389 22.4071C52.7703 22.1649 52.4246 22.0178 52.0754 22.0086C51.7263 21.9993 51.4069 22.0992 51.0859 22.2991C50.8071 22.4749 50.56 22.7355 50.3956 23.0522C50.2443 23.3423 50.1805 23.7199 50.2451 24.0361C50.3327 24.4636 50.5755 24.8212 50.9202 25.1261C51.153 25.3324 51.5299 25.4842 51.828 25.5042C52.0393 25.5169 52.1548 25.5044 52.3213 25.4679C52.5344 25.4205 52.6187 25.39 52.7848 25.3045C52.8668 25.2629 52.9464 25.2146 53.0217 25.1662C53.1212 25.098 53.0969 25.1179 53.2029 25.0253C53.2714 24.9658 53.3354 24.9018 53.395 24.8333C53.4259 24.8024 53.4501 24.7692 53.4765 24.7338C53.4302 24.7935 53.5117 24.6807 53.5227 24.6652C53.5776 24.5789 53.6237 24.4926 53.6697 24.4017C53.6784 24.384 53.6872 24.3619 53.6959 24.3441C53.6697 24.4106 53.7025 24.3242 53.7068 24.3109C53.722 24.2598 53.7394 24.211 53.7523 24.1578C53.7847 24.0268 53.7848 24.0313 53.7906 23.9135C53.7946 23.8646 53.7943 23.8157 53.7917 23.7645C53.7915 23.7423 53.7771 23.5999 53.7842 23.6555C53.7115 23.1503 53.4262 22.7635 53.0389 22.4071C52.7031 22.0977 53.1975 21.6034 53.5333 21.9127L53.5311 21.9149Z" fill="#313C6C"/>
<path d="M52.6782 22.9291C53.9654 24.0971 52.1972 25.5247 51.2429 24.5704C50.1565 23.484 51.7446 22.0661 52.6782 22.9291Z" fill="#313C6C"/>
<path d="M54.0931 33.4944C53.3077 34.6202 52.2049 35.517 50.7988 35.6999C49.5616 35.8619 48.3135 35.4747 47.2504 34.8353C45.0728 33.5228 43.2042 31.0142 43.1049 28.4209C43.0497 26.9886 43.6696 25.7281 44.8017 24.8783C45.1599 24.6097 45.5113 25.2259 45.1531 25.4945C43.2582 26.9146 43.6528 29.45 44.7315 31.2879C45.8102 33.1259 47.9257 35.0471 50.2336 35.0376C51.601 35.0322 52.7223 34.229 53.4746 33.1451C53.7298 32.7779 54.3461 33.1294 54.0909 33.4966L54.0931 33.4944Z" fill="#313C6C"/>
<path d="M51.3584 33.5096C50.1006 33.9071 48.7121 33.7545 47.6255 32.9504C46.4383 32.0677 45.8521 30.6826 45.6725 29.2583C45.6158 28.8087 46.3207 28.8162 46.3752 29.2635C46.5263 30.4475 47.04 31.6631 48.0327 32.3909C48.9605 33.0715 50.1063 33.1667 51.1732 32.83C51.6036 32.6954 51.7865 33.3771 51.3562 33.5118L51.3584 33.5096Z" fill="#313C6C"/>
<path d="M60.6762 14.3039C61.2536 16.2981 61.0582 18.4245 60.5837 20.4043C59.9713 22.9523 58.8798 25.3744 57.654 27.671C54.4348 33.6992 50.1419 39.1525 45.6844 44.2955C40.7309 50.0152 35.3925 55.4073 29.8141 60.5153C24.9004 65.0123 19.7642 69.1987 14.3883 73.1275C5.97166 79.2816 -2.6991 85.3493 -12.6296 88.8507C-13.8538 89.2818 -15.0938 89.6706 -16.3452 90.0215C-16.607 90.0951 -16.8335 89.8378 -16.7775 89.5891C-16.1822 86.8254 -15.0078 84.2038 -13.7345 81.703C-12.2444 78.7747 -10.5333 75.9614 -8.74608 73.211C-4.7804 67.1082 -0.410126 61.2953 4.31804 55.7697C9.49591 49.7226 15.0557 43.9119 21.078 38.696C26.6496 33.8682 32.6877 29.5818 38.9219 25.646C45.0388 21.7872 51.3805 18.2591 57.912 15.1371C58.6586 14.7802 59.4075 14.43 60.1609 14.0843C60.5665 13.8984 60.9246 14.5125 60.5124 14.7006C54.093 17.6523 47.859 21.01 41.8274 24.6805C35.7959 28.3509 29.3804 32.7234 23.6723 37.428C17.7056 42.3463 12.2261 47.8975 7.09061 53.6691C1.95516 59.4408 -2.51349 65.1818 -6.70504 71.4074C-8.5391 74.133 -10.3061 76.9081 -11.9056 79.78C-13.3537 82.3795 -14.71 85.0754 -15.6048 87.9281C-15.796 88.5359 -15.9603 89.1528 -16.0958 89.7766L-16.5281 89.3442C-6.41028 86.5113 2.4636 80.8497 10.8988 74.7936C13.9132 72.6303 16.9299 70.4605 19.832 68.1497C22.3828 66.1187 24.8662 64.0026 27.3003 61.8329C32.8443 56.8892 38.1439 51.6613 43.1123 46.1419C47.7476 40.9913 52.1897 35.5636 55.7495 29.5979C57.1703 27.2182 58.4703 24.7265 59.3578 22.0872C60.0343 20.0756 60.5185 17.9069 60.2602 15.7638C60.208 15.332 60.1181 14.9023 59.9971 14.4811C59.8762 14.06 60.5507 13.8693 60.6762 14.3083L60.6762 14.3039Z" fill="#313C6C"/>
<path d="M-9.38028 87.1784C-15.1621 90.953 -15.7097 95.3492 -19.6572 100.3C-20.6756 97.3044 -20.1134 94.5693 -18.3977 91.178C-22.2855 92.8166 -24.9877 92.4141 -28.106 91.6882C-23.8137 88.2338 -18.5929 87.3589 -13.978 82.744" fill="#D1E2EA"/>
<path d="M-9.20235 87.4843C-11.1074 88.7398 -12.7433 90.3084 -14.0501 92.1753C-15.2095 93.8365 -16.1366 95.6417 -17.1955 97.3681C-17.8721 98.4704 -18.6023 99.5366 -19.4064 100.547C-19.5848 100.77 -19.9217 100.61 -19.999 100.382C-20.4925 98.9044 -20.6307 97.3714 -20.4041 95.8412C-20.15 94.1355 -19.475 92.524 -18.7059 90.9978L-18.222 91.4817C-19.8978 92.1807 -21.6553 92.6434 -23.4872 92.6698C-25.0746 92.6891 -26.6466 92.3839 -28.1924 92.0256C-28.4352 91.9682 -28.5646 91.6003 -28.3569 91.4329C-25.0414 88.7806 -20.9246 87.4549 -17.4202 85.1019C-16.2742 84.3322 -15.2089 83.4597 -14.229 82.4886C-13.9112 82.1708 -13.4094 82.6726 -13.7272 82.9904C-15.3604 84.6147 -17.2472 85.9325 -19.2601 87.0448C-21.0935 88.0584 -23.0105 88.9135 -24.8372 89.9383C-25.8911 90.5308 -26.9113 91.1791 -27.8551 91.9347L-28.0196 91.342C-26.5629 91.6819 -25.0911 91.9708 -23.5925 91.9642C-21.8516 91.9572 -20.165 91.5295 -18.5735 90.8654C-18.2632 90.7343 -17.9231 91.0214 -18.0896 91.3493C-18.8171 92.7935 -19.4461 94.3097 -19.7031 95.9242C-19.9325 97.3677 -19.7794 98.8186 -19.3155 100.209L-19.9081 100.045C-17.245 96.6874 -15.7196 92.5231 -12.712 89.4349C-11.7632 88.4592 -10.6933 87.6133 -9.55604 86.8658C-9.17988 86.6196 -8.82844 87.2359 -9.20459 87.4821L-9.20235 87.4843Z" fill="#313C6C"/>
<path d="M-10.9892 86.0992C-12.8541 87.9641 -14.6339 89.9231 -15.9687 92.2166C-17.3868 94.6563 -18.4988 97.3139 -19.56 99.9253C-19.6888 100.238 -20.1466 99.9698 -20.0222 99.6617C-18.9436 97.006 -17.8142 94.2996 -16.3584 91.8313C-15.0124 89.5489 -13.2282 87.59 -11.3655 85.7228C-11.1272 85.4845 -10.7508 85.8608 -10.9892 86.0992Z" fill="#313C6C"/>
<path d="M-12.5514 84.7224C-16.2898 87.0091 -19.7745 89.9204 -24.0338 91.2316C-25.194 91.5899 -26.3953 91.801 -27.6136 91.8231C-27.9537 91.8317 -27.9576 91.3025 -27.6175 91.2939C-23.1868 91.2046 -19.3444 88.5584 -15.8133 86.2011C-14.8221 85.5415 -13.8332 84.8796 -12.8172 84.2579C-12.5295 84.0822 -12.2637 84.5422 -12.5537 84.7201L-12.5514 84.7224Z" fill="#313C6C"/>
<path d="M-12.2776 85.9673C-14.2951 87.6399 -15.9319 89.6933 -17.1285 92.0279C-18.3251 94.3625 -19.047 96.8496 -19.4949 99.4077C-19.5524 99.743 -20.0649 99.6013 -20.0073 99.2705C-19.0793 94.0011 -16.815 89.0397 -12.6517 85.5932C-12.3931 85.3794 -12.0146 85.7536 -12.2753 85.9695L-12.2776 85.9673Z" fill="#313C6C"/>
<path d="M-14.854 87.5268C-17.0068 88.6669 -18.9435 90.1378 -21.2339 91.0123C-23.0918 91.7189 -25.1729 92.3349 -27.1937 92.0752C-27.5275 92.0327 -27.5359 91.5035 -27.1976 91.546C-25.2169 91.7965 -23.1936 91.1934 -21.3733 90.4977C-19.1273 89.6406 -17.2261 88.1784 -15.1199 87.0623C-14.8231 86.9044 -14.5551 87.3667 -14.8563 87.5245L-14.854 87.5268Z" fill="#313C6C"/>
<path d="M-10.8567 87.472C-11.7648 88.2457 -12.6638 89.0372 -13.4845 89.9072C-14.3051 90.7771 -15.0245 91.8101 -15.6323 92.9017C-16.8522 95.0939 -17.9337 97.3671 -19.234 99.5141C-19.4097 99.8019 -19.8719 99.5383 -19.6962 99.2505C-18.3673 97.0614 -17.2706 94.7417 -16.0198 92.5097C-14.7691 90.2778 -13.1022 88.6916 -11.2352 87.0979C-10.9812 86.8797 -10.6026 87.2538 -10.8589 87.4742L-10.8567 87.472Z" fill="#313C6C"/>
<path d="M-16.4024 89.5052C-18.3816 91.8562 -19.3812 94.9616 -19.9638 97.9501C-20.028 98.2831 -20.5426 98.1436 -20.4762 97.8128C-19.8743 94.7289 -18.8196 91.555 -16.7788 89.1289C-16.5606 88.8704 -16.1864 89.2489 -16.4024 89.5052Z" fill="#313C6C"/>
<path d="M-17.905 90.1611C-20.0717 91.5168 -22.674 91.9955 -25.1726 92.3749C-25.5057 92.4258 -25.6474 91.9133 -25.3098 91.8625C-22.8556 91.4916 -20.2954 91.0327 -18.1664 89.7011C-17.8809 89.5231 -17.6151 89.9831 -17.9028 90.1633L-17.905 90.1611Z" fill="#313C6C"/>
<path d="M-13.7956 84.5463C-17.8123 87.3802 -22.207 89.6199 -26.6494 91.7147C-26.9529 91.8569 -27.221 91.3991 -26.913 91.2524C-22.4706 89.1577 -18.0759 86.918 -14.0592 84.0841C-13.785 83.8905 -13.5214 84.3527 -13.7956 84.5463Z" fill="#313C6C"/>
<path d="M34.2376 39.4566C34.2179 39.4987 34.1982 39.5408 34.1808 39.5851L34.2659 39.3745C34.2376 39.4477 34.2114 39.5187 34.183 39.5918C34.1328 39.7182 34.0851 39.869 34.0059 39.984C33.8585 40.1986 33.7658 40.2913 33.5512 40.4387C33.4915 40.4805 33.4205 40.5022 33.3518 40.5306C33.2742 40.5634 33.2011 40.5917 33.1189 40.6111L32.8946 40.6384C32.779 40.6419 32.6676 40.6189 32.5649 40.5648C32.487 40.5442 32.4222 40.5059 32.364 40.4476C32.2634 40.3824 32.1827 40.2973 32.1241 40.1857C32.0361 40.0139 31.957 39.8376 31.8867 39.657C31.8346 39.5254 31.8046 39.3762 31.808 39.2384C31.8095 39.1383 31.8198 39.0384 31.848 38.943C31.9133 38.7433 31.9748 38.646 32.107 38.4869C32.1996 38.3764 32.3302 38.2951 32.4452 38.2159C32.5513 38.1411 32.662 38.0708 32.7704 37.9938C32.87 37.9345 32.9765 37.8997 33.092 37.8961C33.2031 37.8747 33.3165 37.8778 33.4279 37.9142C33.6597 37.987 33.8431 38.1263 33.9736 38.3362C34.1154 38.5663 34.235 38.8095 34.3214 39.0637C34.3624 39.1885 34.3789 39.3242 34.391 39.4555C34.4008 39.5668 34.3839 39.6867 34.3535 39.7932C34.2472 40.1459 33.9715 40.444 33.6007 40.5191C33.3765 40.5641 33.1408 40.5579 32.9223 40.4851C32.7551 40.4283 32.5856 40.3559 32.4382 40.2614C32.3265 40.1894 32.2236 40.1086 32.1229 40.0256C32.0827 39.9942 32.0424 39.9583 32.0065 39.9225C31.9169 39.8329 31.8428 39.7278 31.7708 39.625C31.7034 39.5311 31.6648 39.413 31.624 39.306C31.6172 39.2903 31.6126 39.2725 31.608 39.2547C31.5919 39.1768 31.5801 39.0899 31.5751 39.0099C31.575 39.001 31.5749 38.9921 31.5749 38.9832C31.5749 38.9832 31.5748 38.9743 31.5748 38.9698C31.5766 38.9143 31.5912 38.7921 31.6019 38.7366C31.6041 38.7299 31.604 38.721 31.6062 38.7144C31.6084 38.7122 31.6084 38.7077 31.6083 38.7033C31.6257 38.6412 31.6672 38.5414 31.6957 38.486C31.7023 38.4794 31.7022 38.4705 31.7066 38.4617C31.7088 38.4594 31.7132 38.455 31.7154 38.4528C31.7484 38.4019 31.8233 38.3047 31.863 38.2605C31.8696 38.2539 31.8762 38.2472 31.8828 38.2406C31.9159 38.2075 31.9646 38.1768 31.9978 38.1525C32.0332 38.1261 32.0751 38.0886 32.1172 38.0645C32.2234 37.9986 32.3454 37.9572 32.4653 37.927C32.4986 37.9206 32.5319 37.9142 32.5652 37.9077C32.674 37.893 32.7873 37.8783 32.8984 37.8702C32.9984 37.8643 33.0941 37.8672 33.1942 37.8746C33.2542 37.8773 33.3143 37.8844 33.3766 37.8893C33.4922 37.8857 33.6035 37.9088 33.7062 37.9629C33.8199 37.9971 33.9182 38.0601 34.0011 38.1519C34.0907 38.237 34.1537 38.3353 34.1901 38.4468C34.2442 38.5495 34.2673 38.6608 34.2637 38.7764C34.2565 39.0031 34.1826 39.2383 34.0104 39.3971L33.8247 39.538C33.6918 39.6126 33.5454 39.6515 33.3897 39.6504C33.1983 39.6312 33.0048 39.6186 32.816 39.6417L33.0404 39.6144C32.9737 39.6228 32.9071 39.6357 32.8451 39.6619L33.0556 39.5768C33.0268 39.5877 32.998 39.603 32.9737 39.6228L33.1594 39.4819C33.1462 39.4952 33.133 39.5084 33.1197 39.5216L33.2606 39.3359C33.2606 39.3359 33.2452 39.3603 33.2387 39.3758L33.3238 39.1652C33.3238 39.1652 33.3129 39.194 33.3108 39.2096L33.3381 38.9852C33.3381 38.9852 33.3361 39.0185 33.3407 39.0364L33.3101 38.8116C33.3125 38.836 33.3194 38.8605 33.3307 38.8851L33.2424 38.6732C33.2605 38.7178 33.2875 38.758 33.3166 38.796L33.1729 38.6082C33.2336 38.6865 33.3074 38.7559 33.3857 38.8166L33.1979 38.6729C33.2963 38.7492 33.4057 38.8145 33.5195 38.862L33.3076 38.7737C33.3678 38.7986 33.428 38.8191 33.4925 38.8263L33.2677 38.7957C33.2989 38.8004 33.3278 38.8028 33.3589 38.7986L33.1345 38.8258C33.1345 38.8258 33.1723 38.8194 33.1878 38.8129L32.9772 38.898C32.9772 38.898 33.0038 38.8849 33.0149 38.8783L32.8291 39.0192C32.8291 39.0192 32.8468 39.0015 32.8556 38.9927L32.7147 39.1784C32.7147 39.1784 32.7279 39.1563 32.7345 39.1452L32.6493 39.3558C32.6559 39.3403 32.6602 39.3226 32.6623 39.3026L32.635 39.5269C32.6393 39.4958 32.639 39.4647 32.6343 39.4335L32.6649 39.6583C32.6554 39.5782 32.6259 39.5002 32.5965 39.4266L32.6848 39.6385C32.6236 39.489 32.5425 39.3461 32.457 39.2076L33.6602 39.5457C33.5363 39.6337 33.408 39.7128 33.2863 39.803L33.4721 39.6621C33.4345 39.6907 33.3991 39.7216 33.3661 39.7592L33.507 39.5734C33.4915 39.5889 33.4828 39.6111 33.474 39.6288L33.5592 39.4182C33.5592 39.4182 33.5505 39.4493 33.5484 39.4648L33.5756 39.2404C33.5736 39.2604 33.5737 39.2827 33.5761 39.3027L33.5455 39.0779C33.5527 39.138 33.5753 39.196 33.598 39.2539L33.5097 39.0421C33.5527 39.1424 33.6023 39.2406 33.652 39.3388L32.6594 38.9157C32.7038 38.9071 32.7437 38.8941 32.7859 38.8788L32.5753 38.9639C32.6152 38.9465 32.6528 38.9267 32.6882 38.9003L32.5025 39.0412C32.5334 39.0148 32.5599 38.9883 32.5863 38.9574L32.4454 39.1431C32.4961 39.079 32.5289 39.0058 32.5595 38.9305L32.4743 39.1411C32.5485 38.9549 32.6094 38.7641 32.6992 38.5847C32.754 38.4761 32.8334 38.3922 32.9352 38.3263C33.0213 38.2491 33.1232 38.1965 33.2386 38.1707C33.3518 38.1382 33.4629 38.1345 33.5743 38.1576C33.6899 38.1629 33.7969 38.1993 33.8974 38.2601C34.094 38.386 34.2666 38.5719 34.3195 38.8057L34.3501 39.0305C34.3512 39.1862 34.3145 39.3304 34.2377 39.4655L34.2376 39.4566Z" fill="#313C6C"/>
<path d="M17.0831 54.3083C17.0571 54.4015 17.0289 54.4924 16.9962 54.5833C16.9417 54.723 16.8916 54.8671 16.8214 55C16.7601 55.1196 16.6719 55.2257 16.5904 55.3296C16.5133 55.4246 16.4116 55.495 16.312 55.5632C16.2235 55.6248 16.1149 55.6663 16.0128 55.6922C16.0062 55.6944 15.9995 55.6965 15.9906 55.6965C15.924 55.7093 15.8285 55.7197 15.7596 55.7259C15.7596 55.7259 15.7529 55.728 15.7485 55.728C15.7396 55.7279 15.7351 55.7279 15.7262 55.7278C15.7262 55.7278 15.7196 55.7256 15.7174 55.7278C15.6573 55.7251 15.5438 55.7087 15.4859 55.6949C15.4703 55.6926 15.4569 55.688 15.4435 55.6835C15.3677 55.6562 15.2875 55.6245 15.216 55.5884C15.2116 55.5839 15.2026 55.5794 15.1959 55.5771C15.1893 55.5749 15.1847 55.5659 15.1781 55.5637C15.1088 55.5165 15.0372 55.4626 14.9723 55.4065C14.9611 55.3953 14.9499 55.3841 14.9387 55.3729C14.7772 55.1849 14.6827 55.0286 14.6098 54.7879C14.5756 54.6787 14.568 54.5608 14.5561 54.4518C14.5491 54.4095 14.5488 54.3694 14.5485 54.325C14.5522 54.2316 14.5671 54.1361 14.5797 54.0428C14.5818 54.0228 14.5861 54.0006 14.5904 53.9784C14.6162 53.863 14.6687 53.7522 14.7147 53.6481C14.7606 53.5439 14.8532 53.4379 14.9193 53.3539C14.9457 53.3185 14.9788 53.2898 15.0142 53.259C15.1136 53.1819 15.2086 53.0959 15.3261 53.0456C15.4435 52.9953 15.5632 52.9384 15.6898 52.9194C15.8253 52.9004 15.9652 52.8769 16.1053 52.8847C16.1431 52.8872 16.1809 52.8897 16.2165 52.8944C16.3278 52.9085 16.4413 52.9205 16.5527 52.9436C16.5972 52.9528 16.6395 52.9642 16.6863 52.9757C16.84 53.0191 16.974 53.0957 17.086 53.2077C17.1756 53.2928 17.2386 53.3911 17.275 53.5026C17.3291 53.6053 17.3522 53.7166 17.3486 53.8322C17.3498 53.9879 17.313 54.1321 17.2362 54.2672C17.1705 54.3956 17.098 54.5174 17.0211 54.6391C16.9573 54.7387 16.8958 54.8361 16.8522 54.9469L16.9373 54.7363C16.9286 54.7585 16.9221 54.7784 16.9133 54.8006C16.8875 54.916 16.8372 55.0202 16.7577 55.1041C16.694 55.2036 16.6101 55.2831 16.4993 55.34C16.3997 55.3993 16.2933 55.4341 16.1777 55.4377C16.0667 55.4591 15.9532 55.456 15.8418 55.4196L15.6299 55.3313C15.4892 55.248 15.3795 55.1383 15.2961 54.9976L15.2078 54.7857C15.1689 54.6364 15.1656 54.4874 15.2045 54.341C15.2698 54.1458 15.3507 53.9663 15.4606 53.7937C15.5441 53.6609 15.6276 53.5281 15.6977 53.3863L16.2498 54.6756C16.1696 54.6528 16.0872 54.6366 16.0049 54.6249L16.2297 54.6554C16.1384 54.6436 16.045 54.6385 15.9517 54.6511L16.1761 54.6239C16.1139 54.6323 16.0562 54.6453 15.9963 54.6693L16.2069 54.5841C16.1626 54.6016 16.1205 54.6257 16.0807 54.6566L16.2664 54.5156C16.2288 54.5443 16.1957 54.5774 16.1693 54.6127L16.3102 54.427C16.2816 54.4646 16.2552 54.5089 16.2378 54.5532L16.3229 54.3426C16.3033 54.3936 16.2904 54.4469 16.2841 54.5024L16.3113 54.2781C16.3029 54.3403 16.3034 54.4025 16.3127 54.4648L16.2822 54.24C16.2915 54.2979 16.303 54.3536 16.3256 54.4071L16.2374 54.1952C16.2554 54.2354 16.2757 54.2733 16.3027 54.3091L16.159 54.1213C16.1769 54.1437 16.1971 54.1638 16.2195 54.1818L16.0316 54.0381C16.0451 54.0515 16.0651 54.0583 16.083 54.0674L15.8711 53.9791C15.8711 53.9791 15.9001 53.9904 15.9179 53.9905L15.6931 53.96C15.6931 53.96 15.7264 53.9624 15.742 53.9603L15.5176 53.9876C15.5176 53.9876 15.5509 53.9811 15.5664 53.9746L15.3559 54.0597C15.3802 54.0488 15.4024 54.0356 15.4223 54.0202L15.2365 54.1611C15.2741 54.1325 15.305 54.0971 15.3337 54.064L15.1927 54.2497C15.261 54.1591 15.3091 54.0572 15.3506 53.953L15.2655 54.1636C15.3069 54.0594 15.3417 53.9529 15.372 53.8419C15.3978 53.7265 15.4482 53.6224 15.5276 53.5385C15.5914 53.4389 15.6753 53.3595 15.786 53.3025C15.8856 53.2432 15.9921 53.2084 16.1077 53.2048C16.2187 53.1834 16.3321 53.1865 16.4436 53.2229L16.6554 53.3112C16.7961 53.3945 16.9059 53.5043 16.9892 53.645L17.0775 53.8569C17.1164 54.0061 17.1198 54.1551 17.0808 54.3016L17.0831 54.3083Z" fill="#313C6C"/>
<path d="M30.4184 42.2319C30.4112 42.4587 30.3907 42.6942 30.3256 42.9116C30.2909 43.027 30.2473 43.1423 30.1925 43.2508C30.1444 43.3527 30.0717 43.4433 30.0011 43.5273C29.9108 43.64 29.7893 43.7392 29.6541 43.7982C29.5676 43.8354 29.4812 43.877 29.3879 43.8896C29.208 43.9172 29.1302 43.9144 28.9521 43.8864C28.6404 43.8351 28.3474 43.5995 28.1964 43.3293C28.1018 43.1596 28.0537 42.9747 28.0479 42.7835C28.0449 42.6879 28.0597 42.5879 28.079 42.4924C28.1005 42.3948 28.1443 42.2973 28.1881 42.2042C28.2384 42.1001 28.3156 42.0095 28.3861 41.9211C28.4323 41.8658 28.4853 41.8129 28.5428 41.7688C28.6555 41.6785 28.7683 41.5926 28.8967 41.5224C29.0362 41.4457 29.187 41.389 29.3333 41.3322L29.5021 41.3113C29.5888 41.3097 29.6735 41.3281 29.7494 41.3687C29.8051 41.3847 29.8564 41.414 29.899 41.4565C29.975 41.506 30.0355 41.5709 30.0783 41.6535C30.2654 41.9907 30.4149 42.3564 30.331 42.7404C30.3202 42.7826 30.3027 42.8225 30.2852 42.8624C30.2677 42.9023 30.2547 42.9467 30.2328 42.9821C30.1976 43.0441 30.1492 43.1015 30.1029 43.1568C30.0896 43.17 30.0786 43.181 30.0654 43.1943C29.9682 43.2914 29.851 43.3683 29.7336 43.4364C29.6318 43.4979 29.5278 43.5571 29.426 43.6231C29.2932 43.711 29.0821 43.725 28.9306 43.6839C28.7724 43.6405 28.5981 43.5191 28.5213 43.3673C28.4446 43.2156 28.4033 43.0374 28.4532 42.871L28.5165 42.7136C28.5757 42.6095 28.6574 42.5279 28.7637 42.4664C28.9097 42.3697 29.0692 42.2953 29.2085 42.1873L29.067 42.293C29.1024 42.2666 29.1333 42.2357 29.1597 42.2003L29.054 42.3418C29.0716 42.3197 29.0826 42.2954 29.0935 42.271L29.0302 42.4284C29.0411 42.404 29.0454 42.3773 29.0474 42.3529L29.0264 42.5217C29.0307 42.4906 29.0282 42.4573 29.0235 42.4261L29.047 42.5953C29.0375 42.5196 29.0103 42.4482 28.9831 42.3769L29.0488 42.5352C29.0126 42.4505 28.9697 42.3679 28.9246 42.2875L29.6696 42.6043C29.6696 42.6043 29.6453 42.6153 29.6319 42.6196L29.7893 42.5563C29.6364 42.6197 29.488 42.6919 29.3575 42.791L29.499 42.6853C29.4261 42.7404 29.3576 42.8043 29.3026 42.8773L29.4082 42.7358C29.3708 42.7867 29.3379 42.8376 29.316 42.8952L29.3794 42.7378C29.3619 42.7821 29.3511 42.8288 29.3448 42.8754L29.3658 42.7066C29.3594 42.7488 29.362 42.791 29.3667 42.8311L29.3432 42.6619C29.348 42.702 29.3594 42.7399 29.3752 42.7778L29.3095 42.6194C29.3254 42.6574 29.3457 42.6953 29.3704 42.7288L29.2626 42.5857C29.2873 42.6193 29.3187 42.6506 29.3545 42.6776L29.2113 42.5698C29.2449 42.5945 29.2806 42.617 29.3208 42.6351L29.1624 42.5694C29.1981 42.583 29.2337 42.5922 29.2694 42.5969L29.1002 42.5734C29.1358 42.5781 29.1669 42.5784 29.2025 42.5742L29.0337 42.5952C29.0692 42.591 29.1047 42.5823 29.1357 42.5692L28.9784 42.6325C29.016 42.6173 29.0492 42.5975 29.0824 42.5733L28.9409 42.679C28.9829 42.6459 29.0182 42.6106 29.0513 42.5686L28.9456 42.7101C28.9918 42.6504 29.0269 42.5795 29.0575 42.5086L28.9942 42.666C29.0444 42.5396 29.0723 42.4042 29.0891 42.2709L29.0681 42.4398C29.0764 42.3642 29.0825 42.2865 29.0864 42.2109C29.094 42.0375 29.1505 41.869 29.2741 41.7454C29.3889 41.6306 29.5751 41.5475 29.7397 41.5576C29.9043 41.5677 30.0892 41.6247 30.208 41.7523C30.3268 41.8799 30.4126 42.0451 30.4027 42.2207L30.4184 42.2319Z" fill="#313C6C"/>
<path d="M12.7547 58.8697C12.7033 59.145 12.6319 59.4091 12.5137 59.6617C12.4612 59.7725 12.3886 59.872 12.3114 59.9626C12.2078 60.0841 12.0661 60.1586 11.9152 60.2064C11.7866 60.2499 11.6176 60.2442 11.4839 60.2076C11.3279 60.162 11.2118 60.09 11.0931 59.9802C11.0148 59.9107 10.9563 59.8213 10.9001 59.7341C10.8415 59.6403 10.8007 59.5333 10.7622 59.433C10.7169 59.317 10.6848 59.1967 10.6661 59.072C10.6497 58.9541 10.631 58.8383 10.6279 58.7205C10.6248 58.6026 10.6418 58.4915 10.6587 58.3805C10.6928 58.1717 10.798 57.968 10.9414 57.8156C11.1201 57.628 11.4038 57.5144 11.6642 57.5408C11.7465 57.5481 11.8399 57.5577 11.9224 57.5828C12.0093 57.6079 12.0963 57.6463 12.1788 57.6848C12.2659 57.7232 12.3463 57.7727 12.4245 57.8244C12.5206 57.8896 12.61 57.9615 12.7017 58.0355C12.9634 58.2442 12.9547 58.5666 12.9035 58.8552C12.8971 58.893 12.8863 58.9307 12.8732 58.9662C12.8405 59.0527 12.81 59.1414 12.7662 59.2211C12.7026 59.3385 12.6144 59.4445 12.5262 59.5461C12.4667 59.6146 12.4027 59.6786 12.3387 59.7426C12.2195 59.8618 12.0444 59.9339 11.8732 59.9304C11.7865 59.932 11.7018 59.9135 11.6259 59.873C11.5412 59.8456 11.4675 59.7984 11.4048 59.7312C11.2882 59.6059 11.2002 59.4384 11.2101 59.2629C11.2199 59.0873 11.2742 58.9209 11.3978 58.7973C11.4839 58.7113 11.5722 58.623 11.647 58.5257L11.5414 58.6672C11.5854 58.6097 11.6227 58.5455 11.6511 58.4813L11.5878 58.6387C11.6096 58.581 11.6248 58.5211 11.631 58.4611L11.61 58.6299C11.6142 58.5944 11.6161 58.5566 11.6159 58.521L11.8106 58.9894C11.7837 58.967 11.7591 58.9468 11.7301 58.9265L11.8732 59.0343C11.7636 58.9513 11.6474 58.8748 11.5203 58.8183L11.6786 58.8839C11.6273 58.8635 11.5738 58.8453 11.5159 58.836L11.6851 58.8595C11.6539 58.8548 11.6184 58.8546 11.5873 58.8588L11.7561 58.8378C11.7294 58.842 11.705 58.8485 11.6829 58.8573L11.8402 58.794C11.8181 58.8027 11.7959 58.8159 11.7783 58.8291L11.9198 58.7234C11.8977 58.741 11.8822 58.7609 11.8624 58.7808L11.9681 58.6393C11.9461 58.6702 11.9285 58.7012 11.9154 58.7367L11.9787 58.5793C11.9569 58.637 11.944 58.6947 11.9378 58.7547L11.9588 58.5858C11.9484 58.6903 11.9492 58.797 11.9656 58.9016L11.9421 58.7325C11.9586 58.8593 11.9906 58.9841 12.0404 59.1001L11.9748 58.9417C12.0019 59.0086 12.0358 59.0733 12.0807 59.1315L11.9729 58.9884C11.9953 59.0152 12.0177 59.0421 12.0446 59.0601L11.9015 58.9523C11.9149 58.9657 11.9328 58.9747 11.9528 58.9816L11.7945 58.9159C11.7945 58.9159 11.8212 58.925 11.8368 58.9273L11.6676 58.9038C11.6676 58.9038 11.6921 58.9062 11.7032 58.9041L11.5344 58.9251C11.5344 58.9251 11.561 58.9208 11.5721 58.9143L11.4147 58.9776C11.4302 58.971 11.448 58.9622 11.4634 58.9512L11.3219 59.0569C11.3462 59.0371 11.3661 59.0128 11.3881 58.9907L11.2825 59.1322C11.3287 59.0725 11.3615 58.9994 11.3899 58.9307L11.3266 59.0881C11.3986 58.9041 11.4416 58.7087 11.4757 58.5133C11.4951 58.4267 11.5323 58.3492 11.5919 58.2852C11.6402 58.2099 11.7043 58.1504 11.7862 58.1087C11.8593 58.0626 11.9413 58.0387 12.0281 58.0372C12.1124 58.02 12.1947 58.0228 12.2794 58.0501C12.4466 58.1025 12.6074 58.206 12.6886 58.3667L12.7543 58.5251C12.7841 58.6387 12.7849 58.7498 12.7568 58.8586L12.7547 58.8697Z" fill="#313C6C"/>
<path d="M22.9988 48.8137C22.9988 48.8137 22.9899 48.8136 22.9877 48.8158L23.1565 48.7949C23.1565 48.7949 23.1454 48.797 23.141 48.797L23.2984 48.7337C23.2984 48.7337 23.2895 48.738 23.2851 48.7425L23.4266 48.6368C23.4266 48.6368 23.4156 48.6478 23.4112 48.6522L23.5168 48.5107C23.5168 48.5107 23.5015 48.5351 23.4971 48.5484L23.5604 48.391C23.519 48.4996 23.4977 48.6195 23.4295 48.7191C23.3437 48.8452 23.2908 48.9115 23.158 48.9905C23.0982 49.0279 23.0317 49.0541 22.9607 49.0713C22.8187 49.1058 22.6452 49.1046 22.507 49.0502C22.4267 49.0184 22.342 48.9867 22.2661 48.9461C22.2482 48.9371 22.2348 48.9281 22.2169 48.919C22.1008 48.847 21.9934 48.7617 21.9258 48.6412C21.847 48.505 21.8303 48.3514 21.8403 48.1981C21.8463 48.1069 21.8567 48.0114 21.876 47.9204C21.8975 47.8183 21.9345 47.7141 21.9939 47.6278C22.0907 47.4862 22.1304 47.4465 22.272 47.3497C22.3295 47.3101 22.4093 47.284 22.4692 47.2645C22.6689 47.2037 22.856 47.2495 23.0563 47.2777L22.8872 47.2542C22.9295 47.2612 22.9717 47.2637 23.0162 47.2596L22.8473 47.2806C22.8473 47.2806 22.8851 47.2742 22.9006 47.2677C22.9827 47.2438 23.0671 47.24 23.1518 47.2584C23.2385 47.2613 23.3188 47.2886 23.3947 47.3336C23.4773 47.3765 23.5422 47.437 23.5917 47.5129C23.6522 47.5779 23.6906 47.656 23.7112 47.7428C23.748 47.9077 23.7405 48.0899 23.6505 48.2382L23.5448 48.3797C23.4609 48.4636 23.3613 48.5184 23.2459 48.5487C23.0396 48.6117 22.8369 48.5679 22.6299 48.5375L22.799 48.561C22.7634 48.5562 22.7234 48.5515 22.6878 48.5557L22.8567 48.5347C22.8567 48.5347 22.8256 48.5389 22.8101 48.5455L22.9674 48.4822C22.9674 48.4822 22.9431 48.4931 22.9298 48.5019L23.0713 48.3962C23.0713 48.3962 23.0492 48.4183 23.0382 48.4293L23.1439 48.2878C23.1307 48.3055 23.1197 48.3254 23.111 48.3476L23.1743 48.1902C23.159 48.2323 23.1505 48.2767 23.1441 48.3234L23.1651 48.1546C23.1589 48.2101 23.1571 48.2657 23.1575 48.3235L22.8197 47.7473C22.8711 47.7811 22.9247 47.8126 22.9804 47.8375L22.8221 47.7718C22.8466 47.7831 22.8734 47.7922 22.9023 47.7946L22.7331 47.7711C22.7331 47.7711 22.7621 47.7736 22.7754 47.7737L22.6066 47.7947C22.6066 47.7947 22.6266 47.7926 22.6354 47.7882L22.478 47.8515C22.478 47.8515 22.4958 47.8427 22.5002 47.8383L22.3587 47.944C22.3587 47.944 22.3741 47.9286 22.3807 47.9219L22.2751 48.0634C22.2883 48.0502 22.2948 48.0302 22.3014 48.0147L22.2381 48.1721C22.2468 48.15 22.2533 48.1255 22.2598 48.1056C22.2815 48.0301 22.3098 47.957 22.3449 47.8861C22.3493 47.8772 22.3537 47.8684 22.358 47.8595C22.3822 47.8219 22.4372 47.7445 22.4703 47.7114C22.4747 47.707 22.477 47.7048 22.4814 47.7003C22.4924 47.6893 22.6096 47.599 22.6251 47.5925C22.6251 47.5925 22.6273 47.5903 22.6295 47.588C22.6317 47.5858 22.6317 47.5858 22.6339 47.5836C22.6516 47.5749 22.778 47.5247 22.7958 47.5204C22.798 47.5181 22.8046 47.516 22.8091 47.516C22.8202 47.5139 22.969 47.495 22.9779 47.495C22.9779 47.495 22.9823 47.4951 22.9868 47.4951C23.0735 47.4935 23.1581 47.5119 23.234 47.5525C23.3187 47.5798 23.3924 47.6271 23.4552 47.6942C23.5224 47.757 23.5696 47.8307 23.5969 47.9154C23.6375 47.9913 23.6559 48.076 23.6543 48.1627C23.6489 48.3338 23.5925 48.5113 23.4666 48.6282L23.3251 48.7339C23.2232 48.7909 23.1167 48.8168 22.9989 48.8181L22.9988 48.8137Z" fill="#313C6C"/>
<path d="M5.99896 65.6254C5.95464 65.943 5.89466 66.2494 5.75005 66.5374C5.58572 66.863 5.28306 67.1253 4.95061 67.2696C4.84876 67.3267 4.74223 67.3525 4.62439 67.3539C4.53769 67.3555 4.45307 67.337 4.37717 67.2965C4.19875 67.224 4.01295 67.0558 3.98254 66.8533C3.93568 66.5328 3.86636 66.1809 3.97743 65.8683C4.04927 65.662 4.1503 65.4938 4.30476 65.3348C4.44597 65.1891 4.61628 65.0681 4.77996 64.9537C4.96575 64.8217 5.24173 64.8593 5.43369 64.9586C5.72164 65.1097 5.93505 65.4026 5.92419 65.736C5.9205 65.8382 5.90558 65.9249 5.8707 66.018C5.85328 66.0668 5.83585 66.1156 5.82735 66.1688L5.84833 66C5.84626 66.02 5.84642 66.0423 5.8488 66.0623L5.82531 65.8931C5.82531 65.8931 5.83225 65.931 5.83904 65.9466C5.88688 66.1004 5.85503 66.3025 5.77825 66.442C5.70147 66.5815 5.53795 66.7181 5.37367 66.7525C5.01181 66.8276 4.67461 66.6316 4.56523 66.2751C4.51284 66.1079 4.5158 65.9078 4.56794 65.7437C4.58527 65.6816 4.61817 65.6218 4.62881 65.5574L4.60783 65.7262C4.60783 65.7262 4.60764 65.6995 4.60754 65.6862L4.63103 65.8553C4.63103 65.8553 4.62638 65.8286 4.61963 65.8174L4.68529 65.9758C4.68529 65.9758 4.67402 65.9557 4.66951 65.9468L4.7773 66.0899C4.76162 66.0742 4.74594 66.0585 4.73026 66.0428L4.87336 66.1506C4.85099 66.1327 4.82421 66.1191 4.79743 66.1056L5.45116 66.1105C5.41578 66.1369 5.3804 66.1633 5.34502 66.1897L5.48653 66.084C5.37598 66.1677 5.26992 66.2559 5.18625 66.3664L5.29192 66.2249C5.26112 66.2691 5.23477 66.3134 5.2129 66.3622L5.27621 66.2048C5.25654 66.2513 5.2458 66.3024 5.23727 66.3512L5.25826 66.1824C5.24363 66.309 5.26017 66.4403 5.27668 66.5672L5.25319 66.398C5.26017 66.4403 5.26716 66.4826 5.2697 66.5249L4.30165 66.113C4.4014 66.0715 4.49439 66.0188 4.58284 65.9528L4.44132 66.0585C4.50763 66.0056 4.57167 65.946 4.6223 65.8775L4.51663 66.019C4.56947 65.9483 4.61113 65.8707 4.64608 65.7865L4.58277 65.9439C4.66568 65.7311 4.69733 65.5023 4.72901 65.278C4.75005 65.118 4.90665 64.948 5.03951 64.8734C5.17236 64.7988 5.37887 64.7625 5.53488 64.8126C5.70203 64.865 5.86289 64.9684 5.94413 65.1291L6.00979 65.2875C6.03954 65.4011 6.04037 65.5123 6.01227 65.621L5.99896 65.6254Z" fill="#313C6C"/>
<path d="M20.0189 51.4396C20.0189 51.4396 20.0145 51.444 20.0123 51.4463L20.1026 51.3246C20.1026 51.3246 20.096 51.3357 20.0916 51.3446L20.1462 51.2093C20.1462 51.2093 20.1397 51.2338 20.1376 51.2449L20.1565 51.1005C20.1523 51.136 20.1548 51.1738 20.1551 51.2094C20.1533 51.2739 20.1449 51.3405 20.1343 51.4005C20.1321 51.4071 20.1322 51.416 20.13 51.4227C20.1278 51.4249 20.1278 51.4293 20.1256 51.436L20.0711 51.5712C20.0711 51.5712 20.0688 51.5734 20.0666 51.5756C20.0403 51.6243 20.0007 51.673 19.9654 51.7127C19.9632 51.7149 19.961 51.7171 19.9588 51.7193C19.9455 51.7326 19.8505 51.8053 19.8327 51.814C19.7287 51.8733 19.6354 51.8948 19.5154 51.8984C19.362 51.9039 19.217 51.8428 19.0831 51.7751C18.9916 51.7233 18.9177 51.6493 18.8658 51.5578C18.8163 51.4685 18.7889 51.3749 18.7904 51.2749C18.79 51.2259 18.7896 51.1726 18.7892 51.1236C18.7889 51.0747 18.7952 51.0236 18.8015 50.9725C18.8078 50.9259 18.8119 50.8815 18.8227 50.8348C18.8313 50.7993 18.8377 50.766 18.8463 50.7305C18.8528 50.7017 18.8593 50.6728 18.8635 50.6462C18.8678 50.6284 18.8721 50.6106 18.8742 50.5907C18.8741 50.5818 18.8785 50.5729 18.8785 50.564C18.8806 50.5574 18.8806 50.5529 18.8828 50.5462L18.9374 50.411L19.0276 50.2894C19.0408 50.2762 19.1381 50.2013 19.1536 50.1947C19.1581 50.1903 19.1625 50.1904 19.1692 50.1882C19.1957 50.175 19.2268 50.1664 19.2534 50.1532C19.2889 50.1402 19.3265 50.1204 19.3665 50.1118C19.402 50.1032 19.4375 50.099 19.4709 50.097C19.5042 50.0951 19.5419 50.0842 19.5753 50.0867C19.6242 50.0915 19.6799 50.0986 19.7289 50.1079C19.7311 50.1101 19.7378 50.1079 19.7422 50.1124C19.7445 50.1146 19.7489 50.1147 19.7556 50.117C19.7757 50.1238 19.8783 50.1646 19.8961 50.1736C19.8961 50.1736 19.8984 50.1758 19.9006 50.1781C19.9028 50.1803 19.9073 50.1848 19.9096 50.187C19.9319 50.2005 19.9945 50.2499 19.9722 50.2364C19.9722 50.2364 20.0191 50.2701 20.037 50.288C20.0438 50.2948 20.0482 50.2992 20.055 50.3059C20.0706 50.3216 20.138 50.4111 20.1493 50.4312C20.1493 50.4312 20.1515 50.4334 20.1538 50.4356C20.156 50.4379 20.1582 50.4401 20.1605 50.4424C20.1875 50.4915 20.208 50.5472 20.2261 50.6007C20.2329 50.6163 20.2375 50.6342 20.2376 50.6519C20.2516 50.7365 20.2656 50.8211 20.2595 50.9034C20.2533 50.9678 20.2472 51.0367 20.2343 51.0988C20.2171 51.1743 20.1842 51.2385 20.1335 51.2982C20.0917 51.3624 20.0365 51.4131 19.9657 51.4526C19.8993 51.4921 19.8327 51.5139 19.7549 51.5155C19.6816 51.5305 19.6105 51.5255 19.5369 51.505L19.4009 51.4484C19.3093 51.3966 19.2354 51.3226 19.1836 51.2311L19.127 51.095C19.1018 50.9992 19.1011 50.9014 19.1248 50.806C19.127 50.7949 19.1269 50.786 19.1291 50.7793L19.1101 50.9237C19.1143 50.8837 19.1162 50.8415 19.1092 50.7992L19.1303 50.9439C19.1279 50.9238 19.1233 50.9016 19.1143 50.8837L19.1709 51.0198C19.1709 51.0198 19.1596 50.9997 19.1529 50.9885L19.245 51.1115C19.245 51.1115 19.2293 51.0958 19.2226 51.0891L19.3455 51.1812C19.3455 51.1812 19.3321 51.1722 19.3232 51.1676L19.4592 51.2242C19.4592 51.2242 19.4414 51.2197 19.4347 51.2174L19.5794 51.2385C19.5794 51.2385 19.5527 51.2383 19.5394 51.2382L19.6838 51.2192C19.6571 51.2235 19.6327 51.23 19.6083 51.2409L19.7436 51.1863C19.7436 51.1863 19.7192 51.1973 19.7103 51.2017L19.979 50.8523C19.964 50.9345 19.9468 51.0144 19.9274 51.0965C19.9188 51.1321 19.9102 51.1676 19.906 51.2031L19.9249 51.0587C19.9166 51.1343 19.9194 51.2121 19.92 51.2877L19.6272 50.7875C19.6451 50.7965 19.6629 50.8055 19.683 50.8123L19.5469 50.7557C19.5692 50.7648 19.5937 50.7717 19.616 50.7763L19.4713 50.7552C19.4713 50.7552 19.4936 50.7554 19.5069 50.7555L19.3625 50.7744C19.3625 50.7744 19.3736 50.7722 19.3803 50.7701L19.245 50.8247C19.245 50.8247 19.2539 50.8203 19.2583 50.8159L19.1367 50.9061C19.1367 50.9061 19.1433 50.8995 19.1477 50.8951L19.0575 51.0167C19.0575 51.0167 19.0663 51.0079 19.0685 50.9968L19.0139 51.132C19.0139 51.132 19.0204 51.1076 19.0225 51.0965L19.0036 51.2409C19.0099 51.1987 19.0052 51.1586 19.0071 51.1164C19.011 51.0497 19.015 50.983 19.0301 50.9187C19.0625 50.8011 19.113 50.7103 19.1968 50.622C19.252 50.5668 19.3117 50.525 19.3872 50.5033C19.4536 50.4682 19.5247 50.4554 19.6025 50.4582C19.6781 50.4543 19.7494 50.4727 19.8186 50.5065C19.8921 50.5315 19.9569 50.5698 20.0107 50.628L20.1027 50.751C20.1523 50.8403 20.1797 50.9339 20.1782 51.0339L20.1593 51.1783C20.1333 51.276 20.0851 51.3645 20.0122 51.4374L20.0189 51.4396Z" fill="#313C6C"/>
<path d="M8.54948 62.9673C8.53209 63.0206 8.51028 63.0782 8.48397 63.1269C8.47734 63.1336 8.47521 63.1447 8.46859 63.1513C8.43779 63.1955 8.40478 63.242 8.36729 63.2839C8.36288 63.2883 8.35847 63.2928 8.35405 63.2972C8.30991 63.3413 8.2524 63.3809 8.2015 63.4139C8.16833 63.4381 8.13062 63.4489 8.09293 63.4642C8.05304 63.4817 8.01535 63.497 7.97094 63.5056C7.91544 63.5163 7.85769 63.5247 7.80212 63.5265C7.78878 63.5264 7.77768 63.5286 7.76654 63.5263C7.69091 63.5213 7.61303 63.514 7.53947 63.489C7.45702 63.4639 7.37671 63.4278 7.30084 63.3916L7.17786 63.2995C7.12186 63.2435 7.07916 63.1832 7.05637 63.1074C7.03159 63.065 7.01788 63.016 7.01752 62.967C7.00141 62.8936 7.00533 62.8224 7.0248 62.7492C7.03781 62.7048 7.05302 62.6583 7.06159 62.6138C7.06584 62.5872 7.07008 62.5605 7.07654 62.5317C7.08296 62.4984 7.09383 62.4651 7.10694 62.4341C7.14838 62.3254 7.19429 62.2213 7.24466 62.1172C7.29512 62.0264 7.36795 61.9535 7.45874 61.9031C7.54732 61.8548 7.64051 61.8288 7.74059 61.8318C7.88734 61.8329 8.03433 61.8651 8.16162 61.9394C8.27551 62.0048 8.38523 62.1101 8.44836 62.2262C8.48446 62.2976 8.5184 62.3757 8.53678 62.4558C8.54367 62.4848 8.54835 62.516 8.55968 62.545L8.50308 62.4089C8.50308 62.4089 8.5121 62.4268 8.51883 62.4335L8.42675 62.3105C8.42675 62.3105 8.43571 62.3195 8.44019 62.3239L8.31721 62.2319C8.31721 62.2319 8.32394 62.2386 8.33062 62.2409L8.19457 62.1843C8.19457 62.1843 8.20795 62.1888 8.21463 62.1911L8.06995 62.17C8.06995 62.17 8.07885 62.1701 8.08329 62.1701C8.15886 62.1662 8.23015 62.1845 8.29933 62.2184C8.37289 62.2434 8.43766 62.2817 8.49145 62.3399C8.54745 62.3959 8.59015 62.4562 8.61295 62.532C8.64902 62.599 8.66289 62.6702 8.66124 62.748L8.64231 62.8924C8.61636 62.9901 8.5681 63.0786 8.49527 63.1515L8.37365 63.2417C8.28507 63.29 8.19188 63.316 8.0918 63.313C8.03175 63.3103 7.9739 63.3055 7.91596 63.2872C7.8647 63.2713 7.81344 63.2554 7.76653 63.2261C7.76653 63.2261 7.76205 63.2216 7.75981 63.2194C7.73747 63.2059 7.65472 63.1408 7.63235 63.1228C7.62788 63.1183 7.62563 63.1161 7.62115 63.1116C7.59651 63.087 7.54262 63.0154 7.5246 62.9842C7.5246 62.9842 7.52235 62.9819 7.52011 62.9797C7.49083 62.9283 7.4704 62.8726 7.45218 62.8146C7.43403 62.7656 7.43143 62.7144 7.41327 62.6654L7.46988 62.8014C7.46309 62.7858 7.45406 62.768 7.44507 62.7546L7.53714 62.8775C7.53714 62.8775 7.51698 62.8574 7.50578 62.8462L7.62876 62.9382C7.62876 62.9382 7.60418 62.9225 7.58857 62.9157L7.72462 62.9723C7.70456 62.9655 7.68449 62.9587 7.66002 62.9563L7.8047 62.9774C7.8047 62.9774 7.76909 62.9726 7.7513 62.9725L8.24723 62.6872C8.21874 62.7425 8.19248 62.8001 8.17068 62.8578L8.22526 62.7226C8.2056 62.7691 8.19262 62.8179 8.18409 62.8668C8.17566 62.929 8.15833 62.9911 8.13877 63.051L7.86269 62.4041C7.8783 62.4109 7.89616 62.42 7.91177 62.4267L7.77572 62.3701C7.81364 62.386 7.85152 62.3974 7.89158 62.4021L7.7469 62.381C7.77137 62.3834 7.79585 62.3859 7.82029 62.3838L7.67591 62.4027C7.69591 62.4007 7.71587 62.3941 7.73362 62.3898L7.5984 62.4444C7.61391 62.4379 7.63164 62.4291 7.64712 62.4181L7.5255 62.5084C7.53874 62.4951 7.5542 62.4797 7.56744 62.4664L7.47718 62.588C7.49042 62.5748 7.49918 62.5571 7.5035 62.5393L7.44892 62.6745C7.44892 62.6745 7.44892 62.6745 7.45113 62.6723C7.46835 62.5969 7.50122 62.5326 7.55192 62.473C7.59369 62.4088 7.6489 62.3581 7.71975 62.3186C7.78616 62.2791 7.8527 62.2573 7.93051 62.2557C8.00377 62.2407 8.07496 62.2456 8.14849 62.2662L8.28454 62.3228C8.37609 62.3746 8.45001 62.4485 8.50183 62.5401L8.55843 62.6761C8.5836 62.7719 8.58433 62.8698 8.56058 62.9652L8.54948 62.9673Z" fill="#313C6C"/>
<path d="M1.72732 69.7537C1.80796 69.8343 1.87547 69.9415 1.89853 70.0529C1.92851 70.1976 1.92225 70.2532 1.90331 70.3975C1.90127 70.422 1.89479 70.4464 1.88606 70.4686C1.85991 70.5395 1.83375 70.6105 1.79867 70.6769C1.76359 70.7434 1.70848 70.8074 1.66223 70.8671C1.64461 70.8892 1.62474 70.9091 1.60485 70.9245C1.54961 70.9708 1.49219 71.0237 1.42571 71.0543C1.30383 71.109 1.22178 71.1373 1.08615 71.1385L0.941475 71.1174C0.865742 71.0991 0.801008 71.0653 0.740591 71.0137C0.695921 70.9867 0.660078 70.9508 0.633064 70.9061C0.581509 70.8502 0.545435 70.7832 0.529291 70.7053C0.517826 70.6585 0.5086 70.6139 0.49048 70.5693L0.547081 70.7054C0.535748 70.6764 0.519966 70.6474 0.502012 70.625L0.594088 70.748C0.594088 70.748 0.573927 70.7278 0.564934 70.7144C0.533506 70.6742 0.495359 70.6272 0.466139 70.5847C0.466139 70.5847 0.461658 70.5802 0.459419 70.578L0.454939 70.5735C0.448153 70.5579 0.402885 70.4508 0.398306 70.433L0.396067 70.4308C0.396067 70.4308 0.393791 70.4241 0.395998 70.4219C0.391418 70.4041 0.37501 70.2906 0.374878 70.2728C0.374878 70.2728 0.372641 70.2705 0.374847 70.2683C0.374847 70.2683 0.374781 70.2594 0.376987 70.2572C0.37883 70.2061 0.387327 70.1528 0.395824 70.0995C0.400072 70.0728 0.406559 70.0484 0.417496 70.0241C0.445757 69.9375 0.485153 69.8534 0.51786 69.7669C0.528763 69.7381 0.541904 69.7115 0.552807 69.6827C0.559362 69.6671 0.565914 69.6516 0.57247 69.6361C0.576883 69.6317 0.576855 69.6272 0.579029 69.6206L0.625275 69.5609C0.651627 69.5166 0.686939 69.4813 0.731213 69.455L0.790901 69.4087L0.926123 69.3541C0.926123 69.3541 0.937227 69.352 0.943882 69.3498C1.00828 69.3392 1.07272 69.333 1.13936 69.3246C1.15491 69.3225 1.1727 69.3226 1.19048 69.3228C1.20382 69.3229 1.21716 69.323 1.2283 69.3253C1.27949 69.3323 1.33289 69.3372 1.38632 69.3465C1.39301 69.3487 1.39969 69.351 1.40635 69.3488C1.40859 69.3511 1.41528 69.3533 1.41973 69.3534C1.46654 69.3693 1.52231 69.3942 1.56915 69.4145C1.57808 69.419 1.587 69.4235 1.59372 69.4303C1.63171 69.455 1.68761 69.4977 1.72342 69.5291C1.72566 69.5313 1.73014 69.5358 1.73238 69.538C1.73462 69.5403 1.7391 69.5447 1.74134 69.547C1.75926 69.5649 1.79296 69.6118 1.79072 69.6096C1.79744 69.6163 1.82663 69.6543 1.84014 69.6767C1.84686 69.6834 1.85137 69.6923 1.85365 69.699C1.87621 69.7436 1.89664 69.7994 1.91479 69.8484C1.91703 69.8507 1.91931 69.8574 1.91934 69.8618C1.92385 69.8707 1.92392 69.8796 1.92623 69.8908C1.93776 69.9464 1.94263 70.0043 1.94972 70.0599C1.95446 70.1 1.95252 70.1378 1.95947 70.1756L1.93839 70.0309C1.93839 70.0309 1.94303 70.0576 1.94982 70.0733L1.89322 69.9372C1.89322 69.9372 1.89777 69.9506 1.90449 69.9573L1.81241 69.8343L1.81689 69.8388C1.87289 69.8948 1.91559 69.9552 1.93839 70.0309C1.97446 70.0979 1.98833 70.1692 1.98668 70.247C1.9917 70.3226 1.97444 70.3936 1.9416 70.4623C1.91768 70.5355 1.88036 70.5997 1.82294 70.6526L1.70133 70.7429C1.61275 70.7911 1.51956 70.8171 1.41948 70.8142L1.2748 70.7931C1.17676 70.7657 1.08746 70.7161 1.01353 70.6422C0.923925 70.5526 0.883307 70.4722 0.844595 70.3496C0.824137 70.2895 0.821405 70.2205 0.816494 70.1582C0.81399 70.1204 0.811481 70.0826 0.806736 70.0425L0.827826 70.1872C0.823214 70.1649 0.818596 70.1427 0.811777 70.1226L0.868378 70.2587C0.868378 70.2587 0.859318 70.2364 0.850357 70.2274L0.942432 70.3504C0.942432 70.3504 0.926752 70.3347 0.917791 70.3257L1.04077 70.4178C1.04077 70.4178 1.01843 70.4043 1.0095 70.3998L1.14556 70.4564C1.14556 70.4564 1.11436 70.4473 1.09654 70.4427L1.24122 70.4638C1.20561 70.459 1.16783 70.461 1.13228 70.4652L1.27666 70.4462C1.27666 70.4462 1.24113 70.4504 1.22337 70.4547L1.57267 70.1861C1.54863 70.2415 1.52461 70.3013 1.50056 70.3567L1.55515 70.2215C1.5311 70.2769 1.50709 70.3368 1.49642 70.3967L1.51536 70.2523C1.51536 70.2523 1.51549 70.2701 1.51556 70.279L1.49447 70.1343C1.49447 70.1343 1.49677 70.1455 1.49905 70.1522L1.44245 70.0161C1.44245 70.0161 1.4492 70.0273 1.45372 70.0362L1.36163 69.9132C1.41326 69.9781 1.4693 70.0386 1.50985 70.11C1.54813 70.1748 1.57089 70.2461 1.59586 70.3152C1.60947 70.3509 1.61867 70.391 1.62786 70.4311L1.071 69.9978C1.071 69.9978 1.08209 69.9957 1.08878 69.9979L0.944399 70.0169C0.944399 70.0169 0.968813 70.0104 0.982121 70.006L0.846891 70.0606C0.864614 70.0518 0.882336 70.0431 0.900024 70.0299L0.778412 70.1201C0.80493 70.0981 0.829203 70.0738 0.85124 70.0473L0.760983 70.1689C0.787401 70.1335 0.80934 70.0937 0.82683 70.0538L0.772251 70.189C0.783154 70.1602 0.791819 70.1291 0.796034 70.098L0.7771 70.2424C0.7771 70.2424 0.779102 70.2135 0.776762 70.1979L0.797852 70.3426C0.797852 70.3426 0.793274 70.3248 0.791 70.3181L0.847601 70.4542C0.847601 70.4542 0.840845 70.443 0.838572 70.4363L0.930647 70.5593C0.930647 70.5593 0.926167 70.5548 0.923927 70.5526C0.867924 70.4966 0.82523 70.4362 0.802431 70.3604C0.766357 70.2935 0.752487 70.2222 0.754131 70.1444C0.749121 70.0688 0.766378 69.9977 0.799219 69.9291C0.823132 69.8559 0.860456 69.7917 0.917871 69.7387L1.03949 69.6485C1.12807 69.6002 1.22126 69.5742 1.32134 69.5772L1.46602 69.5983C1.56405 69.6257 1.65336 69.6753 1.72729 69.7492L1.72732 69.7537Z" fill="#313C6C"/>
<path d="M26.2762 45.832C26.2762 45.832 26.263 45.8452 26.2564 45.8519L26.3268 45.759C26.3136 45.7722 26.307 45.7877 26.3005 45.8077L26.342 45.7035C26.3354 45.7235 26.3289 45.7434 26.3269 45.7634L26.3394 45.6524C26.3374 45.6857 26.3377 45.7213 26.3379 45.7524C26.3406 45.8169 26.3344 45.8813 26.3238 45.9457C26.3067 46.039 26.2474 46.1431 26.1812 46.2048C26.1039 46.2776 26.0043 46.3369 25.8999 46.3517C25.8421 46.3602 25.7777 46.3708 25.7177 46.3681C25.5887 46.3672 25.4749 46.3107 25.3875 46.2189C25.3763 46.2077 25.3629 46.1943 25.3517 46.1831C25.3113 46.1383 25.2754 46.0891 25.2417 46.0422C25.2304 46.0265 25.2214 46.0087 25.2124 45.9908C25.192 45.9484 25.1694 45.8993 25.158 45.8526C25.1395 45.759 25.1346 45.6923 25.1561 45.5991C25.1776 45.5059 25.2325 45.4151 25.301 45.3511C25.3518 45.3048 25.4071 45.2674 25.4646 45.2323C25.4956 45.2147 25.5266 45.1972 25.5554 45.1729L25.4625 45.2434C25.4846 45.2258 25.5023 45.2081 25.5199 45.186L25.4494 45.2789C25.4626 45.2612 25.4714 45.2434 25.4801 45.2213L25.4387 45.3255C25.4387 45.3255 25.443 45.3166 25.443 45.3122C25.4559 45.2545 25.48 45.2035 25.5197 45.1593C25.5527 45.1084 25.5946 45.0709 25.65 45.0424C25.6987 45.0117 25.7542 44.9965 25.8119 44.9925C25.8675 44.9818 25.9231 44.9844 25.9788 45.0004C26.088 45.0346 26.1974 45.1043 26.2516 45.2115C26.3012 45.3097 26.3333 45.4344 26.2985 45.5409C26.2811 45.5897 26.2637 45.6429 26.2373 45.6872C26.211 45.7314 26.1757 45.7757 26.1427 45.8132C26.1008 45.864 26.0366 45.9058 25.9858 45.9432C25.9415 45.974 25.8906 45.9981 25.8463 46.0289L25.9392 45.9584C25.9392 45.9584 25.9193 45.9783 25.9105 45.9871L25.981 45.8943C25.981 45.8943 25.9699 45.9053 25.97 45.9142L26.0115 45.81C26.0115 45.81 26.0071 45.8233 26.0049 45.83L26.0175 45.7189C26.0175 45.7189 26.0176 45.7322 26.0198 45.7389L26.0057 45.6276C26.0057 45.6276 26.0103 45.6499 26.0148 45.6588L25.9718 45.554C25.9831 45.5786 25.9966 45.6009 26.0145 45.6233L25.9427 45.5293C25.9673 45.5584 25.992 45.5875 26.0189 45.6144L25.7066 45.4831C25.7066 45.4831 25.7467 45.4834 25.7644 45.4791L25.6533 45.4916C25.6733 45.4895 25.6955 45.4853 25.7133 45.4765L25.6091 45.518C25.6091 45.518 25.6268 45.5092 25.6357 45.5048L25.5428 45.5753C25.5428 45.5753 25.5538 45.5642 25.5605 45.5576L25.49 45.6505C25.49 45.6505 25.4988 45.6372 25.5032 45.6283L25.4617 45.7325C25.4617 45.7325 25.4704 45.7104 25.4703 45.697L25.4578 45.8081C25.4641 45.757 25.4548 45.7036 25.4567 45.6525C25.4585 45.6013 25.467 45.5525 25.4756 45.5036C25.4777 45.4881 25.482 45.4748 25.4864 45.4615C25.5234 45.3528 25.565 45.2753 25.6466 45.1892C25.6886 45.1472 25.735 45.1142 25.7927 45.0969C25.8437 45.0728 25.8969 45.0599 25.957 45.0625C26.017 45.0607 26.0705 45.0745 26.1218 45.0993C26.1797 45.1175 26.2289 45.149 26.2692 45.1938L26.3411 45.2877C26.3794 45.3569 26.3977 45.4282 26.4005 45.5061C26.3947 45.6239 26.3577 45.7325 26.2739 45.8164L26.2762 45.832Z" fill="#313C6C"/>
<path d="M-1.68833 73.8772C-1.76818 73.9033 -1.85027 73.9271 -1.93246 73.9376C-1.99021 73.9461 -2.05906 73.9567 -2.12132 73.9562C-2.16803 73.9537 -2.21477 73.9466 -2.25931 73.9374C-2.28603 73.9328 -2.31281 73.9192 -2.33735 73.9079C-2.36189 73.8966 -2.3864 73.8898 -2.40874 73.8763C-2.49367 73.8178 -2.53171 73.7842 -2.58795 73.6971C-2.63519 73.6233 -2.65364 73.5343 -2.65875 73.4453C-2.66135 73.3941 -2.6551 73.3386 -2.63767 73.2898C-2.62242 73.2477 -2.60496 73.2033 -2.58527 73.1612C-2.58088 73.1524 -2.5743 73.1413 -2.56992 73.1324C-2.53477 73.0749 -2.4907 73.0219 -2.44883 72.971C-2.42459 72.9423 -2.3981 72.9158 -2.37386 72.8871C-2.33192 72.8452 -2.28548 72.8122 -2.2278 72.7948C-2.17684 72.7707 -2.12357 72.7578 -2.06352 72.7604C-2.0035 72.7587 -1.95003 72.7724 -1.89871 72.7972C-1.84076 72.8155 -1.79161 72.847 -1.75126 72.8917L-1.6794 72.9856C-1.64109 73.0549 -1.62278 73.1261 -1.61997 73.204L-1.63249 73.3151C-1.65192 73.3927 -1.68924 73.4569 -1.74662 73.5143C-1.78193 73.5496 -1.81504 73.5827 -1.84363 73.6248L-1.77317 73.5319C-1.79297 73.5607 -1.81498 73.5916 -1.82809 73.6227L-1.78661 73.5185C-1.78661 73.5185 -1.79534 73.5406 -1.79524 73.554L-1.78273 73.4429C-1.78273 73.4429 -1.78263 73.4562 -1.78256 73.4651L-1.79673 73.3539C-1.79673 73.3539 -1.79443 73.365 -1.79219 73.3672L-1.83521 73.2624C-1.83521 73.2624 -1.82849 73.2691 -1.82846 73.2736L-1.9003 73.1797C-1.9003 73.1797 -1.89358 73.1864 -1.89134 73.1886L-1.98527 73.1168C-1.98527 73.1168 -1.9763 73.1257 -1.96741 73.1258L-2.07224 73.0828C-2.07224 73.0828 -2.04993 73.0918 -2.03659 73.0919L-2.14787 73.0778C-2.11671 73.0825 -2.08782 73.0804 -2.05672 73.0762L-2.1678 73.0887C-2.08116 73.0783 -1.99907 73.0544 -1.91922 73.0283C-1.86375 73.0132 -1.80817 73.0114 -1.7525 73.0229C-1.69465 73.0278 -1.64119 73.0415 -1.5898 73.0752C-1.53399 73.1046 -1.49146 73.1427 -1.45773 73.1941C-1.41517 73.2366 -1.39033 73.288 -1.37877 73.3481L-1.3646 73.4594C-1.36403 73.535 -1.3835 73.6082 -1.42079 73.6768L-1.49125 73.7697C-1.54642 73.8249 -1.61283 73.8644 -1.69051 73.8838L-1.68833 73.8772Z" fill="#313C6C"/>
<path d="M36.3391 37.1087C36.3391 37.1087 36.3325 37.1153 36.3303 37.1175L36.4007 37.0247C36.3875 37.0379 36.381 37.0579 36.3744 37.0734L36.4159 36.9692C36.3853 37.049 36.3749 37.1357 36.3577 37.2156C36.3276 37.3576 36.2775 37.4973 36.1738 37.6055C36.1319 37.6475 36.0854 37.6805 36.0278 37.6978C35.9768 37.7219 35.9235 37.7348 35.8635 37.7322C35.7456 37.7246 35.6385 37.6838 35.5512 37.6009C35.5445 37.5942 35.54 37.5897 35.5333 37.583L35.6272 37.6548C35.6048 37.6369 35.5781 37.6233 35.5513 37.6142L35.6561 37.6573C35.6182 37.6414 35.5759 37.63 35.538 37.6141C35.4689 37.5892 35.3931 37.5619 35.3327 37.5192C35.2969 37.4923 35.2567 37.4653 35.2231 37.4317C35.2097 37.4183 35.1558 37.3511 35.1468 37.3333L35.1241 37.2798C35.0993 37.2284 35.0856 37.175 35.0873 37.115C35.0871 37.0883 35.0892 37.0638 35.0912 37.0394C35.0973 36.9661 35.1034 36.8883 35.1229 36.8151C35.1424 36.7507 35.1642 36.6842 35.1994 36.6311C35.2257 36.5868 35.2565 36.547 35.2896 36.5095C35.2984 36.5006 35.3073 36.4918 35.3161 36.483C35.4067 36.4058 35.5041 36.3443 35.6239 36.3185C35.7039 36.3013 35.7861 36.2997 35.8661 36.2914L35.755 36.3039C35.755 36.3039 35.7883 36.2975 35.8038 36.2909L35.6996 36.3324C35.6996 36.3324 35.7107 36.3258 35.7174 36.3236L35.6245 36.3941C35.6245 36.3941 35.6289 36.3897 35.6311 36.3875C35.7106 36.308 35.8258 36.26 35.9415 36.2608C36.0015 36.2591 36.0549 36.2728 36.1063 36.2976C36.1642 36.3159 36.2134 36.3473 36.2537 36.3921C36.33 36.4772 36.3886 36.5888 36.385 36.7044C36.3814 36.82 36.3445 36.9331 36.2584 37.0147C36.2429 37.0302 36.2186 37.0456 36.2053 37.0543C36.2053 37.0543 36.1699 37.0852 36.1522 37.094C36.1146 37.1137 36.0724 37.129 36.0325 37.142C36.0192 37.1463 36.0059 37.1507 35.9926 37.1506C35.9215 37.1634 35.8526 37.1651 35.7815 37.1735L35.8926 37.161C35.8615 37.1652 35.8326 37.1716 35.8038 37.1825L35.908 37.1411C35.8903 37.1498 35.8748 37.1564 35.8571 37.1696L35.9499 37.0991C35.9367 37.1124 35.9234 37.1256 35.9102 37.1389L35.9807 37.046C35.9674 37.0637 35.9565 37.0836 35.9477 37.1058L35.9892 37.0016C35.9739 37.0393 35.9675 37.077 35.9612 37.1148L35.9737 37.0037C35.9673 37.0415 35.9676 37.0815 35.9678 37.1171L35.8366 36.8048C35.8366 36.8048 35.8478 36.816 35.8545 36.8227L35.7606 36.7509C35.7829 36.7688 35.8097 36.7824 35.8365 36.7915L35.7316 36.7484C35.7762 36.7666 35.8253 36.7803 35.8699 36.7984C35.9903 36.8437 36.0751 36.8844 36.1714 36.9763L35.5488 36.9716C35.5488 36.9716 35.5554 36.965 35.5576 36.9628L35.4871 37.0557C35.5004 37.0424 35.5069 37.0225 35.5134 37.0069L35.472 37.1111C35.5025 37.0313 35.513 36.9447 35.5302 36.8648C35.5602 36.7227 35.6103 36.583 35.714 36.4748C35.7913 36.3976 35.9132 36.3473 36.0244 36.3482C36.0844 36.3464 36.1379 36.3601 36.1892 36.385C36.2471 36.4032 36.2963 36.4347 36.3366 36.4795C36.4129 36.5645 36.4715 36.6761 36.4679 36.7917C36.4643 36.9073 36.4229 37.0159 36.3413 37.1021L36.3391 37.1087Z" fill="#313C6C"/>
<path d="M37.7942 50.6759C37.2701 51.0656 36.5265 52.1228 35.801 51.4371C35.1964 50.8678 35.6203 49.8748 36.0903 49.3825L36.4039 49.6961C35.7611 50.2672 34.7407 50.5842 34.0242 49.9119C33.3077 49.2395 33.6673 48.2617 34.2722 47.6881L34.5372 48.0369C33.8356 48.4786 32.7321 48.6816 32.1504 47.9057C31.5688 47.1299 32.2473 46.2855 32.9337 45.8993C33.1795 45.7611 33.4003 46.1452 33.1545 46.2834C32.6983 46.5379 32.0624 47.1246 32.5245 47.6795C32.9867 48.2343 33.8207 47.9648 34.3164 47.6528C34.5244 47.521 34.7625 47.834 34.5814 48.0016C34.1553 48.4054 33.7892 49.1119 34.3287 49.6029C34.8682 50.0938 35.6242 49.7948 36.0858 49.3825C36.2935 49.1973 36.5958 49.4908 36.3994 49.6961C36.1215 49.9875 35.619 50.8887 36.1726 51.1774C36.4427 51.3195 36.7606 51.0151 36.9439 50.8497C37.1537 50.6622 37.3479 50.4591 37.5734 50.2918C37.799 50.1245 38.0175 50.5108 37.7942 50.6759Z" fill="#313C6C"/>
<path d="M29.6705 57.0523C29.2402 57.496 28.4895 58.8067 27.7115 58.2317C26.8507 57.5916 27.7989 56.5403 28.2933 56.046L28.6069 56.3596C28.0504 56.8713 26.9203 57.6833 26.2251 56.8866C25.5972 56.166 26.0666 55.0066 26.4996 54.3361L26.802 54.6385C26.1004 55.0624 24.9067 55.4004 24.2871 54.6131C23.6676 53.8259 24.5301 52.9007 25.1986 52.501C25.4399 52.3583 25.6606 52.7423 25.4193 52.8851C24.9965 53.1376 24.1565 53.7984 24.6477 54.369C25.1389 54.9397 26.0854 54.5532 26.5813 54.2545C26.7606 54.1468 27.0024 54.3754 26.8837 54.5569C26.5628 55.0525 26.0983 55.9785 26.5229 56.562C26.9766 57.1835 27.9488 56.3636 28.2933 56.046C28.5009 55.8563 28.8078 56.1587 28.6069 56.3596C28.373 56.5935 27.3467 57.6109 28.0092 57.9071C28.2569 58.0179 28.5477 57.6643 28.6911 57.512C28.9227 57.2624 29.1208 56.9837 29.3568 56.7387C29.5532 56.5378 29.8668 56.8514 29.6705 57.0523Z" fill="#313C6C"/>
<path d="M17.2991 67.7929C16.8136 68.2873 15.8679 69.6855 15.0464 68.9434C14.2249 68.2013 15.201 67.0146 15.7329 66.4738L16.0465 66.7874C15.3833 67.2983 14.266 67.7525 13.5448 67.049C12.8236 66.3454 13.4385 65.3094 14.0393 64.7803L14.353 65.0939C13.9178 65.4753 13.0386 65.9513 12.5868 65.2964C12.135 64.6416 12.79 63.9194 13.2698 63.5561C13.4931 63.3866 13.7117 63.7729 13.4906 63.9402C13.2341 64.1339 12.6689 64.6723 12.9497 65.0546C13.2304 65.4369 13.8295 64.9677 14.0416 64.7825C14.2536 64.5973 14.5673 64.911 14.3552 65.0961C13.9576 65.4445 13.3052 66.2223 13.856 66.7422C14.4069 67.2622 15.2687 66.8395 15.7351 66.4761C15.9518 66.3087 16.2517 66.5822 16.0487 66.7897C15.7927 67.0457 15.5681 67.3331 15.3948 67.6542C15.2478 67.9221 15.0467 68.3876 15.3532 68.6322C15.635 68.8566 16.0103 68.5037 16.2069 68.3206C16.4851 68.0603 16.7185 67.7552 16.9855 67.4837C17.1841 67.2851 17.4955 67.5964 17.2991 67.7973L17.2991 67.7929Z" fill="#313C6C"/>
<path d="M39.7578 44.4426C39.5733 44.7481 39.3268 45.0931 38.9652 45.1994C38.7167 45.2731 38.4537 45.1867 38.2832 44.9853C37.8458 44.464 37.9753 43.6445 38.2424 43.0906L38.5913 43.3556C38.1719 43.766 37.5185 44.1147 36.9402 43.7835C36.4757 43.5177 36.3335 42.9341 36.5079 42.4551C36.6496 42.076 36.9276 41.789 37.255 41.5646C37.4872 41.4041 37.7058 41.7903 37.4757 41.9487C37.2258 42.1225 36.9874 42.3609 36.903 42.6649C36.8423 42.8823 36.8638 43.0848 36.9919 43.2614C37.084 43.3888 37.2737 43.4814 37.4804 43.4718C37.7893 43.4541 38.0635 43.2516 38.2754 43.0397C38.4542 42.8609 38.7293 43.0876 38.6242 43.3047C38.4337 43.7013 38.3336 44.2808 38.5854 44.6607C38.6506 44.7568 38.7265 44.8018 38.8463 44.7627C39.0592 44.6931 39.2484 44.4144 39.3692 44.2129C39.5164 43.9717 39.9004 44.1924 39.7533 44.4337L39.7578 44.4426Z" fill="#313C6C"/>
<path d="M24.9721 61.4998C24.5293 62.0591 23.6155 62.6593 22.9746 61.9919C22.3338 61.3245 22.778 60.3651 23.2785 59.8063L23.5922 60.1199C23.1063 60.561 22.3712 60.9735 21.7148 60.6129C21.208 60.3356 21.0654 59.7031 21.2573 59.1931C21.41 58.794 21.7146 58.4939 22.0687 58.2698C22.3054 58.1181 22.5262 58.5022 22.2894 58.6538C21.8468 58.9352 21.3667 59.5541 21.7374 60.0661C21.852 60.2248 22.0661 60.3198 22.2973 60.3082C22.6729 60.2909 23.0113 60.0511 23.2785 59.8063C23.4861 59.6166 23.7796 59.9101 23.5922 60.1199C23.2547 60.4932 22.8601 61.2373 23.2836 61.6829C23.7072 62.1285 24.3633 61.5575 24.6585 61.1862C24.8325 60.9674 25.1461 61.281 24.9721 61.4998Z" fill="#313C6C"/>
<path d="M12.5961 71.6178C12.2145 72.0307 11.6416 72.4333 11.0426 72.311C10.5705 72.2141 10.3514 71.7478 10.4926 71.3108C10.6078 70.9537 10.8725 70.6622 11.1553 70.4242C11.3652 70.2456 11.672 70.5392 11.4689 70.7378C11.065 71.1328 10.447 71.455 9.88883 71.144C9.42889 70.8871 9.27341 70.3123 9.40322 69.8286C9.50058 69.4669 9.73841 69.1574 10.0212 68.9193C10.2356 68.7408 10.5514 69.0523 10.3349 69.233C9.93489 69.5657 9.60345 70.1436 9.92261 70.604C9.96307 70.6621 10.0392 70.7294 10.1217 70.7722C10.1954 70.8106 10.2845 70.829 10.3845 70.8275C10.6802 70.8231 10.9478 70.6227 11.153 70.4219L11.4667 70.7355C11.2369 70.9295 10.983 71.17 10.903 71.474C10.8814 71.5583 10.8752 71.6272 10.9002 71.7007C10.9047 71.7141 10.9071 71.7297 10.9363 71.7722C10.9071 71.7297 11.0146 71.8417 10.9766 71.8125C11.0481 71.8619 11.1038 71.8779 11.1728 71.8851C11.2841 71.8948 11.3796 71.88 11.4861 71.8496C11.8011 71.7586 12.0596 71.5359 12.278 71.2997C12.4676 71.0921 12.7813 71.4057 12.5916 71.6133L12.5961 71.6178Z" fill="#313C6C"/>
<path d="M33.5102 54.3416C32.9736 54.8379 32.1456 55.3253 31.4045 54.9329C30.8398 54.633 30.6967 53.9382 30.9194 53.384C31.0875 52.9695 31.4231 52.6518 31.8017 52.4256C32.0407 52.2806 32.2615 52.6647 32.0224 52.8097C31.852 52.9129 31.7503 52.9878 31.609 53.1335C31.5848 53.1577 31.5605 53.182 31.5407 53.2063C31.5274 53.2196 31.5142 53.2373 31.5032 53.2527C31.4635 53.3014 31.5274 53.2151 31.49 53.266C31.4437 53.3301 31.3998 53.3965 31.3647 53.4674C31.3494 53.4962 31.3385 53.525 31.3231 53.5538C31.31 53.5848 31.3405 53.505 31.3231 53.5538C31.3166 53.5693 31.31 53.5848 31.3079 53.6004C31.2862 53.6669 31.2711 53.7313 31.2583 53.8023C31.2498 53.8556 31.2601 53.7557 31.2583 53.8068C31.2562 53.8223 31.2563 53.8357 31.2542 53.8512C31.2521 53.8757 31.2523 53.9023 31.2525 53.9246C31.2527 53.9557 31.2552 53.9846 31.2576 54.0136C31.2484 53.9646 31.2602 54.0647 31.2576 54.0136C31.26 54.0336 31.2646 54.0514 31.2691 54.0692C31.2738 54.0959 31.2829 54.1227 31.2898 54.1517C31.2944 54.1695 31.3306 54.2542 31.3012 54.1895C31.3238 54.2386 31.3486 54.2899 31.3801 54.3346C31.389 54.3436 31.398 54.357 31.4048 54.3682C31.4296 54.4106 31.3667 54.3301 31.4003 54.3637C31.4205 54.3839 31.4362 54.404 31.4563 54.4242C31.472 54.4398 31.4877 54.4555 31.5056 54.4734C31.5168 54.4846 31.557 54.5116 31.5034 54.4712C31.519 54.4824 31.5347 54.4937 31.5481 54.5027C31.5727 54.5184 31.595 54.5319 31.6218 54.5455C31.6374 54.5522 31.7221 54.5884 31.6597 54.5657C31.7155 54.5862 31.7734 54.6044 31.8291 54.6159C31.8447 54.6183 31.8602 54.6206 31.8758 54.6229C31.8179 54.6136 31.8736 54.6207 31.8825 54.6208C31.9158 54.6232 31.947 54.6235 31.9804 54.6259C32.0137 54.6284 32.0493 54.6242 32.0826 54.6223C32.0915 54.6223 32.1492 54.6139 32.0959 54.6224C32.1137 54.618 32.1315 54.6182 32.1492 54.6139C32.3491 54.5798 32.4666 54.5295 32.6327 54.4396C32.8497 54.3211 33.0221 54.189 33.201 54.0191C33.4063 53.8272 33.7199 54.1408 33.5146 54.3327L33.5102 54.3416Z" fill="#313C6C"/>
<path d="M18.4998 61.8252C18.0496 62.2754 17.3394 62.7571 16.668 62.4652C16.1327 62.2345 16.0322 61.5822 16.193 61.0854C16.3322 60.664 16.6052 60.3058 16.9254 60.008C17.1308 59.8161 17.4444 60.1297 17.239 60.3216C16.9807 60.5621 16.7956 60.7875 16.6513 61.111C16.625 61.1686 16.6643 61.0711 16.6425 61.1288C16.6381 61.1421 16.6338 61.1509 16.6294 61.1642C16.6163 61.1997 16.6055 61.233 16.5968 61.2685C16.5795 61.3306 16.5688 61.3906 16.5604 61.4528C16.5689 61.395 16.5584 61.4772 16.5585 61.495C16.5565 61.5239 16.5567 61.5506 16.5569 61.5817C16.5572 61.6128 16.5618 61.6351 16.562 61.6618C16.5645 61.6996 16.5597 61.6551 16.5597 61.6506C16.5642 61.6685 16.5666 61.6885 16.5712 61.7063C16.5804 61.7509 16.5963 61.7932 16.61 61.8378C16.5872 61.7709 16.619 61.8512 16.628 61.869C16.6415 61.8914 16.6572 61.9115 16.6685 61.9361C16.6888 61.974 16.6394 61.9069 16.6573 61.9249C16.664 61.9316 16.673 61.9405 16.6797 61.9473C16.6954 61.9629 16.7088 61.9764 16.7245 61.9921C16.7335 62.001 16.7424 62.01 16.7514 62.0189C16.7828 62.0503 16.7067 61.9919 16.7447 62.0122C16.767 62.0257 16.7871 62.0414 16.8095 62.055C16.8296 62.0662 16.8496 62.073 16.8675 62.0821C16.805 62.0505 16.8675 62.0821 16.8898 62.0867C16.9143 62.0935 16.9388 62.1004 16.961 62.105C16.9722 62.1073 16.9833 62.1096 16.9944 62.1119C16.9321 62.0981 16.9944 62.1119 17.0078 62.112C17.0589 62.1146 17.1078 62.1105 17.1567 62.1109C17.2079 62.1091 17.1123 62.1195 17.1656 62.111C17.1767 62.1088 17.1878 62.1067 17.1989 62.1045C17.2367 62.0982 17.2722 62.0895 17.3077 62.0809C17.3454 62.0701 17.3832 62.0592 17.4186 62.0461C17.4319 62.0418 17.4408 62.0374 17.4541 62.0331C17.4076 62.0527 17.4851 62.02 17.4896 62.0155C17.5649 61.9805 17.6402 61.9411 17.7132 61.8949C17.8881 61.7873 18.025 61.6682 18.1795 61.5137C18.3782 61.3151 18.6918 61.6287 18.4932 61.8274L18.4998 61.8252Z" fill="#313C6C"/>
<path d="M8.13802 75.1977C7.57878 75.6404 6.82388 76.0817 6.07129 75.9383C5.82636 75.892 5.58516 75.7479 5.47005 75.518C5.33916 75.2591 5.37259 74.9703 5.47516 74.7109C5.64539 74.2809 5.98072 73.9276 6.3209 73.6277C6.40924 73.5484 6.5426 73.5405 6.6322 73.6301C6.71284 73.7107 6.7251 73.8642 6.63451 73.9414C6.47548 74.0825 6.32092 74.2281 6.18428 74.3916C6.16221 74.4137 6.11817 74.4711 6.11379 74.48C6.13142 74.4579 6.08738 74.5154 6.09179 74.511C6.07858 74.5287 6.06536 74.5464 6.0544 74.5663C6.01042 74.6327 5.96869 74.7013 5.93143 74.7744C5.91829 74.801 5.90515 74.8275 5.89204 74.8586C5.88766 74.8674 5.86806 74.9229 5.88546 74.8696C5.8789 74.8851 5.87234 74.9007 5.87024 74.9162C5.85284 74.9694 5.84214 75.025 5.8292 75.0782C5.81843 75.1248 5.83107 75.0315 5.8292 75.0782C5.8293 75.0916 5.82719 75.1071 5.82729 75.1204C5.82745 75.1427 5.82762 75.1649 5.82779 75.1872C5.82788 75.2005 5.83018 75.2116 5.83028 75.225C5.82761 75.1649 5.82568 75.2027 5.83022 75.2161C5.83484 75.2383 5.84169 75.2629 5.84854 75.2874C5.86228 75.3408 5.8238 75.2494 5.85532 75.303C5.86435 75.3208 5.87783 75.3387 5.88686 75.3566C5.9139 75.4057 5.85325 75.323 5.89357 75.3633C5.9115 75.3812 5.93166 75.4014 5.94958 75.4193C5.9787 75.4484 5.90939 75.3968 5.93614 75.4059C5.94506 75.4104 5.94957 75.4193 5.96071 75.4216C5.98304 75.4351 6.00314 75.4464 6.02324 75.4576C6.02996 75.4644 6.03885 75.4644 6.04554 75.4667C6.08352 75.4915 5.99428 75.4508 6.04106 75.4622C6.06557 75.4691 6.09011 75.4804 6.11683 75.485C6.14358 75.4941 6.17029 75.4988 6.19701 75.5034C6.25713 75.515 6.16587 75.5032 6.22817 75.5081C6.29046 75.513 6.35497 75.5157 6.41719 75.5117C6.43498 75.5119 6.45053 75.5097 6.46608 75.5076C6.46608 75.5076 6.52161 75.5014 6.49052 75.5056C6.45942 75.5098 6.51496 75.5036 6.51496 75.5036C6.53271 75.4992 6.55051 75.4994 6.56826 75.4951C6.64376 75.4823 6.71923 75.4651 6.79242 75.4411C7.14295 75.337 7.51711 75.1197 7.82434 74.8752C7.91717 74.8003 8.04379 74.7856 8.13564 74.8775C8.21404 74.9559 8.23079 75.1139 8.13796 75.1888L8.13802 75.1977Z" fill="#313C6C"/>
<path d="M37.2209 26.5052C30.5944 25.5154 23.3609 30.8089 18.4909 36.7004C25.0472 36.6135 33.8827 33.2574 37.2187 26.5074" fill="white"/>
<path d="M37.3074 26.1679C31.4667 25.3195 25.9456 28.8604 21.8734 32.6099C20.575 33.8054 19.3683 35.0927 18.24 36.4495C18.0571 36.6682 18.1645 37.0581 18.4935 37.0517C21.3636 37.0041 24.2231 36.4162 26.8971 35.4133C29.7241 34.356 32.4053 32.8217 34.5641 30.7078C35.7582 29.536 36.7776 28.1806 37.5268 26.6787C37.7262 26.2777 37.1143 25.9219 36.9106 26.3272C34.2881 31.5706 28.5743 34.6187 23.0157 35.8135C21.5283 36.1315 20.0134 36.3204 18.4883 36.3446L18.7418 36.9468C20.6457 34.6486 22.7978 32.5279 25.2082 30.7626C27.4683 29.1074 29.9993 27.7099 32.7582 27.0701C34.1855 26.7405 35.6721 26.6293 37.1345 26.8425C37.5775 26.9059 37.7592 26.2268 37.3073 26.1634L37.3074 26.1679Z" fill="#313C6C"/>
<path d="M36.5586 26.5358C35.68 27.3831 34.4554 27.7564 33.3403 28.195C32.1653 28.6577 31.0334 29.234 29.9104 29.806C27.507 31.031 25.0609 32.1779 22.7972 33.6485C21.5315 34.4706 20.3085 35.3531 19.0878 36.2379C18.8158 36.4337 19.0793 36.896 19.3514 36.7001C21.5341 35.1177 23.737 33.5421 26.1402 32.3037C27.3673 31.6725 28.6079 31.0681 29.8372 30.4391C31.0666 29.8101 32.2293 29.1984 33.4774 28.703C34.7256 28.2076 35.9834 27.8234 36.9349 26.9077C37.1777 26.6739 36.8014 26.2975 36.5585 26.5314L36.5586 26.5358Z" fill="#313C6C"/>
<path d="M36.3318 26.5386C34.0101 26.4813 31.8214 27.5678 29.8551 28.656C28.8786 29.198 27.9224 29.7778 26.9414 30.3108C25.6724 30.9973 24.4258 31.6973 23.2492 32.5379C21.92 33.4863 20.685 34.5555 19.5307 35.7053C19.2924 35.9437 19.6687 36.32 19.9071 36.0817C21.9266 34.0711 24.1885 32.3737 26.7111 31.034C28.7043 29.9771 30.596 28.7171 32.6885 27.8522C33.8411 27.3761 35.0726 27.0362 36.338 27.0656C36.6782 27.0748 36.6743 26.5456 36.334 26.5364L36.3318 26.5386Z" fill="#313C6C"/>
<path d="M36.2316 27.1137C34.1602 28.7237 31.9046 30.0832 29.6196 31.3691C28.5037 31.9967 27.3764 32.6042 26.247 33.2095C25.2083 33.7687 24.1968 34.3771 23.1423 34.9073C21.9262 35.5186 20.6627 36.0384 19.3173 36.2996C18.9842 36.3639 19.1236 36.8741 19.4545 36.812C21.8346 36.3539 23.9576 35.1091 26.0345 33.9327C28.3593 32.6204 30.7316 31.4085 32.9957 29.9912C34.2372 29.2156 35.4473 28.3864 36.6035 27.49C36.8688 27.283 36.4902 26.9089 36.2271 27.1137L36.2316 27.1137Z" fill="#313C6C"/>
<path d="M36.2739 27.4209C35.5519 28.3983 34.4989 29.1197 33.5169 29.815C32.484 30.5477 31.4554 31.2716 30.3619 31.9172C29.2683 32.5627 28.0884 33.2677 26.9416 33.9306C25.9454 34.5057 24.9222 35.0495 23.84 35.4417C22.585 35.8993 21.2661 36.1429 19.9199 36.0062C19.5816 35.9725 19.5878 36.4995 19.9238 36.5354C22.3648 36.787 24.6744 35.8125 26.7447 34.6562C29.1006 33.3397 31.4227 31.9451 33.6256 30.3873C34.7404 29.5996 35.9106 28.7967 36.7317 27.6889C36.932 27.4169 36.4676 27.1555 36.2695 27.4253L36.2739 27.4209Z" fill="#313C6C"/>
</g>
</svg>
