<svg width="54" height="72" viewBox="0 0 54 72" fill="none" xmlns="http://www.w3.org/2000/svg">
<g clip-path="url(#clip0_111_180)">
<mask id="mask0_111_180" style="mask-type:luminance" maskUnits="userSpaceOnUse" x="0" y="0" width="54" height="72">
<path d="M27 0C41.912 0 54 14.3968 54 32.157V44.0651C53.9357 51.2107 51.7696 58.1631 46.8591 63.2463C45.8067 64.3358 44.6104 65.3852 43.252 66.3581C39.394 69.5356 34.147 71.9514 27.1224 71.9514C27.1224 71.9514 23.9742 72.2757 19.8255 71.2482C19.6633 71.2081 19.5042 71.1644 19.3421 71.1243C19.1646 71.0769 18.9841 71.0259 18.8036 70.9749C18.5222 70.8911 18.2437 70.8036 17.9653 70.7125C17.7053 70.6251 17.4422 70.5376 17.179 70.4356L17.0261 70.3773C12.6602 68.7303 7.7864 65.4581 4.39037 59.0085C1.59093 54.1148 0 48.2191 0 42.0609V32.157C0 14.3968 12.088 0 27 0Z" fill="white"/>
</mask>
<g mask="url(#mask0_111_180)">
<path d="M16.0254 18.0641C15.0188 18.5681 14.0184 19.1575 13.0638 19.8415C10.3194 21.8052 9.04056 25.2318 9.79319 28.5178C11.3382 35.2671 14.5048 48.6953 17.907 60.5966C17.907 60.5966 20.1985 70.6593 27.0028 70.6593C33.8071 70.6593 36.0987 60.5966 36.0987 60.5966C39.4978 48.6922 42.6674 35.2671 44.2125 28.5178C44.9651 25.2318 43.6862 21.8022 40.9419 19.8415C39.9873 19.1575 38.9869 18.5711 37.9803 18.0641C31.0934 14.6101 22.9184 14.6101 16.0315 18.0641H16.0254Z" fill="#FF5050"/>
<path d="M16.0254 18.0641C15.0188 18.5681 14.0184 19.1575 13.0638 19.8415C10.3194 21.8052 9.04056 25.2318 9.79319 28.5178C11.3382 35.2671 14.5048 48.6953 17.907 60.5966C17.907 60.5966 20.1985 70.6593 27.0028 70.6593C33.8071 70.6593 36.0987 60.5966 36.0987 60.5966C39.4978 48.6922 42.6674 35.2671 44.2125 28.5178C44.9651 25.2318 43.6862 21.8022 40.9419 19.8415C39.9873 19.1575 38.9869 18.5711 37.9803 18.0641C31.0934 14.6101 22.9184 14.6101 16.0315 18.0641H16.0254Z" fill="#FF5050"/>
<path d="M42.2268 36.9802C42.2268 36.9802 48.4345 48.854 38.8797 50.3779L37.6589 40.8526L42.2268 36.9802Z" fill="#FF5050"/>
<path d="M11.7727 36.9802C11.7727 36.9802 5.56495 48.854 15.1197 50.3779L16.3405 40.8526L11.7727 36.9802Z" fill="#FF5050"/>
<path d="M26.9999 15.4713C30.7661 15.4713 34.5324 16.3356 37.9743 18.0641C38.9809 18.568 39.9813 19.1574 40.9359 19.8415C43.6802 21.8052 44.9591 25.2317 44.2065 28.5178C43.7016 30.7227 43.0255 33.6393 42.2239 36.9803C42.2239 36.9803 48.4316 48.851 38.8768 50.378C37.9896 53.7831 37.0503 57.2524 36.0958 60.5996C36.0958 60.5996 33.8042 70.6623 26.9999 70.6623C20.1956 70.6623 17.904 60.5996 17.904 60.5996C16.9464 57.2524 16.0102 53.7862 15.1229 50.378C5.56816 48.8541 11.7759 36.9803 11.7759 36.9803C10.9743 33.6393 10.2951 30.7227 9.79331 28.5178C9.04068 25.2317 10.3195 21.8021 13.0639 19.8415C14.0185 19.1574 15.0189 18.5711 16.0255 18.0641C19.4705 16.3356 23.2337 15.4713 26.9999 15.4713ZM26.9999 14.1306C22.992 14.1306 18.9871 15.0773 15.4228 16.8639C14.2969 17.4289 13.2383 18.0641 12.2807 18.7482C9.09575 21.0264 7.60272 24.9783 8.48079 28.814C9.08045 31.4404 9.71071 34.131 10.3532 36.8184C10.292 36.9528 10.2216 37.1116 10.1421 37.2949C9.91263 37.814 9.57915 38.6355 9.27014 39.6006C8.45632 42.1598 8.24215 44.4014 8.63683 46.2643C9.0468 48.2127 10.3257 50.6345 14.0338 51.5293C14.918 54.8948 15.7807 58.0526 16.6037 60.9355C16.7995 61.7662 19.3665 72.003 27.0029 72.003C34.6394 72.003 37.2063 61.7662 37.4022 60.9355C38.2252 58.0556 39.0879 54.8948 39.9721 51.5293C42.2545 50.9827 43.8669 49.7977 44.7694 48.002C46.752 44.0624 44.4237 38.4737 43.6496 36.8245C44.2952 34.131 44.9254 31.4404 45.5251 28.8171C46.4032 24.9783 44.9101 21.0295 41.7252 18.7512C40.7676 18.0672 39.709 17.4319 38.5831 16.867C35.0188 15.0773 31.0139 14.1337 27.006 14.1337L26.9999 14.1306Z" fill="#33294D"/>
<path d="M38.8798 50.3779C38.8798 50.3779 36.4139 50.7719 34.8933 50.8543C34.8933 50.8543 35.7286 51.6545 38.8798 51.4865V50.3779Z" fill="#33294D"/>
<path d="M15.1199 50.3779C15.1199 50.3779 17.5858 50.7719 19.1064 50.8543C19.1064 50.8543 18.2711 51.6545 15.1199 51.4865V50.3779Z" fill="#33294D"/>
<path d="M38.4821 48.1577C37.7325 48.3043 36.8422 48.457 35.8265 48.5975C33.5227 48.9151 30.5488 49.1747 26.9998 49.1747C23.4508 49.1747 20.4801 48.9151 18.1763 48.5975C17.1605 48.457 16.2702 48.3043 15.5176 48.1577C13.7216 47.8095 12.4519 46.1879 12.5774 44.3677C12.7487 41.8116 13.2413 39.6127 13.5167 38.5377C13.6972 37.8292 14.0704 37.1787 14.6334 36.7145C16.5823 35.099 19.3817 36.458 20.9023 37.4322C22.0496 38.1652 23.3131 38.7088 24.6501 38.9958C24.6716 39.0019 24.693 39.005 24.7144 39.008C26.2197 39.3257 27.78 39.3257 29.2883 39.008C29.3067 39.0019 29.3281 38.9989 29.3495 38.9958C30.6865 38.7118 31.9501 38.1682 33.1004 37.4322C34.618 36.458 37.4174 35.099 39.3663 36.7145C39.9292 37.1787 40.3025 37.8323 40.483 38.5377C40.7584 39.6127 41.2479 41.8116 41.4223 44.3677C41.5446 46.1879 40.275 47.8126 38.479 48.1577H38.4821Z" fill="#33294D"/>
<path d="M37.6377 39.234C37.5826 40.1044 36.9248 40.8435 36.0559 40.9382C36.0468 40.9382 36.0376 40.9382 36.0284 40.9382C35.6552 40.9748 35.2819 40.8923 34.9576 40.706C34.0428 40.1808 33.2382 39.402 32.8037 38.9409C33.0974 38.7851 33.385 38.6141 33.6665 38.437C34.6516 37.8048 36.1814 37.0077 37.6622 36.9741C37.7111 37.6613 37.6744 38.5561 37.6377 39.2279V39.234Z" fill="white"/>
<path d="M16.362 39.234C16.4171 40.1044 17.0749 40.8435 17.9438 40.9382C17.953 40.9382 17.9621 40.9382 17.9713 40.9382C18.3446 40.9748 18.7178 40.8923 19.0421 40.706C19.9569 40.1808 20.7616 39.402 21.196 38.9409C20.9023 38.7851 20.6147 38.6141 20.3333 38.437C19.3481 37.8048 17.8184 37.0077 16.3376 36.9741C16.2886 37.6613 16.3253 38.5561 16.362 39.2279V39.234Z" fill="white"/>
<path d="M35.8265 47.3698C33.5227 47.6874 30.5488 47.947 26.9998 47.947C23.4508 47.947 20.4801 47.6874 18.1763 47.3698C18.6168 44.9113 20.3393 40.083 26.9998 44.4899C33.6603 40.08 35.3859 44.9083 35.8265 47.3698Z" fill="#FFC358"/>
<path d="M35.2698 30.5578L31.8187 32.6192C31.5708 32.7658 31.2557 32.7383 31.0415 32.5428C30.8488 32.3657 30.6285 32.1122 30.4847 31.7855C30.3623 31.5076 30.4541 31.1838 30.6958 31.0037L33.8563 28.6521C34.0857 28.4811 34.4039 28.475 34.6334 28.646C34.921 28.8598 35.2881 29.2079 35.5298 29.721C35.6706 30.0233 35.5574 30.3837 35.2698 30.5547V30.5578Z" fill="#33294D"/>
<path d="M30.4541 31.4159L33.6696 29.8645C33.6696 29.8645 36.0377 32.5459 34.8108 34.4088C34.3244 35.1509 33.4218 35.5387 32.5407 35.4166C31.5525 35.2792 30.3562 34.4851 30.4541 31.4129V31.4159Z" fill="#33294D"/>
<path d="M18.73 30.5578L22.1811 32.6192C22.429 32.7658 22.7441 32.7383 22.9583 32.5428C23.151 32.3657 23.3713 32.1122 23.5151 31.7855C23.6375 31.5076 23.5457 31.1838 23.304 31.0037L20.1435 28.6521C19.9141 28.4811 19.5959 28.475 19.3664 28.646C19.0788 28.8598 18.7117 29.2079 18.47 29.721C18.3292 30.0233 18.4424 30.3837 18.73 30.5547V30.5578Z" fill="#33294D"/>
<path d="M23.5456 31.4159L20.33 29.8645C20.33 29.8645 17.962 32.5459 19.1888 34.4088C19.6753 35.1509 20.5779 35.5387 21.459 35.4166C22.4472 35.2792 23.6435 34.4851 23.5456 31.4129V31.4159Z" fill="#33294D"/>
<path d="M43.4539 16.1005C43.4539 16.1005 43.4386 16.073 43.4325 16.0577C42.9246 15.1019 41.8079 14.6499 40.7646 14.9369C39.0544 15.4103 36.0286 15.9875 33.122 15.2545C31.0967 14.7445 29.931 12.6709 30.5551 10.6828C31.1884 8.66412 32.4612 7.30511 32.862 6.9142C32.8865 6.90199 32.9109 6.88977 32.9324 6.8745C33.3943 6.56911 33.3668 5.72011 32.8712 4.978C32.4214 4.30613 31.7422 3.95492 31.2772 4.12594C26.7002 5.1765 24.8981 9.17413 24.1883 11.7272C23.6621 13.6115 22.114 15.053 20.1865 15.4072C17.5033 15.8989 14.8141 15.3737 13.2384 14.94C12.1951 14.6529 11.0754 15.1049 10.5705 16.0608C10.5644 16.0761 10.5552 16.0883 10.5491 16.1035C10.1667 16.8365 10.2126 17.7313 10.6807 18.4154C13.7371 22.8772 20.7433 21.6587 20.7433 21.6587C19.7184 23.9095 18.0632 25.1494 17.0781 25.7235C16.6956 25.9464 16.4203 26.3312 16.3836 26.7741C16.3224 27.4643 16.7844 28.0689 17.433 28.2064C24.3015 29.6662 27.0061 23.2498 27.0061 23.2498C27.0061 23.2498 29.6893 29.6142 36.4997 28.2216C36.9586 28.127 37.3686 27.8307 37.5399 27.3971C37.7878 26.768 37.5399 26.0686 36.977 25.7479C35.998 25.1829 34.3091 23.94 33.2689 21.6587C33.2689 21.6587 40.2751 22.8772 43.3316 18.4154C43.7997 17.7313 43.8456 16.8365 43.4631 16.1035L43.4539 16.1005Z" fill="#CFEB5F"/>
<path d="M31.528 4.08312C31.9655 4.08312 32.4979 4.41906 32.8711 4.97793C33.3668 5.72004 33.3943 6.56904 32.9323 6.87443C32.9109 6.8897 32.8864 6.90192 32.8619 6.91414C32.4612 7.30504 31.1884 8.66405 30.5551 10.6827C29.931 12.6708 31.0997 14.7445 33.122 15.2545C34.1194 15.508 35.1321 15.6026 36.1019 15.6026C37.9529 15.6026 39.6448 15.2484 40.7677 14.9369C40.9788 14.8788 41.1899 14.8514 41.401 14.8514C42.2362 14.8514 43.0317 15.2942 43.4355 16.0577C43.4417 16.0729 43.4508 16.0852 43.457 16.1004C43.8394 16.8334 43.7935 17.7282 43.3254 18.4123C41.349 21.2983 37.7204 21.8083 35.4044 21.8083C34.1378 21.8083 33.2627 21.6556 33.2627 21.6556C34.303 23.9399 35.9918 25.1829 36.9708 25.7448C37.5307 26.0685 37.7816 26.7648 37.5338 27.3939C37.3625 27.8307 36.9525 28.1269 36.4936 28.2185C35.8235 28.3559 35.1933 28.417 34.5997 28.417C29.1814 28.417 27 23.2467 27 23.2467C27 23.2467 24.8185 28.417 19.4002 28.417C18.7852 28.417 18.1274 28.3498 17.4238 28.2002C16.7751 28.0628 16.3132 27.455 16.3744 26.7679C16.4141 26.3281 16.6864 25.9433 17.0689 25.7173C18.054 25.1432 19.7092 23.9033 20.7341 21.6525C20.7341 21.6525 19.8591 21.8052 18.5925 21.8052C16.2764 21.8052 12.6448 21.2952 10.6715 18.4092C10.2034 17.7251 10.1575 16.8303 10.5399 16.0974C10.546 16.0821 10.5552 16.0699 10.5613 16.0546C10.9652 15.2911 11.7606 14.8483 12.5959 14.8483C12.807 14.8483 13.0181 14.8758 13.2292 14.9338C14.352 15.2453 16.0439 15.5996 17.8949 15.5996C18.6384 15.5996 19.4094 15.5416 20.1773 15.4011C22.1048 15.0468 23.6529 13.6053 24.1791 11.7211C24.892 9.16795 26.694 5.17033 31.2679 4.11977C31.3475 4.09228 31.4301 4.07701 31.5188 4.07701M31.5188 2.73633C31.3077 2.73633 31.0997 2.76687 30.9039 2.82795C27.0091 3.74719 24.1608 6.77671 22.8819 11.3637C22.4933 12.7594 21.3368 13.8252 19.9325 14.0848C19.2931 14.2009 18.6078 14.2619 17.8919 14.2619C16.1785 14.2619 14.606 13.926 13.5872 13.6451C13.2629 13.5565 12.9294 13.5107 12.5959 13.5107C11.2344 13.5107 10.0014 14.2467 9.37118 15.4316L9.34365 15.4835C8.72869 16.6654 8.80824 18.0794 9.55781 19.1697C11.2497 21.6434 14.2908 23.0451 18.1458 23.1428C17.4941 23.8453 16.8333 24.3003 16.3866 24.5629C15.6125 25.0149 15.1077 25.7937 15.0312 26.6518C14.9089 28.0047 15.8175 29.2355 17.1392 29.5164C17.9041 29.6783 18.6629 29.7608 19.3941 29.7608C23.2521 29.7608 25.6783 27.5619 26.9938 25.8273C28.3094 27.5619 30.7356 29.7608 34.5936 29.7608C35.2942 29.7608 36.0224 29.6844 36.7567 29.5348C37.6898 29.3454 38.4455 28.7285 38.779 27.8856C39.2655 26.6549 38.7729 25.2348 37.6378 24.5813C37.1819 24.3186 36.5058 23.8575 35.8419 23.1428C39.6999 23.0451 42.738 21.6403 44.4329 19.1697C45.1794 18.0763 45.2621 16.6654 44.6471 15.4835L44.6226 15.4347C43.9954 14.2497 42.7594 13.5137 41.3979 13.5137C41.0644 13.5137 40.731 13.5595 40.4066 13.6481C39.3878 13.9291 37.8122 14.265 36.1019 14.265C35.1535 14.265 34.2632 14.1612 33.4524 13.9566C32.8344 13.8008 32.3235 13.4129 32.0175 12.8663C31.7116 12.3227 31.6504 11.6905 31.837 11.0858C32.3296 9.51305 33.2842 8.40752 33.6941 7.97997C34.2968 7.56768 34.6273 6.86527 34.6028 6.04681C34.5844 5.44213 34.3642 4.79775 33.9878 4.23582C33.3729 3.31353 32.4306 2.74244 31.528 2.74244L31.5188 2.73633Z" fill="#33294D"/>
<path d="M32.8589 6.91421C32.8589 6.91421 31.476 6.70348 31.0997 5.35669C31.0997 5.35669 30.5643 7.1799 32.6141 7.84566L32.8589 6.91421Z" fill="#33294D"/>
</g>
<path d="M44.0254 58.9724C46.9335 57.894 48.5912 55.1395 47.728 52.8201C46.8648 50.5007 43.8075 49.4946 40.8994 50.573C37.9913 51.6514 36.3336 54.4059 37.1968 56.7253C38.06 59.0448 41.1173 60.0508 44.0254 58.9724Z" fill="#FF5050"/>
<path d="M43.2611 50.1396C45.3109 50.1396 47.1007 51.1322 47.7279 52.821C48.5907 55.142 46.9324 57.8936 44.0259 58.9747C43.2335 59.2679 42.4289 59.4084 41.664 59.4084C39.6141 59.4084 37.8243 58.4158 37.1972 56.7301C36.3344 54.4091 37.9926 51.6544 40.8991 50.5763C41.6915 50.2832 42.4962 50.1427 43.2611 50.1427M43.2611 48.802C42.3065 48.802 41.355 48.9761 40.431 49.3181C38.7391 49.9442 37.3379 51.0741 36.4812 52.4973C35.5664 54.0151 35.3737 55.6856 35.9366 57.1973C36.7413 59.3565 38.987 60.7521 41.664 60.7521C42.6186 60.7521 43.5701 60.578 44.494 60.236C48.092 58.9014 50.1082 55.368 48.9884 52.3599C48.1838 50.2007 45.9381 48.8051 43.2611 48.8051V48.802Z" fill="#33294D"/>
<path d="M16.8026 56.7272C15.9399 59.0451 12.8804 60.0529 9.97385 58.9749C7.06428 57.8968 5.40603 55.1422 6.27187 52.8212C7.13465 50.5032 10.1941 49.4954 13.1007 50.5734C16.0072 51.6515 17.6685 54.4062 16.8026 56.7272Z" fill="#FF5050"/>
<path d="M10.7357 50.1398C11.5036 50.1398 12.3052 50.2802 13.0976 50.5734C16.0072 51.6515 17.6655 54.4061 16.7996 56.7271C16.1724 58.416 14.3826 59.4055 12.3328 59.4055C11.5648 59.4055 10.7632 59.265 9.97084 58.9718C7.06126 57.8937 5.40302 55.1391 6.26885 52.8181C6.89605 51.1292 8.68585 50.1398 10.7357 50.1367M10.7357 48.796C8.06172 48.796 5.81299 50.1917 5.00835 52.3508C3.88857 55.359 5.90478 58.8954 9.50274 60.227C10.4267 60.569 11.3813 60.7431 12.3328 60.7431C15.0068 60.7431 17.2555 59.3474 18.0601 57.1883C18.6231 55.6766 18.4303 54.0061 17.5155 52.4882C16.6589 51.0651 15.2576 49.9382 13.5657 49.3091C12.6418 48.967 11.6872 48.793 10.7357 48.793V48.796Z" fill="#33294D"/>
</g>
<defs>
<clipPath id="clip0_111_180">
<rect width="54" height="72" fill="white"/>
</clipPath>
</defs>
</svg>
