<svg width="28" height="61" viewBox="0 0 28 61" fill="none" xmlns="http://www.w3.org/2000/svg">
<g clip-path="url(#clip0_111_87)">
<path d="M19.8407 1.72255C18.8323 0.951207 17.6112 0.181578 16.2822 0.315278C14.6839 0.476402 13.2639 1.48772 11.976 2.38076C9.65054 3.99544 8.16198 6.62486 7.87045 9.42055C7.84815 9.62796 7.93561 9.76509 8.05909 9.83193C8.03508 9.97592 8.01621 10.1199 8.00078 10.2639C7.4743 12.3037 7.30452 14.4086 7.39541 16.5169C7.51545 19.3195 8.01107 22.0877 8.03851 24.8971C8.08996 30.2194 5.7405 34.8063 3.58827 39.5269C1.76187 43.531 -0.098832 48.1762 0.907832 52.65C1.85447 56.8547 5.6256 61.3474 10.3279 60.7149C15.5345 60.0138 18.2029 54.2339 20.3363 50.12C22.8829 45.2126 25.0386 39.9075 26.095 34.4669C26.6283 31.7209 26.8839 28.9235 27.0691 26.1347C27.2337 23.6613 27.352 21.1947 27.2114 18.7178C26.865 12.5573 24.9563 5.63926 19.8407 1.72255Z" fill="#231F20"/>
<path d="M15.4539 1.4757C15.9546 1.306 16.4331 1.28715 16.8893 1.366C16.3182 1.366 15.7677 1.41399 15.1658 1.58369C15.2618 1.54598 15.3578 1.50827 15.4539 1.4757Z" fill="#231F20"/>
<path d="M25.9905 15.8861C26.764 21.0884 26.3061 26.5409 25.6235 31.7295C24.8758 37.41 22.8882 42.7991 20.4342 47.9534C19.196 50.5537 17.7915 53.0871 16.2154 55.4971C14.7149 57.794 12.2985 59.7584 9.44489 59.8218C6.78847 59.8801 4.61908 57.7975 3.22656 55.7611C1.8066 53.6819 1.37615 51.1725 1.60766 48.7025C2.05869 43.867 4.69111 39.4892 6.58439 35.1183C7.5739 32.8334 8.36449 30.4611 8.72634 27.9928C9.11391 25.3479 8.85667 22.6551 8.57542 20.0154C8.15527 16.0712 7.99749 12.2214 9.41059 8.43837C10.0263 6.7877 11.0072 5.31529 12.2762 4.09485C12.9999 3.40064 13.8437 2.84185 14.7286 2.3739C15.833 1.79282 16.8105 1.83053 18.0058 1.82367C18.0384 1.82367 18.0676 1.81339 18.0933 1.80139C18.4894 2.01223 18.8719 2.27448 19.2389 2.54874C23.377 5.63582 25.2565 10.9649 25.9888 15.8878L25.9905 15.8861Z" fill="#56AA42"/>
<path d="M2.82178 53.8328C2.57483 51.4399 3.62093 49.4944 4.29147 47.2712C5.0066 44.8938 4.97744 42.3038 6.10072 40.0463C7.38521 37.4632 9.38824 35.2485 10.3194 32.4854C11.3004 29.5732 11.7308 25.977 11.5611 22.9105C11.465 21.1861 11.1409 19.5337 10.6161 17.8882C10.2011 16.5872 9.83584 15.3359 9.82898 13.9612C9.82212 12.6139 10.3589 11.3009 10.5098 9.97078C10.6401 8.81548 10.3778 7.86416 10.1582 6.83228C9.87014 7.34479 9.61804 7.87959 9.41054 8.43667C7.99744 12.218 8.15692 16.0695 8.57537 20.0137C8.85661 22.6534 9.11385 25.3479 8.72628 27.9911C8.36443 30.4611 7.57385 32.8317 6.58433 35.1166C4.69105 39.4875 2.05863 43.8653 1.60761 48.7008C1.38124 51.1365 1.79625 53.6065 3.16819 55.6686C3.00528 55.0515 2.88523 54.4344 2.82349 53.8345L2.82178 53.8328Z" fill="#A1CC3C"/>
<path d="M12.2762 4.09306C11.7086 4.63814 11.2044 5.23465 10.7602 5.87401C10.8425 6.46537 11.0106 7.07045 11.1409 7.75608C11.6777 10.5758 9.98851 13.2566 10.7585 16.066C11.5131 18.8171 12.2745 21.318 12.2556 24.208C12.2402 26.654 11.9298 29.3023 11.3159 31.6729C10.6299 34.316 9.11733 36.498 7.69908 38.7881C6.22596 41.1672 5.82981 43.5001 5.29646 46.1947C4.84201 48.4847 3.33459 50.7267 3.44606 53.1042C3.50951 54.4686 3.87307 55.8965 4.41328 57.254C4.77341 57.6448 5.16099 58.0168 5.57771 58.3493C5.50226 57.6054 5.50569 56.8564 5.56228 56.1467C5.65317 55.0274 5.82295 53.855 6.26368 52.8111C6.78502 51.5735 7.7471 50.5948 8.12781 49.2886C8.55826 47.8059 8.632 46.2084 9.18421 44.7617C9.68668 43.4453 10.4344 42.2163 11.1684 41.0181C11.995 39.6691 12.8799 38.3167 13.4389 36.8289C14.0598 35.1833 14.3873 33.423 14.7131 31.6986C15.3254 28.4658 16.4384 24.9433 15.8398 21.6454C15.5655 20.1336 15.0133 18.6834 14.7354 17.1768C14.4971 15.8843 14.5862 14.6416 14.7492 13.3458C14.9206 11.9813 15.0115 10.6426 14.5965 9.31077C14.2535 8.20861 13.7819 7.15272 13.4372 6.05227C13.1577 5.16266 12.9982 4.29704 13.0154 3.46399C12.7598 3.66111 12.5095 3.86852 12.2762 4.09306Z" fill="#A1CC3C"/>
<path d="M14.1608 2.68921C14.0579 2.75092 13.9567 2.81606 13.8555 2.87948C13.684 4.38617 14.2602 5.95457 14.8467 7.50925C15.2172 8.49143 15.639 9.5336 15.6853 10.5946C15.7368 11.7414 15.5756 12.8469 15.4555 13.9834C15.1348 17.0002 16.5891 19.6262 16.7795 22.5916C16.963 25.4455 16.1226 28.3698 15.5944 31.1603C15.0611 33.9732 14.5106 36.7037 13.0718 39.2114C12.2846 40.5844 11.3757 41.8957 10.6572 43.3081C9.94376 44.712 9.60935 46.0747 9.30409 47.6122C9.05028 48.8841 8.73988 50.096 8.02132 51.1913C7.29248 52.3037 6.74198 53.3476 6.52419 54.6743C6.34584 55.7593 6.24465 57.002 6.3647 58.2019C7.25646 56.2016 9.15146 54.4189 10.4754 52.6122C12.3361 50.0754 12.6293 46.858 14.1934 44.1789C14.9102 42.9499 15.7659 41.7517 16.2941 40.4233C16.9458 38.7829 16.7383 37.3277 16.7177 35.6238C16.7006 34.0983 17.342 32.7716 17.901 31.3797C18.635 29.5542 19.0037 27.7219 19.0003 25.7489C18.9934 22.4236 18.2389 19.1942 17.8856 15.9032C17.6901 14.0777 17.8564 12.1493 17.342 10.3735C16.9269 8.94052 16.2684 7.62409 15.603 6.29567C15.0028 5.09752 14.4815 3.91479 14.1608 2.6875V2.68921Z" fill="#8DC640"/>
<path d="M18.9798 5.84141C18.0795 4.53356 17.3249 3.24113 16.9956 1.83557C16.2359 1.86128 15.5294 1.9607 14.7662 2.35323C15.2481 4.32272 16.344 6.11053 17.1843 8.03203C17.6782 9.16161 18.1138 10.3323 18.275 11.5631C18.4893 13.1949 18.4293 14.849 18.6385 16.4859C19.0553 19.7462 19.8321 23.0304 19.6898 26.3368C19.6281 27.7904 19.4874 29.2662 18.9918 30.6461C18.4105 32.2608 17.318 34.0006 17.4175 35.7558C17.493 37.0962 17.6953 38.4641 17.3095 39.7805C16.939 41.0455 16.32 42.1768 15.6391 43.2995C14.7937 44.6931 14.0717 46.0438 13.5503 47.5968C13.1079 48.9115 12.7203 50.2896 12.0755 51.5238C10.7893 53.9869 7.6064 56.3901 6.77466 59.1481C7.59268 59.5817 8.48616 59.8423 9.4448 59.82C9.49454 59.82 9.54255 59.8131 9.59057 59.8114C10.2234 59.2201 10.7859 58.5378 11.2215 57.6911C12.6054 54.9982 12.9021 51.6472 14.7782 49.2166C15.6117 48.1367 16.7761 47.4065 17.6302 46.3592C18.6094 45.1576 19.0707 43.6166 19.2748 42.1014C19.6452 39.3623 19.5886 36.6403 20.5284 34.0006C21.5419 31.1535 23.1368 28.2721 22.847 25.1524C22.6858 23.4092 22.2039 21.7345 21.9398 20.0101C21.7014 18.4572 21.6928 16.9042 21.7151 15.3375C21.7408 13.6268 21.7906 11.8305 21.3121 10.1695C20.8439 8.54797 19.9282 7.21954 18.9798 5.84313V5.84141Z" fill="#8DC640"/>
<path d="M19.2406 2.54703C18.8719 2.27277 18.4912 2.01052 18.0951 1.79968C18.0693 1.8134 18.0402 1.82197 18.0076 1.82197C17.951 1.82197 17.8961 1.82197 17.8412 1.82197C18.3523 3.85145 19.8323 5.52955 20.9796 7.47162C22.7014 10.389 22.5007 13.4624 22.5299 16.726C22.547 18.6372 22.8471 20.4336 23.2296 22.2985C23.5451 23.8327 23.8521 25.4268 23.6463 26.9986C23.2656 29.9348 21.7444 32.4648 20.9916 35.2914C20.2593 38.0442 20.5766 40.9565 19.8134 43.6922C19.5047 44.796 19.076 45.9599 18.282 46.8153C17.2102 47.9723 15.8674 48.8379 15.0733 50.24C13.499 53.022 13.259 56.4296 11.3502 59.0505C11.2045 59.251 11.0484 59.4396 10.8872 59.6195C13.108 59.0608 14.9739 57.3929 16.2138 55.4954C17.7881 53.0837 19.1943 50.552 20.4325 47.9517C22.8866 42.7991 24.8725 37.4083 25.6219 31.7278C26.3061 26.5392 26.764 21.0867 25.9889 15.8844C25.2566 10.9615 23.3788 5.6324 19.2389 2.54531L19.2406 2.54703Z" fill="#8DC640"/>
<g style="mix-blend-mode:multiply" opacity="0.3">
<path d="M19.2406 2.54703C18.8719 2.27277 18.4912 2.01052 18.095 1.79968C18.0693 1.8134 18.0401 1.82197 18.0075 1.82197C16.8122 1.82882 15.8347 1.7894 14.7303 2.37219C14.6137 2.4339 14.4971 2.49732 14.3822 2.56246C14.5331 2.59845 14.6857 2.64302 14.8401 2.69787C17.8172 3.76575 18.6678 8.08184 19.3246 10.7335C20.1666 14.1275 20.6897 17.5796 21.3397 21.0113C21.9742 24.3606 22.1354 27.8059 21.813 31.1998C21.1887 37.7837 19.2217 44.6658 16.0302 50.4749C13.9089 54.3367 10.2338 58.7008 5.6189 58.3854C6.72331 59.2562 8.01294 59.851 9.4449 59.8184C12.2985 59.755 14.7149 57.7906 16.2154 55.4937C17.7898 53.082 19.196 50.5503 20.4342 47.95C22.8882 42.7974 24.8741 37.4066 25.6235 31.7261C26.3078 26.5375 26.7657 21.085 25.9905 15.8827C25.2583 10.9598 23.3804 5.63069 19.2406 2.5436V2.54703Z" fill="#56AA42"/>
</g>
<path d="M14.1317 5.10618C10.9299 6.18777 10.0639 10.689 9.93012 13.5807C9.83408 15.6633 10.117 17.7459 10.2611 19.82C10.4189 22.0911 10.4309 24.3743 10.5561 26.6489C10.5989 27.4168 11.4907 27.146 11.6485 26.5889C12.6791 22.9019 12.0583 19.0641 11.5833 15.3393C11.3346 13.3887 11.3981 11.4638 12.0481 9.59882C12.5848 8.05614 13.6241 6.85284 14.3426 5.41814C14.4078 5.28959 14.3032 5.05133 14.1317 5.10961V5.10618Z" fill="#FFFCD5"/>
<path d="M10.2664 31.582C8.95102 35.3787 6.79192 38.6869 4.89521 42.2025C3.5164 44.7565 1.26985 49.7548 3.84224 52.2574C4.31385 52.7151 4.8832 52.0397 4.87291 51.5752C4.83519 49.8594 4.51449 48.3458 4.84376 46.618C5.19532 44.7788 6.02363 43.0236 6.85023 41.3558C8.32164 38.3904 10.8649 35.089 10.515 31.606C10.5013 31.4637 10.311 31.4517 10.2647 31.582H10.2664Z" fill="#FFFCD5"/>
<path d="M12.0359 18.2343C12.0359 18.2343 11.2625 17.8572 9.85285 18.1572C9.85285 18.1572 6.23777 18.9902 6.02855 23.6577C5.87249 27.1202 6.83971 30.065 7.35076 31.3591C8.09676 31.5357 8.59409 31.8271 9.08113 32.1785C9.35895 32.3807 9.63162 32.5967 9.87342 32.8384C10.7806 32.9412 11.9245 32.8521 13.2398 32.2607C13.2398 32.2607 15.3355 28.6646 15.4589 23.9936C15.5824 19.3227 12.0359 18.2343 12.0359 18.2343Z" fill="white"/>
<path d="M10.3142 33.0647C10.1598 33.0595 10.0055 33.0475 9.85284 33.0304C9.80996 33.0253 9.76881 33.0064 9.73794 32.9756C9.53558 32.7716 9.29034 32.5693 8.96793 32.3345C8.48261 31.9831 8.01443 31.714 7.30617 31.546C7.24443 31.5306 7.1947 31.4877 7.17069 31.4294C6.60476 29.9999 5.68041 27.0859 5.83476 23.6492C5.94623 21.1689 7.01634 19.7565 7.89267 19.0108C8.84789 18.1983 9.76881 17.9789 9.80825 17.9704C11.1819 17.6807 11.9845 18.0029 12.1045 18.0561C12.2263 18.0955 13.0803 18.3955 13.9275 19.2268C14.749 20.0341 15.7162 21.5185 15.651 24.0006C15.5275 28.668 13.4285 32.3242 13.4062 32.3602C13.3856 32.3945 13.3547 32.4219 13.3187 32.439C12.3103 32.8916 11.302 33.1024 10.3142 33.0681V33.0647ZM9.96088 32.6533C10.9881 32.7596 12.0428 32.5762 13.1026 32.1099C13.3582 31.6488 15.1537 28.2498 15.2652 23.9886C15.3835 19.5165 12.0119 18.4297 11.9776 18.4195C11.9691 18.416 11.9588 18.4126 11.9502 18.4092C11.9365 18.4023 11.2042 18.0681 9.89228 18.3457C9.75337 18.3783 6.42126 19.2079 6.22062 23.6663C6.07142 26.9591 6.93746 29.7633 7.49309 31.1946C8.25281 31.39 8.75871 31.7071 9.19259 32.0225C9.50642 32.2505 9.75166 32.4528 9.95916 32.655L9.96088 32.6533Z" fill="black"/>
<path d="M14.2498 24.6537C14.1606 27.134 12.6481 29.0949 10.8714 29.0315C9.09303 28.968 7.72452 26.906 7.81369 24.424C7.90287 21.9437 9.41544 19.9828 11.1921 20.0462C12.9705 20.1096 14.339 22.1717 14.2498 24.6537Z" fill="black"/>
<path d="M10.4478 24.9159C10.405 26.1038 9.68125 27.0414 8.83064 27.0123C7.98004 26.9814 7.32494 25.9941 7.3661 24.8062C7.40897 23.6184 8.13267 22.6808 8.98327 22.7099C9.83388 22.7407 10.489 23.7281 10.4478 24.9159Z" fill="white"/>
<path d="M22.1713 32.2883C22.7835 32.0157 23.4609 31.8203 24.1314 31.8255C24.7471 30.5142 25.8498 27.7219 25.939 24.3674C26.0625 19.6965 22.516 18.6081 22.516 18.6081C22.516 18.6081 21.7425 18.231 20.3329 18.5309C20.3329 18.5309 16.7178 19.364 16.5086 24.0315C16.2976 28.6989 18.1326 32.4357 18.1326 32.4357C18.1326 32.4357 19.0758 33.1385 20.6381 33.2379C21.048 32.8042 21.6534 32.5214 22.173 32.29L22.1713 32.2883Z" fill="white"/>
<path d="M20.6295 33.4298C20.6295 33.4298 20.6261 33.4298 20.6244 33.4298C19.0243 33.3287 18.0554 32.6208 18.0159 32.5899C17.9919 32.5711 17.9714 32.5471 17.9576 32.5196C17.9388 32.4819 16.1038 28.6852 16.3147 24.0212C16.4262 21.5409 17.4963 20.1284 18.3744 19.3828C19.3296 18.5703 20.2505 18.3509 20.2899 18.3424C21.7511 18.0338 22.5657 18.4178 22.6 18.4349C22.6102 18.4349 23.514 18.7195 24.4092 19.5988C25.2307 20.4061 26.1979 21.8905 26.1327 24.3725C26.0435 27.7356 24.9511 30.5381 24.3063 31.9077C24.2737 31.9763 24.2051 32.0191 24.1297 32.0191C23.5603 32.0157 22.9275 32.1648 22.2501 32.4665C21.7116 32.7065 21.1543 32.9722 20.7787 33.3698C20.741 33.411 20.6861 33.4315 20.6312 33.4298H20.6295ZM18.2835 32.3054C18.4653 32.4271 19.297 32.9362 20.5609 33.0373C20.9811 32.6242 21.5453 32.3534 22.0923 32.1117C22.7714 31.81 23.4145 31.6489 24.0062 31.6335C24.6424 30.2536 25.6594 27.5676 25.7451 24.3623C25.8617 19.9005 22.5965 18.836 22.4576 18.7932C22.4233 18.7794 21.6876 18.4401 20.3723 18.7195C20.2333 18.752 16.9012 19.5816 16.7006 24.04C16.5068 28.3372 18.0828 31.8734 18.2835 32.3054Z" fill="black"/>
<path d="M25.2089 25.0431C25.2973 22.5615 23.928 20.4986 22.1504 20.4353C20.3728 20.372 18.8601 22.3324 18.7717 24.8139C18.6833 27.2954 20.0526 29.3584 21.8302 29.4217C23.6077 29.485 25.1205 27.5246 25.2089 25.0431Z" fill="black"/>
<path d="M21.3738 25.0479C21.331 26.2358 20.6073 27.1734 19.7567 27.1442C18.9061 27.1134 18.251 26.1261 18.2921 24.9382C18.335 23.7503 19.0587 22.8127 19.9093 22.8418C20.7599 22.8727 21.415 23.86 21.3738 25.0479Z" fill="white"/>
<path d="M24.0424 30.2502C21.8988 30.7079 19.7036 30.8484 17.5103 30.8501C17.8447 31.8443 18.1311 32.434 18.1311 32.434C18.1311 32.434 19.0743 33.1367 20.6366 33.2362C21.0464 32.8025 21.6518 32.5197 22.1714 32.2883C22.7837 32.0157 23.4611 31.8203 24.1316 31.8255C24.3357 31.3901 24.5946 30.7884 24.8519 30.0582C24.5843 30.1268 24.3151 30.1919 24.0441 30.2502H24.0424Z" fill="white"/>
<path d="M20.6296 33.4298C20.6296 33.4298 20.6262 33.4298 20.6245 33.4298C19.0244 33.3287 18.0555 32.6208 18.016 32.5899C17.9903 32.5711 17.9715 32.5471 17.9577 32.5197C17.9457 32.4957 17.6611 31.906 17.3284 30.9118C17.3078 30.8536 17.3181 30.7884 17.3541 30.737C17.3901 30.6873 17.4484 30.6564 17.5101 30.6564C20.0465 30.6564 22.1079 30.4662 24.0011 30.0616C24.2687 30.0051 24.5362 29.9399 24.802 29.8714C24.8706 29.8542 24.9444 29.8748 24.9924 29.9279C25.0404 29.9811 25.0558 30.0548 25.0318 30.1234C24.7557 30.905 24.4848 31.5255 24.3047 31.9077C24.2721 31.9763 24.2035 32.0191 24.1281 32.0191C23.5587 32.0157 22.9259 32.1648 22.2485 32.4665C21.71 32.7065 21.1527 32.9722 20.7771 33.3699C20.7394 33.411 20.6845 33.4316 20.6296 33.4298ZM18.2836 32.3054C18.4654 32.4271 19.2971 32.9362 20.561 33.0373C20.9812 32.6242 21.5454 32.3534 22.0924 32.1117C22.7715 31.81 23.4146 31.6489 24.0063 31.6335C24.1521 31.3181 24.3441 30.8758 24.5448 30.3342C24.3904 30.3719 24.2378 30.4062 24.0835 30.4405C22.2313 30.8364 20.2214 31.0284 17.7811 31.0438C18.0195 31.7192 18.2201 32.1683 18.2836 32.3071V32.3054Z" fill="black"/>
<path d="M8.7915 16.426C8.7915 16.426 13.6739 14.4274 15.0956 19.6811C15.0956 19.6811 12.6381 16.1518 8.7915 16.426Z" fill="black"/>
<path d="M23.9497 17.8487C23.9497 17.8487 19.7018 14.7205 17.042 19.4703C17.042 19.4703 20.2866 16.6454 23.9497 17.8487Z" fill="black"/>
<path d="M15.7814 32.4768C15.7831 32.4631 15.7865 32.4511 15.7882 32.4374C15.7917 32.4186 15.7951 32.4014 15.7985 32.3826C15.8002 32.374 15.802 32.3671 15.8037 32.3586C15.8088 32.338 15.7985 32.3757 15.8037 32.3551C15.814 32.3191 15.8242 32.2814 15.838 32.2454C15.862 32.1769 15.8911 32.1117 15.9151 32.0432C15.9374 31.978 15.9614 31.9129 15.9855 31.8478C15.9906 31.8341 15.9872 31.8203 15.9855 31.8083C15.9203 31.8323 15.8517 31.8598 15.7882 31.8889C15.7642 31.9215 15.7402 31.9558 15.7179 31.99C15.6751 32.0518 15.6408 32.1186 15.6065 32.1855C15.5756 32.2454 15.5481 32.3089 15.5259 32.3723C15.5173 32.398 15.5104 32.4237 15.5018 32.4477C15.3715 32.4391 15.2412 32.4357 15.1074 32.4443C14.6701 32.4717 14.2054 32.5197 13.8212 32.7477C12.8351 33.3339 13.6171 34.748 14.1333 35.3788C14.3923 35.6976 14.7318 36.0405 15.1211 36.2376C14.7353 35.8519 14.4146 35.3942 14.1728 34.9211C14.0219 34.6263 13.9052 34.3006 13.8349 33.9767C13.8075 33.8481 13.7818 33.6836 13.7938 33.5276C13.7886 33.3527 13.8212 33.1916 13.9378 33.0854C14.1848 32.8642 14.653 32.8334 14.9651 32.7957C15.3475 32.7494 15.7368 32.7631 16.1244 32.8077C16.433 32.8008 16.7417 32.7991 17.0504 32.8042C16.6251 32.6705 16.2118 32.5386 15.7814 32.4768Z" fill="black"/>
<path d="M25.1243 31.7638C24.6218 31.6695 24.0645 31.7038 23.5586 31.7706C23.0081 31.8426 22.4662 31.9952 21.962 32.2283C21.4526 32.4631 20.9656 32.7699 20.5712 33.1728C20.3962 33.351 20.2368 33.5396 20.1201 33.7607C19.9949 33.9989 19.9178 34.2561 19.7943 34.4943C19.7634 34.5526 19.8663 34.5526 19.8903 34.5115C20.1476 34.0761 20.3791 33.6527 20.7632 33.3133C21.168 32.9551 21.6361 32.6654 22.1335 32.4545C22.5793 32.266 23.0492 32.146 23.5277 32.0723C24.037 31.9935 24.5567 31.9969 25.0643 31.9197C25.1192 31.9112 25.2238 31.7843 25.1243 31.7655V31.7638Z" fill="black"/>
<path d="M5.53818 31.0661C6.0458 31.0078 6.59972 31.0815 7.09877 31.1844C7.64412 31.2958 8.17231 31.4861 8.65935 31.7552C9.15154 32.026 9.61457 32.3654 9.97985 32.7956C10.1411 32.9859 10.2868 33.1864 10.388 33.4144C10.496 33.6595 10.5544 33.9218 10.6607 34.1686C10.6864 34.2303 10.5852 34.2218 10.5629 34.1789C10.3383 33.7264 10.1359 33.2876 9.77749 32.9208C9.39849 32.5334 8.95261 32.2128 8.47071 31.966C8.04026 31.7449 7.57895 31.5923 7.10734 31.4844C6.60487 31.3695 6.08696 31.3352 5.5862 31.2221C5.53132 31.2101 5.437 31.0747 5.53818 31.0627V31.0661Z" fill="black"/>
<path d="M16.8037 25.4387C18.649 24.7154 20.6263 24.6451 22.571 24.9194C23.6823 25.0753 24.8021 25.3547 25.8345 25.8141C25.8877 25.3462 25.9237 24.8645 25.9374 24.3674C26.0609 19.6965 22.5144 18.6081 22.5144 18.6081C22.5144 18.6081 21.741 18.231 20.3313 18.5309C20.3313 18.5309 16.7162 19.364 16.507 24.0315C16.483 24.5543 16.4881 25.0633 16.5104 25.5587C16.6082 25.5176 16.7059 25.4764 16.8037 25.4387Z" fill="white"/>
<path d="M16.5053 25.7507C16.471 25.7507 16.4384 25.7404 16.4092 25.7215C16.3561 25.6872 16.3218 25.6307 16.32 25.5673C16.2943 25.017 16.2943 24.5131 16.3166 24.0229C16.4281 21.5426 17.4982 20.1302 18.3762 19.3845C19.3315 18.572 20.2524 18.3526 20.2918 18.3441C21.7529 18.0355 22.5675 18.4195 22.6018 18.4366C22.6121 18.4366 23.5159 18.7212 24.4111 19.6005C25.2325 20.4078 26.1997 21.8922 26.1346 24.3743C26.1226 24.8405 26.0883 25.3204 26.03 25.8364C26.0231 25.8981 25.9871 25.9512 25.9339 25.9821C25.8808 26.0129 25.8156 26.0164 25.759 25.9906C24.8244 25.5758 23.744 25.2793 22.5469 25.1113C20.381 24.8062 18.5272 24.9725 16.8774 25.6187C16.7814 25.6564 16.6853 25.6975 16.5893 25.737C16.5636 25.7472 16.5344 25.7524 16.507 25.7524L16.5053 25.7507ZM21.5111 18.6115C21.2024 18.6012 20.8217 18.6235 20.3741 18.7195C20.2352 18.752 16.9031 19.5816 16.7025 24.04C16.6853 24.4342 16.6819 24.8405 16.6956 25.2742C16.7093 25.269 16.7213 25.2639 16.7351 25.2587C18.45 24.5868 20.3673 24.4137 22.6001 24.7274C23.7302 24.8868 24.7626 25.1576 25.6715 25.533C25.711 25.125 25.7367 24.7394 25.7453 24.3623C25.8619 19.9005 22.5967 18.836 22.4578 18.7932C22.4355 18.7846 22.1079 18.6337 21.5094 18.6115H21.5111Z" fill="black"/>
<path d="M6.77462 25.1285C8.37465 24.7223 10.1102 24.6126 11.7513 24.8045C12.993 24.9502 14.2277 25.2965 15.291 25.9444C15.3784 25.3205 15.4419 24.6708 15.459 23.9938C15.5825 19.3229 12.036 18.2344 12.036 18.2344C12.036 18.2344 11.2626 17.8573 9.85292 18.1573C9.85292 18.1573 6.23785 18.9903 6.02863 23.6578C6.0029 24.2372 6.00976 24.7994 6.03892 25.3445C6.28072 25.2639 6.52596 25.1919 6.77291 25.1285H6.77462Z" fill="white"/>
<path d="M15.2841 26.1381C15.2516 26.1381 15.219 26.1278 15.1898 26.1106C14.2346 25.5296 13.0702 25.1542 11.7291 24.9982C10.0931 24.8079 8.39699 24.9176 6.82269 25.3187C6.59289 25.377 6.34937 25.449 6.1007 25.5313C6.04411 25.5501 5.98066 25.5416 5.93092 25.5073C5.88119 25.473 5.85032 25.4181 5.84689 25.3581C5.81431 24.7616 5.81088 24.2028 5.8366 23.6526C5.94807 21.1723 7.01819 19.7599 7.89452 19.0143C8.84973 18.2018 9.77065 17.9824 9.81009 17.9738C11.2712 17.6653 12.0875 18.0492 12.1201 18.0664C12.1304 18.0664 13.0342 18.3509 13.9294 19.2303C14.7508 20.0376 15.718 21.522 15.6529 24.004C15.6357 24.6399 15.5808 25.2844 15.4831 25.9769C15.4745 26.0404 15.4333 26.0969 15.375 26.1243C15.3459 26.1381 15.3167 26.1432 15.2859 26.1432L15.2841 26.1381ZM10.659 24.5285C11.0328 24.5422 11.405 24.5697 11.7737 24.6125C13.0565 24.7616 14.1866 25.1045 15.1384 25.6324C15.2104 25.0616 15.2533 24.5217 15.267 23.9886C15.3853 19.5165 12.0138 18.4298 11.9795 18.4195C11.9452 18.4058 11.2095 18.0664 9.89413 18.3458C9.75522 18.3784 6.42311 19.208 6.22246 23.6663C6.20188 24.1274 6.20188 24.5937 6.22246 25.0839C6.39567 25.0308 6.56373 24.9828 6.72837 24.9416C7.99227 24.6211 9.33334 24.4805 10.659 24.5285Z" fill="black"/>
<path d="M17.8993 24.5594C17.8222 24.5559 17.7518 24.5079 17.7244 24.4308C17.6884 24.3297 17.7416 24.22 17.8427 24.184C17.9696 24.1394 20.9948 23.0972 24.9374 24.3502C25.0386 24.3828 25.0952 24.4908 25.0626 24.5936C25.03 24.6948 24.9237 24.7531 24.8191 24.7188C21.0016 23.5052 18.0022 24.5371 17.9714 24.5474C17.9473 24.5559 17.9233 24.5594 17.8993 24.5577V24.5594Z" fill="black"/>
<path d="M7.22404 24.34C7.14687 24.3365 7.07655 24.2885 7.04911 24.2114C7.0131 24.1103 7.06626 24.0006 7.16745 23.9646C7.29435 23.9183 10.3195 22.8778 14.2621 24.1308C14.3633 24.1634 14.4199 24.2714 14.3873 24.3742C14.3547 24.4754 14.2484 24.5337 14.1438 24.4994C10.3349 23.2892 7.32693 24.3177 7.29606 24.328C7.27206 24.3365 7.24805 24.34 7.22404 24.3383V24.34Z" fill="black"/>
<path d="M9.10531 30.2141C8.30958 30.0582 7.52414 29.8508 6.75757 29.5885C6.9685 30.3273 7.18459 30.9324 7.35093 31.3574C8.09693 31.534 8.59426 31.8254 9.0813 32.1785C9.35912 32.3808 9.63179 32.5967 9.8736 32.8384C10.7808 32.9413 11.9247 32.8521 13.24 32.2608C13.24 32.2608 13.5624 31.7037 13.9603 30.7524C12.3328 30.6701 10.7036 30.5278 9.10531 30.2141Z" fill="white"/>
<path d="M10.3143 33.0647C10.1599 33.0596 10.0056 33.0476 9.85298 33.0304C9.8101 33.0253 9.76894 33.0064 9.73808 32.9756C9.53571 32.7716 9.29048 32.5693 8.96807 32.3345C8.48275 31.9831 8.01457 31.714 7.30631 31.546C7.24457 31.5306 7.19484 31.4877 7.17083 31.4295C7.01991 31.0489 6.79354 30.4301 6.5706 29.6434C6.55002 29.5748 6.5706 29.4994 6.62376 29.4514C6.67521 29.4017 6.75067 29.3846 6.81927 29.4085C7.56526 29.6622 8.34727 29.8714 9.14299 30.0256C10.5235 30.2964 12.0138 30.461 13.9705 30.5604C14.0323 30.5638 14.0906 30.5964 14.1249 30.6513C14.1592 30.7044 14.1643 30.7713 14.1403 30.8295C13.7424 31.7809 13.4217 32.3362 13.4097 32.3585C13.3892 32.3928 13.3583 32.4219 13.3223 32.4374C12.3139 32.8899 11.3055 33.1007 10.3177 33.0664L10.3143 33.0647ZM9.96102 32.6533C10.9883 32.7596 12.0429 32.5762 13.1028 32.11C13.1817 31.9677 13.4029 31.5529 13.6738 30.9307C11.832 30.8295 10.4018 30.665 9.06754 30.4044C8.37985 30.269 7.70074 30.0959 7.04564 29.8885C7.21198 30.437 7.37319 30.8827 7.49495 31.1946C8.25466 31.39 8.76057 31.7072 9.19444 32.0225C9.50828 32.2505 9.75351 32.4528 9.96102 32.655V32.6533Z" fill="black"/>
<g style="mix-blend-mode:color-burn">
<path d="M7.1399 32.4236C7.13818 32.4784 7.09188 32.5213 7.037 32.5196C6.98213 32.5178 6.93925 32.4716 6.94097 32.4167C6.94268 32.3619 6.98899 32.319 7.04386 32.3207C7.09874 32.3224 7.14161 32.3687 7.1399 32.4236Z" fill="#F69473"/>
</g>
<g style="mix-blend-mode:color-burn">
<path d="M6.44705 33.1384C6.44534 33.195 6.39732 33.2396 6.34073 33.2378C6.28413 33.2361 6.23954 33.1881 6.24126 33.1316C6.24297 33.075 6.29099 33.0304 6.34758 33.0322C6.40418 33.0339 6.44877 33.0819 6.44705 33.1384Z" fill="#F69473"/>
</g>
<g style="mix-blend-mode:color-burn">
<path d="M7.20505 33.8275C7.20162 33.8995 7.1416 33.956 7.06957 33.9543C6.99754 33.9509 6.94095 33.8909 6.94266 33.8189C6.94609 33.7469 7.00612 33.6903 7.07814 33.6921C7.15017 33.6938 7.20676 33.7555 7.20505 33.8275Z" fill="#F69473"/>
</g>
<g style="mix-blend-mode:color-burn">
<path d="M8.3403 32.3533C8.33859 32.4253 8.27685 32.4819 8.20482 32.4802C8.1328 32.4768 8.0762 32.4168 8.07792 32.3448C8.08135 32.2728 8.14137 32.2162 8.2134 32.2179C8.28543 32.2196 8.34202 32.2814 8.3403 32.3533Z" fill="#F69473"/>
</g>
<g style="mix-blend-mode:color-burn">
<path d="M9.01252 32.9138C9.00909 33.0064 8.93192 33.0801 8.8376 33.0767C8.74328 33.0733 8.67125 32.9961 8.67468 32.9018C8.67811 32.8093 8.75528 32.7356 8.8496 32.739C8.94392 32.7424 9.01595 32.8196 9.01252 32.9138Z" fill="#F69473"/>
</g>
<g style="mix-blend-mode:color-burn">
<path d="M9.1583 33.5035C9.15658 33.5532 9.11542 33.5927 9.06569 33.5892C9.01596 33.5858 8.97651 33.5464 8.97994 33.4967C8.98337 33.447 9.02282 33.4075 9.07255 33.411C9.12228 33.4144 9.16173 33.4538 9.16001 33.5035H9.1583Z" fill="#F69473"/>
</g>
<g style="mix-blend-mode:color-burn">
<path d="M8.37452 33.8343C8.3728 33.8892 8.3265 33.932 8.27162 33.9303C8.21675 33.9286 8.17387 33.8823 8.17559 33.8275C8.1773 33.7726 8.22361 33.7298 8.27848 33.7315C8.33336 33.7332 8.37623 33.7795 8.37452 33.8343Z" fill="#F69473"/>
</g>
<g style="mix-blend-mode:color-burn">
<path d="M7.63721 33.0304C7.6355 33.0852 7.5892 33.1281 7.53432 33.1264C7.47944 33.1247 7.43657 33.0784 7.43828 33.0235C7.44 32.9687 7.4863 32.9258 7.54118 32.9275C7.59606 32.9293 7.63893 32.9755 7.63721 33.0304Z" fill="#F69473"/>
</g>
<g style="mix-blend-mode:color-burn">
<path d="M22.4766 32.9705C22.4749 33.0253 22.4286 33.0682 22.3737 33.0664C22.3188 33.0647 22.2759 33.0184 22.2776 32.9636C22.2794 32.9087 22.3257 32.8659 22.3805 32.8676C22.4354 32.8693 22.4783 32.9156 22.4766 32.9705Z" fill="#F69473"/>
</g>
<g style="mix-blend-mode:color-burn">
<path d="M21.7837 33.6853C21.782 33.7419 21.734 33.7864 21.6774 33.7847C21.6208 33.783 21.5762 33.735 21.5779 33.6784C21.5796 33.6219 21.6277 33.5773 21.6843 33.579C21.7408 33.5807 21.7854 33.6287 21.7837 33.6853Z" fill="#F69473"/>
</g>
<g style="mix-blend-mode:color-burn">
<path d="M22.5417 34.3743C22.5383 34.4463 22.4783 34.5029 22.4062 34.5012C22.3342 34.4995 22.2776 34.4378 22.2793 34.3658C22.2828 34.2938 22.3428 34.2372 22.4148 34.2389C22.4868 34.2424 22.5434 34.3023 22.5417 34.3743Z" fill="#F69473"/>
</g>
<g style="mix-blend-mode:color-burn">
<path d="M23.677 32.9002C23.6753 32.9722 23.6135 33.0288 23.5415 33.0271C23.4695 33.0254 23.4129 32.9636 23.4146 32.8917C23.418 32.8197 23.478 32.7631 23.5501 32.7648C23.6221 32.7665 23.6787 32.8282 23.677 32.9002Z" fill="#F69473"/>
</g>
<g style="mix-blend-mode:color-burn">
<path d="M24.3492 33.4607C24.3458 33.5533 24.2686 33.627 24.1743 33.6236C24.0799 33.6201 24.0079 33.543 24.0113 33.4487C24.0148 33.3562 24.092 33.2825 24.1863 33.2859C24.2806 33.2893 24.3526 33.3664 24.3492 33.4607Z" fill="#F69473"/>
</g>
<g style="mix-blend-mode:color-burn">
<path d="M24.495 34.0487C24.4933 34.0984 24.4521 34.1378 24.4024 34.1344C24.3526 34.131 24.3132 34.0915 24.3166 34.0418C24.32 33.9921 24.3595 33.9527 24.4092 33.9544C24.459 33.9561 24.4984 33.9973 24.495 34.047V34.0487Z" fill="#F69473"/>
</g>
<g style="mix-blend-mode:color-burn">
<path d="M23.7112 34.3812C23.7095 34.4361 23.6632 34.4789 23.6083 34.4772C23.5534 34.4755 23.5105 34.4292 23.5123 34.3744C23.514 34.3195 23.5603 34.2767 23.6152 34.2784C23.67 34.2801 23.7129 34.3264 23.7112 34.3812Z" fill="#F69473"/>
</g>
<g style="mix-blend-mode:color-burn">
<path d="M22.9739 33.5773C22.9722 33.6321 22.9259 33.675 22.871 33.6733C22.8161 33.6715 22.7732 33.6253 22.775 33.5704C22.7767 33.5156 22.823 33.4727 22.8778 33.4744C22.9327 33.4761 22.9756 33.5224 22.9739 33.5773Z" fill="#F69473"/>
</g>
<path d="M14.437 38.0031C14.0066 37.674 13.7168 37.2626 13.8814 36.7055C13.914 36.5958 13.9603 36.4896 14.0117 36.385C13.7631 36.7621 13.619 37.1941 13.8265 37.6157C14.1249 38.2208 14.7886 38.5122 15.3391 38.8345C15.3631 38.8482 15.3837 38.8619 15.4077 38.8773C15.015 39.3812 14.4713 39.9829 14.5451 40.624C14.624 41.3165 15.5672 41.4484 16.1039 41.2445C16.7196 41.0114 16.8259 40.2143 16.6476 39.6264C16.0919 38.9116 15.1556 38.5516 14.437 38.0048V38.0031Z" fill="black"/>
<path d="M15.8708 41.0541C15.5741 41.0987 15.1351 41.0593 14.9379 40.797C14.6875 40.4611 14.9293 40.0051 15.1231 39.7069C15.2774 39.4703 15.4712 39.2578 15.6341 39.0264C16.0577 39.3229 16.3818 39.6932 16.3973 40.2674C16.4076 40.6445 16.2738 40.9959 15.8691 41.0559L15.8708 41.0541Z" fill="#FABFBC"/>
<path d="M13.5418 41.1056C13.5401 41.2067 13.5418 41.3061 13.5538 41.4073C13.6842 42.5197 14.6702 43.3459 15.797 43.2259C15.8124 43.2242 15.8278 43.2242 15.8415 43.2208C15.9307 43.2088 16.0165 43.1831 16.1022 43.1591C16.1537 43.1437 16.2068 43.1351 16.2583 43.1179C16.6373 42.9808 16.9717 42.7306 17.1981 42.3912C17.397 42.0912 17.4896 41.7535 17.4947 41.4107C17.3747 41.6524 17.3027 41.9061 17.1449 42.1306C16.9974 42.3415 16.807 42.5197 16.5875 42.6534C16.1194 42.9397 15.5329 42.9911 15.0149 42.8214C14.4336 42.6311 13.9568 42.1975 13.6979 41.6455C13.6121 41.4621 13.5658 41.2821 13.5435 41.1039L13.5418 41.1056Z" fill="black"/>
<path d="M17.8772 39.0161C17.4879 37.8334 17.493 36.5529 17.7708 35.3411C17.6028 35.7456 17.4844 36.1793 17.4158 36.5838C17.2941 37.2951 17.3267 38.0356 17.505 38.735C17.6696 39.3795 17.932 40.0188 18.3488 40.5416C18.5546 40.8005 18.8049 41.0301 19.0845 41.2084C19.1702 41.2633 19.2628 41.3215 19.3589 41.3781C18.702 40.713 18.1807 39.9331 17.8789 39.0178L17.8772 39.0161Z" fill="black"/>
</g>
<defs>
<clipPath id="clip0_111_87">
<rect width="26.65" height="60.475" fill="white" transform="translate(0.625 0.299805)"/>
</clipPath>
</defs>
</svg>
