<svg width="18" height="18" viewBox="0 0 18 18" fill="none" xmlns="http://www.w3.org/2000/svg">
<path opacity="0.5" d="M9 0C11.3869 0 13.6761 0.948211 15.364 2.63604C17.0518 4.32387 18 6.61305 18 9C18 11.3869 17.0518 13.6761 15.364 15.364C13.6761 17.0518 11.3869 18 9 18C6.61305 18 4.32387 17.0518 2.63604 15.364C0.948211 13.6761 0 11.3869 0 9C0 6.61305 0.948211 4.32387 2.63604 2.63604C4.32387 0.948211 6.61305 0 9 0ZM9.477 3.84686C8.43043 3.84686 7.61014 4.14386 7.002 4.73786C6.37971 5.33186 6.08271 6.15214 6.08271 7.19871H7.695C7.695 6.60471 7.80814 6.138 8.04857 5.81271C8.31729 5.41671 8.75571 5.23286 9.378 5.23286C9.85886 5.23286 10.2407 5.36014 10.5094 5.62886C10.764 5.89757 10.9054 6.26529 10.9054 6.732C10.9054 7.08557 10.7781 7.425 10.5236 7.73614L10.3539 7.93414C9.43457 8.75443 8.883 9.34843 8.69914 9.73029C8.50114 10.1121 8.41629 10.5789 8.41629 11.1163V11.3143H10.0427V11.1163C10.0427 10.7769 10.1134 10.4799 10.2549 10.197C10.3821 9.94243 10.566 9.702 10.8206 9.48986C11.4994 8.89586 11.9096 8.514 12.0369 8.37257C12.3763 7.92 12.5601 7.34014 12.5601 6.633C12.5601 5.77029 12.2773 5.09143 11.7116 4.59643C11.1459 4.08729 10.3963 3.84686 9.477 3.84686ZM9.22243 12.0073C8.93406 11.9995 8.65436 12.1063 8.44457 12.3043C8.341 12.4018 8.25961 12.5205 8.20593 12.6523C8.15225 12.7841 8.12752 12.9258 8.13343 13.068C8.13343 13.3791 8.23243 13.6337 8.44457 13.8317C8.65278 14.0338 8.93229 14.1456 9.22243 14.1429C9.53357 14.1429 9.78814 14.0439 10.0003 13.8459C10.1061 13.7463 10.1897 13.6256 10.2457 13.4916C10.3018 13.3575 10.329 13.2132 10.3256 13.068C10.3283 12.9262 10.3021 12.7854 10.2486 12.6541C10.1951 12.5228 10.1154 12.4038 10.0144 12.3043C9.79919 12.1059 9.51503 11.9994 9.22243 12.0073Z" fill="white"/>
</svg>
