<svg width="21" height="18" viewBox="0 0 21 18" fill="none" xmlns="http://www.w3.org/2000/svg">
<g clip-path="url(#clip0_302_33)">
<path d="M18.32 6.39506C16.6441 6.39506 15.9589 5.19506 16.7923 3.72319C17.2738 2.87006 16.9867 1.78256 16.1441 1.29506L14.5423 0.366939C13.8108 -0.0736863 12.8663 0.188814 12.4312 0.929439L12.3293 1.10756C11.496 2.57944 10.1256 2.57944 9.28301 1.10756L9.18116 0.929439C8.76449 0.188814 7.82005 -0.0736863 7.08857 0.366939L5.48672 1.29506C4.64412 1.78256 4.35709 2.87944 4.83857 3.73256C5.68116 5.19506 4.99598 6.39506 3.32005 6.39506C2.35709 6.39506 1.56079 7.19194 1.56079 8.17631V9.82631C1.56079 10.8013 2.34783 11.6076 3.32005 11.6076C4.99598 11.6076 5.68116 12.8076 4.83857 14.2794C4.35709 15.1326 4.64412 16.2201 5.48672 16.7076L7.08857 17.6357C7.82005 18.0763 8.76449 17.8138 9.19968 17.0732L9.30153 16.8951C10.1349 15.4232 11.5052 15.4232 12.3478 16.8951L12.4497 17.0732C12.8849 17.8138 13.8293 18.0763 14.5608 17.6357L16.1626 16.7076C17.0052 16.2201 17.2923 15.1232 16.8108 14.2794C15.9682 12.8076 16.6534 11.6076 18.3293 11.6076C19.2923 11.6076 20.0886 10.8107 20.0886 9.82631V8.17631C20.0793 7.20131 19.2923 6.39506 18.32 6.39506ZM10.82 12.0482C9.16264 12.0482 7.81079 10.6794 7.81079 9.00131C7.81079 7.32319 9.16264 5.95444 10.82 5.95444C12.4775 5.95444 13.8293 7.32319 13.8293 9.00131C13.8293 10.6794 12.4775 12.0482 10.82 12.0482Z" fill="white"/>
</g>
<defs>
<clipPath id="clip0_302_33">
<rect width="20" height="18" fill="white" transform="translate(0.820068)"/>
</clipPath>
</defs>
</svg>
