<svg width="19" height="18" viewBox="0 0 19 18" fill="none" xmlns="http://www.w3.org/2000/svg">
<g clip-path="url(#clip0_302_35)">
<path d="M18.8009 14.8307C18.8009 16.572 17.357 17.9825 15.577 17.9825C13.7958 17.9825 12.3523 16.572 12.3523 14.8307C12.3523 14.7737 12.3576 14.718 12.3608 14.6615L5.97821 11.4807C5.44294 11.8684 4.78157 12.1009 4.06409 12.1009C2.28279 12.1009 0.839355 10.69 0.839355 8.94921C0.839355 7.20845 2.28279 5.79749 4.06409 5.79749C4.86141 5.79749 5.59007 6.08215 6.15318 6.551L12.3671 3.45408C12.3581 3.35979 12.3523 3.2655 12.3523 3.16942C12.3523 1.42908 13.7957 0.0177002 15.577 0.0177002C17.3569 0.0177002 18.8008 1.42908 18.8008 3.16942C18.8008 4.91022 17.357 6.32118 15.577 6.32118C14.7828 6.32118 14.0577 6.03961 13.496 5.57513L7.27401 8.67644C7.28207 8.76637 7.28793 8.85714 7.28793 8.94925C7.28793 9.11283 7.27088 9.27205 7.24664 9.42906L13.4107 12.501C13.9833 11.9922 14.7416 11.6791 15.577 11.6791C17.357 11.679 18.8009 13.0904 18.8009 14.8307Z" fill="white"/>
</g>
<defs>
<clipPath id="clip0_302_35">
<rect width="18" height="18" fill="white" transform="translate(0.820068)"/>
</clipPath>
</defs>
</svg>
