<svg width="29" height="20" viewBox="0 0 29 20" fill="none" xmlns="http://www.w3.org/2000/svg">
<g clip-path="url(#clip0_111_55)">
<path d="M8.3761 6.90091C8.38203 6.80918 8.35122 6.71875 8.29052 6.6497L5.54356 3.52454C5.48287 3.45549 5.3972 3.41338 5.30537 3.40745C5.21317 3.40157 5.12321 3.43233 5.05416 3.49302C3.79193 4.60255 2.74421 5.91104 1.93996 7.38215C1.89589 7.46287 1.88558 7.55778 1.91144 7.64597C1.9373 7.7342 1.99715 7.80857 2.07787 7.85264L5.7289 9.84835C5.7817 9.87724 5.8387 9.89092 5.89496 9.89092C6.0176 9.89092 6.13651 9.82566 6.19949 9.71044C6.73105 8.73808 7.424 7.87295 8.25897 7.13901C8.32815 7.07841 8.37026 6.99274 8.3761 6.90091Z" fill="white"/>
<path d="M9.60197 5.74354C9.66425 5.86096 9.78437 5.92786 9.9086 5.92786C9.96341 5.92786 10.019 5.91483 10.0707 5.88738C11.0494 5.36838 12.1021 5.02972 13.1998 4.8808C13.3896 4.85507 13.5226 4.68038 13.4968 4.4906L12.9376 0.367539C12.9119 0.17781 12.7367 0.0449899 12.5474 0.0705268C10.8804 0.296624 9.2818 0.810816 7.79613 1.59882C7.62699 1.68855 7.56261 1.89835 7.65225 2.06759L9.60197 5.74354Z" fill="white"/>
<path d="M5.13514 11.3233L1.11941 10.2337C1.03066 10.2097 0.935982 10.2218 0.856197 10.2676C0.776412 10.3133 0.718102 10.3889 0.693966 10.4776C0.363947 11.6944 0.196533 12.9556 0.196533 14.2261C0.196533 14.4435 0.201715 14.6616 0.2125 14.8929C0.221136 15.0788 0.374404 15.2236 0.558625 15.2236C0.56404 15.2236 0.569549 15.2235 0.574965 15.2232L4.73141 15.0312C4.82324 15.027 4.90975 14.9864 4.9716 14.9185C5.03355 14.8505 5.066 14.7607 5.06171 14.6688C5.05447 14.5129 5.05097 14.368 5.05097 14.2261C5.05097 13.3848 5.16138 12.5513 5.37912 11.7487C5.42912 11.5639 5.31992 11.3735 5.13514 11.3233Z" fill="white"/>
<path d="M20.6788 1.35122C19.1657 0.621763 17.549 0.169708 15.8737 0.00733668C15.7817 -0.00190701 15.6908 0.0263841 15.6198 0.0847875C15.5488 0.143238 15.504 0.227458 15.4951 0.319055L15.0939 4.46061C15.0754 4.65117 15.215 4.82069 15.4056 4.83913C16.5098 4.94609 17.5748 5.24384 18.5709 5.724C18.6183 5.74688 18.6698 5.75846 18.7215 5.75846C18.76 5.75846 18.7987 5.75197 18.8359 5.73904C18.9226 5.70874 18.9939 5.64511 19.0338 5.56229L20.8405 1.81406C20.9238 1.6416 20.8514 1.43432 20.6788 1.35122Z" fill="white"/>
<path d="M26.7905 7.16792C26.8129 7.0787 26.799 6.98435 26.7518 6.90536C25.8913 5.46581 24.7941 4.1984 23.4909 3.1385C23.4195 3.08052 23.3285 3.05335 23.2366 3.06255C23.1452 3.07202 23.0612 3.11736 23.0032 3.18869L20.3778 6.4167C20.3198 6.48808 20.2924 6.57954 20.3019 6.671C20.3113 6.76245 20.3567 6.84644 20.428 6.90452C21.2903 7.60568 22.016 8.44397 22.5851 9.39607C22.6501 9.50466 22.7651 9.56498 22.8831 9.56498C22.9437 9.56498 23.005 9.5491 23.0607 9.51577L26.6321 7.38094C26.711 7.33374 26.768 7.25713 26.7905 7.16792Z" fill="white"/>
<path d="M28.1165 9.95049C28.0591 9.76772 27.8645 9.6659 27.6819 9.72328L23.7114 10.9673C23.5287 11.0246 23.427 11.2191 23.4842 11.4018C23.7692 12.3115 23.9137 13.2617 23.9137 14.226C23.9137 14.368 23.9101 14.5128 23.9029 14.6687C23.8986 14.7606 23.931 14.8504 23.993 14.9184C24.055 14.9863 24.1414 15.0269 24.2332 15.0311L28.3897 15.2231C28.3952 15.2234 28.4006 15.2235 28.406 15.2235C28.5901 15.2235 28.7435 15.0786 28.7521 14.8928C28.7628 14.6615 28.7681 14.4434 28.7681 14.226C28.768 12.7687 28.5489 11.3303 28.1165 9.95049Z" fill="white"/>
<path d="M14.4699 13.4899C14.4101 13.4899 14.3506 13.4918 14.2914 13.495L8.6588 10.1717C8.52094 10.0902 8.34592 10.1106 8.23042 10.2214C8.11483 10.3321 8.0871 10.5061 8.16245 10.6472L11.235 16.4061C11.2237 16.517 11.2177 16.629 11.2177 16.742C11.2177 17.6107 11.556 18.4274 12.1702 19.0416C12.7845 19.6559 13.6012 19.9942 14.47 19.9942C15.3387 19.9942 16.1553 19.6558 16.7696 19.0416C17.3839 18.4274 17.7221 17.6107 17.7221 16.742C17.7221 15.8733 17.3838 15.0566 16.7696 14.4424C16.1553 13.8281 15.3386 13.4899 14.4699 13.4899Z" fill="white"/>
</g>
<defs>
<clipPath id="clip0_111_55">
<rect width="28.6071" height="20" fill="white" transform="translate(0.196533)"/>
</clipPath>
</defs>
</svg>
